<svg version="1.1" xmlns="http://www.w3.org/2000/svg" xmlns:xlink="http://www.w3.org/1999/xlink" width="479.98111" height="426.97746" viewBox="315.50483,394.7342,479.98111,426.97746"><g fill="none" fill-rule="nonzero" stroke="none" stroke-width="none" stroke-linecap="butt" stroke-linejoin="miter" stroke-miterlimit="10" stroke-dasharray="" stroke-dashoffset="0" font-family="none" font-weight="none" font-size="none" text-anchor="none" style="mix-blend-mode: normal"><path d="M499.75862,394.7342l97.18615,5.92377l-0.02323,1.41683l-1.47108,14.06963l-8.08192,8.46768l-9.47847,8.98893l-13.0425,5.70157l-5.79292,10.82549l-12.20966,7.77474l-7.70068,3.03133l-11.49023,4.29604l-5.00446,9.59874l-10.46422,-4.71088l-14.99566,2.46899l-8.99734,10.40456l-13.32235,-4.59968l-6.02646,2.12191z" fill="#d0d0ce" stroke="none" stroke-width="1"/><path d="M656.56642,548.64559l5.5017,18.76612" fill="none" stroke="none" stroke-width="1"/><path d="" fill="none" stroke="#00bb31" stroke-width="6" opacity="0"/><path d="M626.01226,770.1879l-33.51455,-97.99503l-72.5,0.01076l-32.98545,98.0049l-95.5,0.01418l83.31886,-284.51077l5.88583,-2.4855l13.57807,3.77861l8.34604,-10.93392l14.81717,-3.37895l10.73205,4.06392l4.40973,-9.88609l11.20683,-4.98881l7.50147,-3.49534l11.71276,-8.50491l5.12191,-11.15863l12.67049,-6.48639l8.91261,-9.55027l7.55045,-8.94482l0.61026,-14.13316l-0.06322,-1.41561l14.63348,-0.00217l44.10938,150.45568l-5.68493,9.28364l-13.23768,2.45506l-5.76327,9.17318l-3.06917,12.12984l-11.82499,2.5207l-5.41795,16.9758l-11.69371,-0.30468l-5.15539,11.32504l-8.50424,14.23958l9.62957,-10.40114l5.71805,-9.40582l12.25637,2.2239l0.13223,-0.3329l-0.49022,6.67863l4.20417,12.342l-1.88933,7.7737l5.77618,-6.82904l-2.26074,-11.86967l2.83399,-11.66055l4.54125,-10.21651l0.89708,-1.31921l4.62365,-0.2245l3.63184,-10.21062l6.32593,-7.25396l13.80034,-0.53584l6.12267,-7.79051l59.44414,202.76202z" fill="#d0d0ce" stroke="none" stroke-width="1"/><path d="M362.20209,775.73393l6.01189,19.82189l19.08836,0.66658l-19.1902,-75.11549l-22.38635,-0.78175l-24.38324,73.59387l19.08836,0.66658l7.28001,-19.35772zM315.50483,809.22462l3.65049,-104.53628l357.58204,12.48704l-3.65049,104.53628zM452.76149,761.28561c0.1838,-5.26346 -0.37749,-10.20272 -1.68389,-14.81779c-1.3064,-4.61507 -3.36779,-8.62279 -6.18417,-12.02315c-2.81638,-3.40036 -6.39007,-6.12674 -10.72108,-8.17914c-4.33101,-2.0524 -9.39475,-3.17981 -15.19122,-3.38223l-14.99086,-0.52349l-2.59652,74.35468l17.18952,0.60027c6.06297,0.21172 11.22808,-0.60852 15.49532,-2.46072c4.26724,-1.8522 7.7594,-4.4319 10.47647,-7.73909c2.71707,-3.30719 4.72046,-7.18964 6.01015,-11.64734c1.28969,-4.45771 2.02178,-9.18504 2.19628,-14.18199zM501.11741,780.58496l6.01189,19.82189l19.08836,0.66658l-19.1902,-75.11549l-22.38635,-0.78175l-24.38324,73.59387l19.08836,0.66658l7.28001,-19.35772zM591.87575,728.92091l-16.99822,42.63274l-13.88296,-43.71114l-17.08958,-0.59678l-2.59652,74.35468l17.78916,0.62121l0.93531,-26.78367l8.35903,27.10824l10.79342,0.37691l10.00184,-25.66658l-0.90739,25.98416l17.78916,0.62121l2.59652,-74.35468zM668.38403,787.32659c0.13262,-3.79769 -0.41906,-7.10228 -1.65502,-9.9138c-1.23597,-2.81151 -2.91489,-5.35499 -5.03677,-7.63043c-2.12188,-2.27544 -4.56838,-4.32874 -7.33949,-6.1599c-2.77111,-1.83116 -5.65883,-3.66639 -8.66313,-5.50569c-2.14282,-1.6758 -3.71371,-3.01478 -4.71268,-4.01692c-0.99897,-1.00214 -1.47635,-2.13616 -1.43214,-3.40205c0.05817,-1.66565 0.65146,-2.8957 1.77987,-3.69013c1.12841,-0.79444 2.35888,-1.16839 3.6914,-1.12186c1.2659,0.04421 2.37257,0.34968 3.32004,0.91643c0.94746,0.56674 1.75761,1.24543 2.43042,2.03606c0.67282,0.79063 1.1934,1.64265 1.56175,2.55606c0.36835,0.91341 0.63966,1.74005 0.81395,2.47992l14.89346,-5.28344c-0.26333,-2.01041 -0.89252,-4.05028 -1.88758,-6.1196c-0.99505,-2.06932 -2.41408,-3.93665 -4.25709,-5.60198c-1.843,-1.66533 -4.12896,-3.06263 -6.85788,-4.19189c-2.72892,-1.12926 -5.92559,-1.75787 -9.59003,-1.88584c-3.06713,-0.0404 -6.04827,0.32245 -8.94344,1.08854c-2.89517,0.76609 -5.47116,1.94358 -7.72799,3.53245c-2.25683,1.58887 -4.09454,3.59262 -5.51315,6.01126c-1.41861,2.41863 -2.18491,5.26029 -2.29892,8.52496c-0.12331,3.53118 0.39061,6.48425 1.54176,8.8592c1.15115,2.37495 2.77683,4.533 4.87703,6.47415c2.1002,1.94115 4.56975,3.8118 7.40866,5.61198c2.8389,1.80017 5.91777,3.89223 9.23659,6.27618c1.49517,1.11953 2.6423,2.17687 3.44139,3.17204c0.79909,0.99516 1.21217,2.06023 1.23924,3.1952c0.00148,1.86786 -0.56257,3.21566 -1.69214,4.04341c-1.12958,0.82775 -2.26301,1.28847 -3.40031,1.38217c-1.3395,0.15335 -2.57885,-0.17344 -3.71805,-0.98036c-1.1392,-0.80692 -2.09169,-1.70737 -2.85746,-2.70137c-0.76578,-0.994 -1.35008,-1.93163 -1.7529,-2.81289c-0.40282,-0.88126 -0.53645,-1.35288 -0.40087,-1.41485l-16.22408,6.13753c0.5732,2.68831 1.57269,5.108 2.99849,7.25907c1.4258,2.15107 3.17912,3.99672 5.25997,5.53694c2.08085,1.54023 4.42318,2.75605 7.02699,3.64746c2.60381,0.89141 5.4048,1.38947 8.40297,1.49417c3.86431,0.13494 7.34457,-0.1938 10.44078,-0.98622c3.09621,-0.79243 5.75432,-1.93369 7.97435,-3.42379c2.22002,-1.4901 3.98297,-3.26298 5.28884,-5.31866c1.30587,-2.05568 2.06731,-4.28046 2.28432,-6.67434z" fill="#00bb31" stroke="none" stroke-width="1"/><path d="M687.14598,549.87005l36,-36h33.5" fill="none" stroke="#00bb31" stroke-width="6"/><path d="M659.31727,558.02865l27.82871,-8.1586v-19l36,-36h67l-33.5,55h-33.5" fill="none" stroke="#00bb31" stroke-width="6"/><path d="M750.64598,513.87005c0,-3.31371 2.68629,-6 6,-6c3.31371,0 6,2.68629 6,6c0,3.31371 -2.68629,6 -6,6c-3.31371,0 -6,-2.68629 -6,-6z" fill="#00bb31" stroke="none" stroke-width="1"/><path d="M717.14598,549.87005c0,-3.31371 2.68629,-6 6,-6c3.31371,0 6,2.68629 6,6c0,3.31371 -2.68629,6 -6,6c-3.31371,0 -6,-2.68629 -6,-6z" fill="#00bb31" stroke="none" stroke-width="1"/><path d="M662.06812,567.41171l-6.12267,7.79051l-13.80034,0.53584l-6.32593,7.25396l-3.63184,10.21062l-4.62365,0.2245l-0.89708,1.31921l-4.54125,10.21651l-2.83399,11.66055l2.26074,11.86967l-5.77618,6.82904l1.88933,-7.7737l-4.20417,-12.342l0.49022,-6.67863l-0.13223,0.3329l-12.25637,-2.2239l-5.71805,9.40582l-9.62957,10.40114l8.50424,-14.23958l5.15539,-11.32504l11.69371,0.30468l5.41795,-16.9758l11.82499,-2.5207l3.06917,-12.12984l5.76327,-9.17318l13.23768,-2.45506l5.68493,-9.28364l30.57956,1.22446" fill="#00bb31" stroke="none" stroke-width="1"/></g></svg>