<svg version="1.1" xmlns="http://www.w3.org/2000/svg" xmlns:xlink="http://www.w3.org/1999/xlink" width="440.25797" height="422.98985" viewBox="698.54356,398.15356,440.25797,422.98985"><g fill="none" fill-rule="nonzero" stroke="none" stroke-width="none" stroke-linecap="butt" stroke-linejoin="miter" stroke-miterlimit="10" stroke-dasharray="" stroke-dashoffset="0" font-family="none" font-weight="none" font-size="none" text-anchor="none" style="mix-blend-mode: normal"><path d="M1138.80153,770.17998l-71.01426,0.04376l-3.52717,-8.68432l-0.58697,-15.49186l0.22381,-8.30225l0.20792,-11.57171l11.94971,-10.67471l-1.78578,-14.36389l4.61695,-14.77948l9.6766,-9.04415l3.51957,-10.79698l6.50842,-10.42385l3.9925,-7.28231l0.37428,-0.68086z" fill="#d0d0ce" stroke="none" stroke-width="1"/><path d="M812.65315,600.92032l6.82023,-23.36891" fill="none" stroke="none" stroke-width="1"/><path d="" fill="none" stroke="#00bb31" stroke-width="6" opacity="0"/><path d="M997.6933,770.13892l-33.60471,-97.96415l-72.49996,0.07747l-32.89526,98.03521l-95.49995,0.10205l49.45971,-169.46919l2.3382,0.10946l9.35551,-5.27714l10.70587,-1.51197l11.16662,-9.11379l7.73904,-6.82214l10.56292,-7.83491l11.2621,-0.84667l0.05313,-0.24392l1.61081,-0.15526l10.90051,-6.89361l10.43975,0.70821l10.22533,-8.7762l12.05622,2.25321l11.85585,-5.97098l-10.7352,2.13117l-11.4959,-4.17311l-9.665,6.85629l-9.87943,-2.62812l-10.34018,4.97371l-1.95084,-0.10634l5.91203,-5.95371l7.78635,-10.45814l6.8079,-5.16261l3.42573,-7.29825l1.86756,-14.1955l11.48016,-6.94305l-1.64753,-10.5017l11.03561,-2.49307l0.04356,-9.43388l3.78092,-15.35268l6.94081,-10.99205l-10.32298,8.85641l-5.472,14.28486l-1.73464,8.36606l-12.72669,1.42525l-0.04356,9.43388l-11.48016,6.94305l-1.86756,14.1955l-3.42573,7.29825l-6.8079,5.16261l-7.78635,10.45814l-6.49626,6.54206l-1.35936,6.24147l-8.32738,4.92437l-7.17871,4.90223l-10.60629,7.19388l-10.14554,-0.40794l-8.79518,3.35724l-2.24188,-0.43952l52.32247,-179.27816l111.99994,-0.11969l73.49784,249.84693l-0.37397,0.68103l-3.9892,7.28411l-6.5037,10.42679l-3.51468,10.79857l-9.67251,9.04853l-4.61027,14.78157l1.79227,14.36308l-11.94488,10.68012l-0.20269,11.57181l-0.22006,8.30235l0.59398,15.4916l3.53109,8.68272z" fill="#d0d0ce" stroke="none" stroke-width="1"/><path d="M954.72164,777.04263l5.66503,19.92379l19.07382,0.99962l-17.87633,-75.43896l-22.3693,-1.17233l-25.66392,73.15711l19.07382,0.99962l7.61674,-19.22772zM907.447,809.71324l5.47434,-104.45665l218.10069,11.43017l-5.47434,104.45665zM1045.51941,764.17698c0.27564,-5.25945 -0.19937,-10.20776 -1.42503,-14.84492c-1.22566,-4.63717 -3.21679,-8.68025 -5.97339,-12.12925c-2.7566,-3.449 -6.28217,-6.23733 -10.5767,-8.36501c-4.29453,-2.12767 -9.33782,-3.34329 -15.12987,-3.64683l-14.97944,-0.78504l-3.8938,74.29804l17.17643,0.90018c6.05835,0.3175 11.23699,-0.41247 15.5359,-2.18991c4.29892,-1.77745 7.83556,-4.29581 10.60994,-7.55507c2.77438,-3.25927 4.84521,-7.10616 6.21251,-11.54068c1.36729,-4.43452 2.18178,-9.14835 2.44346,-14.1415zM1093.53114,784.31733l5.66503,19.92379l19.07382,0.99962l-17.87633,-75.43896l-22.3693,-1.17233l-25.66392,73.15711l19.07382,0.99962l7.61674,-19.22772z" fill="#00bb31" stroke="none" stroke-width="1"/><path d="M791.1045,581.95163l-22,-22h-32" fill="none" stroke="#00bb31" stroke-width="6"/><path d="M816.06327,589.23586l-24.95876,-7.28423v-15l-22,-22h-64l32,37h32" fill="none" stroke="#00bb31" stroke-width="6"/><path d="M731.1045,559.95163c0,-3.31371 2.68629,-6 6,-6c3.31371,0 6,2.68629 6,6c0,3.31371 -2.68629,6 -6,6c-3.31371,0 -6,-2.68629 -6,-6z" fill="#00bb31" stroke="none" stroke-width="1"/><path d="M763.1045,581.95163c0,-3.31371 2.68629,-6 6,-6c3.31371,0 6,2.68629 6,6c0,3.31371 -2.68629,6 -6,6c-3.31371,0 -6,-2.68629 -6,-6z" fill="#00bb31" stroke="none" stroke-width="1"/><path d="M819.47338,577.55141l2.24188,0.43952l8.79518,-3.35724l10.14554,0.40794l10.60629,-7.19388l7.17871,-4.90223l8.32738,-4.92437l1.35936,-6.24147l6.49626,-6.54206l7.78635,-10.45814l6.8079,-5.16261l3.42573,-7.29825l1.86756,-14.1955l11.48016,-6.94305l0.04356,-9.43388l12.72669,-1.42525l1.73464,-8.36606l5.472,-14.28486l10.32298,-8.85641l-6.94081,10.99205l-3.78092,15.35268l-0.04356,9.43388l-11.03561,2.49307l1.64753,10.5017l-11.48016,6.94305l-1.86756,14.1955l-3.42573,7.29825l-6.8079,5.16261l-7.78635,10.45814l-5.91203,5.95371l1.95084,0.10634l10.34018,-4.97371l9.87943,2.62812l9.665,-6.85629l11.4959,4.17311l10.7352,-2.13117l-11.85585,5.97098l-12.05622,-2.25321l-10.22533,8.7762l-10.43975,-0.70821l-10.90051,6.89361l-1.61081,0.15526l-0.05313,0.24392l-11.2621,0.84667l-10.56292,7.83491l-7.73904,6.82214l-11.16662,9.11379l-10.70587,1.51197l-9.35551,5.27714l-2.3382,-0.10946l-21.54865,-18.96869" fill="#00bb31" stroke="none" stroke-width="1"/></g></svg>