<svg version="1.1" xmlns="http://www.w3.org/2000/svg" xmlns:xlink="http://www.w3.org/1999/xlink" width="285.66717" height="438.49637" viewBox="382.98596,381.25394,285.66717,438.49637"><g fill="none" fill-rule="nonzero" stroke="none" stroke-width="none" stroke-linecap="butt" stroke-linejoin="miter" stroke-miterlimit="10" stroke-dasharray="" stroke-dashoffset="0" font-family="none" font-weight="none" font-size="none" text-anchor="none" style="mix-blend-mode: normal"><path d="M480.76113,588.46617l5.30151,11.60488l1.3181,14.72165l-0.81467,13.75972l-4.2696,15.269l-4.46761,10.71113l-12.8029,10.45161l-5.30102,7.26954l-3.13173,12.44449l-11.10447,3.12424l-4.80014,14.02876l-14.20954,-2.17477l-7.4771,4.29309l-12.64165,6.51503l-15.56775,-3.64358l-7.80659,-2.29307l100.29416,-126.92239z" fill="#d0d0ce" stroke="none" stroke-width="1"/><path d="M627.46471,568.77779l-18.6991,9.55522" fill="none" stroke="none" stroke-width="1"/><path d="" fill="none" stroke="#00bb31" stroke-width="6" opacity="0"/><path d="M594.32596,579.36304c14.75125,2.72041 26.64867,8.04985 35.69225,15.98831c9.04358,7.93846 15.91513,17.08639 20.61463,27.44379c4.69951,10.3574 7.5269,21.21693 8.48219,32.5786c0.95528,11.36167 0.58657,21.63178 -1.10613,30.81033c-2.4786,13.44003 -6.88507,25.84661 -13.21942,37.21975c-6.33435,11.37314 -14.37861,20.99038 -24.13277,28.85172c-9.75416,7.86135 -21.19439,13.37802 -34.32068,16.55003c-13.12629,3.17201 -27.72067,3.2769 -43.78314,0.31468l-119.48512,-22.03532l8.2482,-44.72534l7.97313,-1.62178l15.46554,-4.05558l8.13044,-11.66845l4.60337,-7.29018l13.57828,-4.71921l-2.31378,-14.64561l8.35643,-7.95237l-3.04821,-12.46521l1.28839,-8.90433l6.43297,-15.22391l-1.05704,-11.55727l-3.36251,-15.49404l-5.71134,-12.54489l-8.0464,-12.39838l-10.11105,-7.78112l-2.84024,-10.76096l29.87999,-162.02236l85.06554,15.6877c18.02931,3.32495 33.3408,8.52136 45.93447,15.58923c12.59368,7.06787 22.42655,15.32137 29.4986,24.7605c7.07206,9.43913 11.77157,19.79653 14.09853,31.0722c2.32696,11.27567 2.37205,22.97791 0.13526,35.10672c-2.35769,12.78442 -6.22477,24.10413 -11.60124,33.95915c-5.37647,9.85502 -11.46432,18.05354 -18.26354,24.59559c-2.60576,2.50719 -5.25137,4.75812 -7.93685,6.75277l-0.75594,-0.56679l-6.12064,-6.45448l-9.84266,-0.52602l-6.65236,-5.60756l-13.13166,0.95131l-6.53454,-11.43732l-6.83309,-11.90913l-7.64311,3.0851l-5.82041,-4.41926l-11.31999,-3.81502l-9.72484,-6.35579l-12.69343,0.97613l8.93177,0.38397l7.84401,7.03584l9.43916,4.49507l4.78017,4.74836l-6.19975,1.79983l-11.04519,-0.06091l-15.20079,-1.7135l-11.61636,5.00602l-8.45714,6.74364l-8.79731,2.75813l9.13748,1.22738l8.62723,-4.75089l11.78644,-3.01326l15.37087,3.70625l11.21528,2.05367l9.79369,-2.84318l5.56117,-2.24473l1.57915,1.18659l4.65371,12.11737l11.25082,-0.27126l4.77153,6.28761l7.96183,1.20608l4.23981,7.13453l2.746,2.64144c-5.21592,1.50007 -10.02914,1.84341 -14.43966,1.03003z" fill="#d0d0ce" stroke="none" stroke-width="1"/><path d="M455.37645,764.00048c1.19927,-0.04188 2.45004,-0.51915 3.75232,-1.43183c1.30227,-0.91267 2.47632,-2.1544 3.52214,-3.72519c1.04582,-1.57079 1.88129,-3.43441 2.50641,-5.59088c0.62512,-2.15646 0.89231,-4.5339 0.80157,-7.13232c-0.08609,-2.46516 -0.59942,-4.74864 -1.54001,-6.85043c-0.94059,-2.10179 -2.30494,-3.92195 -4.09306,-5.46048c-1.78812,-1.53853 -4.0643,-2.72649 -6.82854,-3.56386c-2.76424,-0.83737 -5.97858,-1.19208 -9.64301,-1.06411l-17.28946,0.60376l2.59652,74.35468l24.2852,-0.84806c3.26468,-0.11401 6.1104,-0.76372 8.53718,-1.94913c2.42677,-1.18542 4.42318,-2.75605 5.98921,-4.71189c1.56603,-1.95585 2.72241,-4.18089 3.46915,-6.67514c0.74674,-2.49425 1.07241,-5.1072 0.97702,-7.83887c-0.06515,-1.86553 -0.43593,-3.88715 -1.11234,-6.06487c-0.67641,-2.17772 -1.6968,-4.17666 -3.06115,-5.99682c-1.36435,-1.82016 -3.10076,-3.31047 -5.20921,-4.47092c-2.10845,-1.16046 -4.66176,-1.68834 -7.65993,-1.58364zM423.40262,819.75031l-3.65049,-104.53628l245.25051,-8.56434l3.65049,104.53628zM536.65104,753.25749c-0.18528,-3.3956 -0.9334,-6.67149 -2.24435,-9.82766c-1.31095,-3.15617 -3.2099,-5.95827 -5.69685,-8.4063c-2.83171,-2.76953 -6.02326,-4.85942 -9.57464,-6.26967c-3.55138,-1.41025 -7.29254,-2.04674 -11.22348,-1.90947l-0.09994,0.00349c-3.93094,0.13727 -7.60193,1.0326 -11.01297,2.68598c-3.41104,1.65338 -6.46569,3.9614 -9.16394,6.92403c-2.2435,2.61322 -3.94061,5.59093 -5.09134,8.93313c-1.15073,3.3422 -1.67025,6.61232 -1.55857,9.81037l0.60725,17.3894c0.20622,3.99524 0.92066,7.73925 2.1433,11.23204c1.22264,3.49279 3.18203,6.59297 5.87816,9.30052c2.89834,2.7672 6.1232,4.85593 9.67458,6.26618c3.55138,1.41025 7.25923,2.0479 11.12354,1.91296l0.09994,-0.00349c3.93094,-0.13727 7.61858,-1.03318 11.06294,-2.68773c3.44436,-1.65455 6.48118,-3.99529 9.11048,-7.02223c2.56732,-2.89136 4.33609,-6.20511 5.30629,-9.94124c0.9702,-3.73614 1.39248,-7.40311 1.26685,-11.00091zM594.7569,798.25704l-16.12732,-29.15493c0.86614,-0.03025 2.0497,-0.52185 3.55069,-1.47482c1.50099,-0.95296 2.9702,-2.33842 4.40763,-4.15636c1.43743,-1.81794 2.66044,-4.04531 3.66903,-6.68212c1.00859,-2.63681 1.45472,-5.62086 1.33839,-8.95216c-0.11168,-3.19805 -0.58457,-6.2334 -1.41866,-9.10604c-0.8341,-2.87264 -2.13843,-5.36197 -3.91301,-7.46799c-1.77458,-2.10602 -4.10036,-3.75919 -6.97734,-4.95952c-2.87698,-1.20033 -6.4475,-1.72604 -10.71157,-1.57713l-22.68617,0.79222l2.59652,74.35468l16.78977,-0.58631l-0.84457,-24.18526l0.19988,-0.00698l10.83848,23.83626zM657.22897,756.2512l-23.98538,0.83759l0.50255,14.39123l7.89519,-0.27571l0.12913,3.69775c-0.68635,1.35811 -1.73064,2.49525 -3.13285,3.41141c-1.40221,0.91616 -3.27044,1.38165 -5.60468,1.39645c-1.66565,0.05817 -3.20968,-0.22145 -4.6321,-0.83885c-1.42241,-0.6174 -2.66917,-1.45774 -3.74026,-2.521c-1.07109,-1.06327 -1.9338,-2.36729 -2.58811,-3.91206c-0.65431,-1.54477 -1.01288,-3.21661 -1.07569,-5.01551l-0.50604,-14.49117c-0.12796,-3.66443 0.75182,-6.64695 2.63934,-8.94756c1.88753,-2.30061 4.49694,-3.50908 7.82824,-3.62541c1.73228,-0.06049 3.17463,0.17265 4.32705,0.69941c1.15242,0.52677 2.12569,1.17653 2.91981,1.94929c0.79412,0.77276 1.424,1.61796 1.88964,2.5356c0.46564,0.91764 0.87782,1.73709 1.23655,2.45834l13.47401,-9.57607c-0.70116,-0.97612 -1.51622,-2.34852 -2.44518,-4.11717c-0.92896,-1.76866 -2.27433,-3.52277 -4.03611,-5.26235c-1.76178,-1.73957 -4.08233,-3.24284 -6.96163,-4.50979c-2.8793,-1.26695 -6.58773,-1.92126 -11.12528,-1.96293l-0.09994,0.00349c-4.53057,0.15821 -8.50022,1.09732 -11.90893,2.81733c-3.40872,1.72001 -6.23192,3.96991 -8.4696,6.7497c-2.23768,2.77979 -3.89334,5.98952 -4.96697,9.62921c-1.07363,3.63969 -1.54065,7.45831 -1.40105,11.45587l0.53745,15.39062c0.28216,4.25941 1.119,8.16592 2.51053,11.71952c1.39153,3.5536 3.28197,6.58948 5.67131,9.10762c2.38934,2.51815 5.30856,4.45078 8.75768,5.79789c3.44911,1.34711 7.40564,1.94273 11.86959,1.78685l0.09994,-0.00349c2.86492,-0.10005 5.58321,-0.57854 8.15487,-1.43548c2.57166,-0.85694 4.91806,-1.95616 7.0392,-3.29767c2.12114,-1.34151 4.03484,-2.89258 5.7411,-4.6532c1.70626,-1.76062 3.16093,-3.56249 4.36401,-5.40559z" fill="#fe5000" stroke="none" stroke-width="1"/></g></svg>