<svg version="1.1" xmlns="http://www.w3.org/2000/svg" xmlns:xlink="http://www.w3.org/1999/xlink" width="377.06439" height="424.62562" viewBox="309.86119,400.53981,377.06439,424.62562"><g fill="none" fill-rule="nonzero" stroke="none" stroke-width="none" stroke-linecap="butt" stroke-linejoin="miter" stroke-miterlimit="10" stroke-dasharray="" stroke-dashoffset="0" font-family="none" font-weight="none" font-size="none" text-anchor="none" style="mix-blend-mode: normal"><path d="M335.00854,763.39586c-4.15276,-16.80374 -4.74819,-34.34693 -1.78629,-52.62957c2.9619,-18.28264 8.05376,-36.40481 15.27559,-54.36652l32.37638,-69.86251c8.0111,-16.49377 18.41217,-31.60442 31.20321,-45.33194c5.09691,-5.47008 10.47404,-10.47487 16.13139,-15.01437l7.55187,5.48756l-3.94363,10.43824l6.21574,7.42615l1.46935,15.59502l-6.59923,14.51631l-0.20998,10.07371l3.48236,9.33748l-3.78584,8.84118l-4.73677,13.58136l-0.02859,12.20176l4.06704,10.1479l-9.84925,7.07109l3.63671,13.52626l-10.27372,12.70127l-3.00877,13.91855l-0.68572,11.88658l-12.96425,10.61118l2.15764,10.51762l-2.98274,10.48682l-6.32112,7.23973l-13.99581,8.81744l-9.52304,4.83604l-9.86308,7.0907l-13.25288,4.86341l-7.73138,3.118c-0.75721,-2.35176 -1.43227,-4.72725 -2.0252,-7.12645z" fill="#d0d0ce" stroke="none" stroke-width="1"/><path d="M521.99997,688.37895c13.92857,3.52696 26.3067,2.03255 37.13439,-4.48324c10.82769,-6.51579 19.73675,-15.07097 26.72718,-25.66555l64.16503,52.71953c-4.01685,5.37261 -9.55955,12.16369 -16.6281,20.37324c-7.06855,8.20955 -16.32184,15.85592 -27.75987,22.93909c-11.43803,7.08318 -25.36069,12.44832 -41.76796,16.09541c-16.40727,3.6471 -35.76447,3.46004 -58.07159,-0.56116l-0.49207,-0.0887c-24.93149,-4.49429 -45.13479,-12.20072 -60.6099,-23.1193c-13.26561,-9.35964 -23.88267,-20.29519 -31.85118,-32.80666l6.69181,-4.9715l11.59259,-8.05626l7.74978,-9.3541l7.99087,-7.08672l11.31164,-12.06966l4.28523,-8.60273l0.23432,-10.90024l-4.74682,-9.63034l9.86006,-13.5443l-2.34198,-11.67374l-0.60818,-14.22704l6.7285,-14.88619l-6.93854,-12.16725l7.74137,-9.33163l-6.5007,-8.78985l-3.05745,-11.81253l1.14894,-14.33772l1.42742,-9.51113l-5.73011,-8.1536l-2.34389,-9.79948l2.71448,-15.71321l-5.36467,-14.71679l-7.89141,-5.61326l1.17628,-11.09619l-8.69397,-3.39983c6.53002,-8.78932 13.94593,-16.71426 22.24773,-23.77481c13.80127,-11.73776 29.98508,-20.2517 48.55142,-25.54183c18.56634,-5.29013 39.16709,-5.89502 61.80226,-1.81468l0.49207,0.0887c20.0108,3.60726 36.73056,9.50026 50.15928,17.679c13.42872,8.17874 24.51147,17.62811 33.24826,28.34811c8.73679,10.72 15.29833,22.23336 19.68462,34.54006c4.38629,12.3067 7.37839,24.36208 8.97629,36.16613l-78.53494,26.99563c-0.90384,-6.25964 -2.51621,-12.81635 -4.83712,-19.67015c-2.32091,-6.85379 -5.49819,-13.18455 -9.53185,-18.99227c-4.03366,-5.80772 -8.90081,-10.74957 -14.60147,-14.82556c-5.70065,-4.07599 -12.02503,-6.57088 -18.97313,-7.48468c-12.40318,-1.24546 -23.523,0.68172 -33.35946,5.78154l-4.61711,0.06058l-9.98884,0.92596l-9.96603,2.72762l6.87025,-0.19461l8.44095,0.34055l2.58675,0.22663c-1.24414,0.88619 -2.46501,1.82993 -3.66259,2.83122c-12.16384,10.17005 -19.87199,24.27633 -23.12443,42.31886l-12.86195,71.34998c-3.25245,18.04252 -0.90275,34.13125 7.0491,48.26617c7.95185,14.13492 20.17467,23.36642 36.66847,27.69451z" fill="#d0d0ce" stroke="none" stroke-width="1"/><path d="M524.60541,491.83148l-6.67403,4.08673" fill="none" stroke="none" stroke-width="1"/><path d="" fill="none" stroke="#00bb31" stroke-width="6" opacity="0"/><path d="M346.91514,791.4665c-3.4093,-0.08836 -6.21128,-1.32674 -8.40596,-3.71516c-2.19467,-2.38841 -3.38796,-5.41344 -3.57986,-9.07508l-0.75887,-14.48013c-0.1919,-3.66164 0.66375,-6.76067 2.56695,-9.29708c1.9032,-2.53641 4.54549,-4.02674 7.92687,-4.47099c1.39459,-0.13985 2.74005,0.05667 4.03639,0.58956c1.29633,0.53289 2.46998,1.27248 3.52095,2.21877c1.05097,0.94629 1.95911,2.03359 2.72445,3.26188c0.76533,1.2283 1.37913,2.43115 1.84138,3.60857l14.05621,-8.84777c-0.85096,-2.22518 -1.98486,-4.43553 -3.4017,-6.63106c-1.41685,-2.19552 -3.22093,-4.1371 -5.41226,-5.82473c-2.19133,-1.68763 -4.7813,-3.02057 -7.76993,-3.99883c-2.98863,-0.97826 -6.51349,-1.36098 -10.57458,-1.14814l-0.09986,0.00523c-4.5937,0.24075 -8.57702,1.30067 -11.94996,3.17977c-3.37294,1.8791 -6.13457,4.27692 -8.28488,7.19346c-2.15031,2.91654 -3.71466,6.18622 -4.69307,9.80906c-0.9784,3.62284 -1.40494,7.26682 -1.27962,10.93195l0.80597,15.37889c0.40209,3.8509 1.19578,7.53107 2.38108,11.04051c1.18529,3.50944 2.93044,6.55562 5.23545,9.13852c2.305,2.58291 5.21369,4.58342 8.72606,6.00154c3.51237,1.41812 7.79841,1.9946 12.85813,1.72943l0.09986,-0.00523c4.52712,-0.23726 8.30454,-1.08611 11.33225,-2.54657c3.02771,-1.46046 5.4931,-3.14179 7.39615,-5.044c1.90305,-1.90221 3.35498,-3.81415 4.35578,-5.73582c1.0008,-1.92168 1.76939,-3.4974 2.30576,-4.72715l-14.90405,-7.33003c-0.87651,2.38247 -2.21985,4.45562 -4.03002,6.21944c-1.81017,1.76382 -4.15186,2.62088 -7.02506,2.57119zM315.33553,825.16543l-5.47434,-104.45665l371.59005,-19.47421l5.47434,104.45665zM403.42187,788.20469l-3.01455,-57.52106l-16.77698,0.87924l3.8938,74.29804l36.6497,-1.92073l-0.87924,-16.77698zM473.87844,781.70838l7.7166,19.22249l19.07382,-0.99962l-25.66392,-73.15711l-22.3693,1.17233l-17.87633,75.43896l19.07382,-0.99962l5.56517,-19.91856zM559.98746,796.82249l-16.63368,-28.86902c0.86548,-0.04536 2.04028,-0.55754 3.52441,-1.53656c1.48413,-0.97902 2.92894,-2.3899 4.33442,-4.23265c1.40548,-1.84275 2.58944,-4.09113 3.55185,-6.74513c0.96242,-2.65401 1.3564,-5.64539 1.18195,-8.97416c-0.16748,-3.19561 -0.69326,-6.22224 -1.57737,-9.07989c-0.8841,-2.85765 -2.23169,-5.32383 -4.04275,-7.39856c-1.81106,-2.07473 -4.16534,-3.68706 -7.06283,-4.83699c-2.89749,-1.14993 -6.47664,-1.61325 -10.73746,-1.38995l-22.66889,1.18803l3.8938,74.29804l16.77698,-0.87924l-1.26653,-24.16683l0.19973,-0.01047l11.25283,23.64348zM617.60924,719.30056l-20.77149,1.08859l-11.17801,17.90956l-0.90541,-17.27629l-16.77698,0.87924l3.8938,74.29804l16.77698,-0.87924l-0.84261,-16.07794l12.82616,15.4499l20.77149,-1.08859l-29.50384,-35.60468zM676.60873,733.03158l-0.87924,-16.77698l-45.53751,2.38652l3.8938,74.29804l45.53751,-2.38652l-0.87924,-16.77698l-28.76053,1.50728l-0.62803,-11.98355l21.17095,-1.10952l-0.87924,-16.77698l-21.17095,1.10952l-0.62803,-11.98355z" fill="#00bb31" stroke="none" stroke-width="1"/><path d="M541.63454,527.13473l30,-30h34.5" fill="none" stroke="#00bb31" stroke-width="6"/><path d="M521.2684,493.87484l20.36614,33.25989v-16l30,-30h69l-34.5,46h-34.5" fill="none" stroke="#00bb31" stroke-width="6"/><path d="M600.13454,497.13473c0,-3.31371 2.68629,-6 6,-6c3.31371,0 6,2.68629 6,6c0,3.31371 -2.68629,6 -6,6c-3.31371,0 -6,-2.68629 -6,-6z" fill="#00bb31" stroke="none" stroke-width="1"/><path d="M565.63454,527.13473c0,-3.31371 2.68629,-6 6,-6c3.31371,0 6,2.68629 6,6c0,3.31371 -2.68629,6 -6,6c-3.31371,0 -6,-2.68629 -6,-6z" fill="#00bb31" stroke="none" stroke-width="1"/><path d="M541.63454,527.13473l-17.02913,-35.30326l-4.61711,0.06058l-9.98884,0.92596l-9.96603,2.72762l6.87025,-0.19461l8.44095,0.34055l2.58675,0.22663" fill="#00bb31" stroke="none" stroke-width="1"/></g></svg>