<svg version="1.1" xmlns="http://www.w3.org/2000/svg" xmlns:xlink="http://www.w3.org/1999/xlink" width="1845.41178" height="452.10112" viewBox="-374.90801,373.30993,1845.41178,452.10112"><g fill="none" fill-rule="nonzero" stroke="none" stroke-width="none" stroke-linecap="butt" stroke-linejoin="miter" stroke-miterlimit="10" stroke-dasharray="" stroke-dashoffset="0" font-family="none" font-weight="none" font-size="none" text-anchor="none" style="mix-blend-mode: normal"><path d="M-255.73617,397.58542c15.81615,-11.06995 35.08681,-18.37738 57.81199,-21.92228l0.49403,-0.07706c20.09037,-3.1339 37.81796,-3.03162 53.18276,0.30682c1.5438,0.33543 3.06941,0.69074 4.57683,1.0659l-4.3624,4.3792l-13.92739,2.39715l-9.19232,4.31119l-11.65173,7.80055l-3.69466,8.12484l-6.40915,7.87695l-10.24098,11.14525l-12.98951,1.60534l-9.30304,5.98293l-4.28585,7.95842l-10.33611,4.97524l-9.7461,4.74972l-19.59441,4.28801l-7.0733,-13.40543l-6.84377,-6.78776l-7.34649,-4.79368c8.30657,-11.36845 18.6171,-21.36222 30.9316,-29.98132z" fill="#d0d0ce" stroke="none" stroke-width="1"/><path d="M170.72888,649.08687c0.13326,12.66597 -1.41234,24.18286 -4.63678,34.55069c-3.54373,11.7046 -8.7628,22.59344 -15.65721,32.66652c-2.04494,2.98777 -4.20849,5.85214 -6.49065,8.59312l-4.31297,-1.23564l-7.16097,-13.95513l-5.3747,-7.19416l-5.96979,-8.48363l-2.26424,-8.99387l-2.20856,-10.08927l-6.10069,-13.55879l-0.23797,-10.59767l6.08944,-8.6385l4.22714,-7.53854l-4.41329,-9.08213l1.89659,-8.988l8.39535,-13.58745l-0.07352,-11.47341l1.62404,-13.15815l10.50798,-7.37078l2.52951,-11.7767l-1.20902,-12.95959l0.70316,-15.5302l9.69289,-7.41985l2.59569,-14.89445l7.14853,-6.14579l-5.49956,-16.26097l4.58605,-12.08375l3.33786,-4.36426c0.50024,1.36539 0.97681,2.74294 1.42969,4.13264c3.44186,10.29769 5.22766,21.61287 5.35741,33.94552c0.14378,13.66591 -1.97109,26.5222 -6.3446,38.56888c-4.37351,12.04668 -10.50919,22.94516 -18.40706,32.69546c8.10125,9.58197 14.464,20.26562 19.08824,32.05096c4.62424,11.78534 7.00825,24.51096 7.15202,38.17687z" fill="#d0d0ce" stroke="none" stroke-width="1"/><path d="M124.50463,742.35068c-9.10165,7.87182 -19.31929,14.23981 -30.65291,19.10396c-11.33363,4.86416 -23.48212,7.78397 -36.44547,8.75946c-15.95489,1.20059 -31.05462,-0.67165 -45.29917,-5.61672c-14.24456,-4.94507 -26.99598,-12.25886 -38.25426,-21.94137c-11.25829,-9.68251 -20.40423,-21.27892 -27.43784,-34.78923c-7.0336,-13.51031 -11.1507,-28.24291 -12.35129,-44.1978l83.76318,-6.30311c0.65032,8.64223 4.19839,15.81288 10.6442,21.51194c6.44581,5.69906 13.98984,8.22343 22.63207,7.57311c6.98027,-0.52526 12.97322,-3.06545 17.97886,-7.62057c5.00564,-4.55512 8.26803,-10.06545 9.78715,-16.531c0.82209,-2.40179 1.09557,-5.43085 0.82044,-9.08718c-0.65032,-8.64223 -4.24216,-16.39457 -10.77552,-23.257c-6.53336,-6.86244 -14.12115,-9.96849 -22.76338,-9.31817l-23.93234,1.80089l-5.40267,-71.79701l23.93234,-1.80089c8.64223,-0.65032 15.67976,-4.85692 21.11257,-12.6198c5.43281,-7.76288 7.82406,-15.96544 7.17374,-24.60767c-0.25012,-3.32394 -0.97383,-6.27796 -2.1711,-8.86207c-2.4696,-6.1654 -6.51987,-11.12547 -12.15082,-14.88019c-5.63095,-3.75472 -11.93656,-5.36945 -18.91683,-4.84419c-8.64223,0.65032 -15.72978,4.19214 -21.26264,10.62544c-5.53286,6.43331 -7.97413,13.97108 -7.32381,22.61331l-83.76318,6.30311c-1.17558,-15.6225 0.70291,-30.63912 5.63548,-45.04988c4.93257,-14.41075 12.2401,-27.24527 21.92261,-38.50356c9.68251,-11.25829 21.19582,-20.39798 34.53993,-27.41908c13.34411,-7.0211 27.99361,-11.13194 43.9485,-12.33254c12.96335,-0.97548 25.41199,0.09342 37.34591,3.20671c11.93392,3.11329 22.98948,7.88049 33.16665,14.30159c10.17718,6.4211 19.13109,14.35493 26.86172,23.80148c6.80668,8.31751 12.3734,17.37619 16.70016,27.17604l-3.04922,4.57059l-3.79657,12.35455l6.53762,15.87211l-6.73696,6.59436l-1.62896,15.03093l-9.19378,8.02998l0.30066,15.5432l2.04295,12.85454l-1.76414,11.9154l-10.01034,8.03362l-0.77139,13.23554l0.81388,11.44474l-7.50088,14.10098l-1.31253,9.09167l4.99027,8.77834l-3.73177,7.79565l-5.51919,9.01351l0.92147,10.56021l6.96309,13.13676l2.85515,9.92569l2.84,8.82898l6.50489,8.08064l5.82782,6.83226l8.04673,13.46385l4.38373,0.95469c-4.98119,6.83583 -10.6728,13.02223 -17.07482,18.5592z" fill="#d0d0ce" stroke="none" stroke-width="1"/><path d="M250.2432,398.30149l0.65272,74.41438l-11.66067,13.84357l-12.77986,1.77267l-12.73785,-0.38105l-10.26775,7.48161l-12.68775,-4.67704l-12.05575,0.10299l-11.60326,5.83744l-0.8566,-97.6578z" fill="#d0d0ce" stroke="none" stroke-width="1"/><path d="M493.24994,381.7681l71.08261,44.75782l-73.48232,116.70174l-5.616,-3.78113l-10.37128,-2.21032l-5.84584,-9.05533l-5.49451,-14.87006l-15.2805,-9.14739l-2.37953,-10.72585l5.74714,-10.91825l-10.6838,-12.21951l1.18161,-7.30935z" fill="#d0d0ce" stroke="none" stroke-width="1"/><path d="M858.0836,398.56528l2.90062,200.30683l-0.14548,0.0135l-8.61397,-10.81357l-13.42383,-4.29227l-7.34615,-13.29568l-13.51752,-9.68908l4.40421,-12.57061l-8.6385,-11.44868l0.18197,-14.94983l-1.92896,-9.81374l2.85483,-15.4993l3.84913,-7.57481l0.42676,-9.4207l5.98129,-9.90004l2.27815,-10.8883l4.8352,-12.12518l-0.21343,-9.44153l8.60257,-7.77032l1.03866,-11.02385l4.88705,-6.89803l2.80179,-12.77758z" fill="#d0d0ce" stroke="none" stroke-width="1"/><path d="M863.80951,589.70106l19.28533,-74.5458c5.00918,-19.36254 12.67228,-37.00559 22.9893,-52.92912c2.45656,-3.79152 5.03669,-7.4193 7.74039,-10.88336l3.93668,10.37249l4.26195,11.85212l-1.08285,12.22934l4.63697,10.25909l6.02733,12.60047l2.68598,9.30891l-0.18271,13.83052l-7.60648,12.72663l-2.74728,7.7009l3.41975,12.13191l-10.48429,10.34706l-4.11603,17.32091l-11.25923,9.95025l-16.18293,-2.13155l-5.77274,11.79884l-12.36682,-6.33971l-6.62857,3.41784c0.84775,-6.25316 1.9965,-12.59241 3.44625,-19.01775z" fill="#d0d0ce" stroke="none" stroke-width="1"/><path d="M1465.3258,593.59321c4.20181,17.30298 5.84636,35.4787 4.93364,54.52717l-3.58955,4.77228l-14.60681,-8.95336l-9.04691,1.42l-12.46212,-9.77853l-15.79621,-2.75223l-3.63946,-8.52081l-9.35097,-7.92914l-1.29395,-10.29359l-7.19275,-8.20004l2.73479,-15.2989l-9.0921,-13.13041l2.32244,-11.95815l-10.49625,-12.43477l3.85827,-14.91001l-2.6914,-14.86986l-2.79975,-8.84994l2.25586,-10.24818l-7.67982,-11.66695l4.41257,-14.29663l-4.26691,-8.92575l2.72769,-13.12129l-3.1244,-8.98869l0.88178,-13.04149l-0.60373,-7.24431c5.36255,2.60524 10.62207,5.56399 15.77856,8.87624c14.65017,9.47718 26.77836,21.2819 36.38458,35.41415c9.60622,14.13225 16.57712,29.41899 20.91269,45.86022z" fill="#d0d0ce" stroke="none" stroke-width="1"/><path d="M1464.92312,651.39567c-1.56502,19.2367 -7.42664,37.07984 -17.58486,53.52941c-10.34684,17.17067 -23.29119,31.31204 -38.83304,42.42414c-15.54185,11.11209 -32.93457,18.69681 -52.17816,22.75416l-0.48924,0.10315c-18.91743,3.98858 -37.72874,4.03718 -56.43395,0.1458c-18.70521,-3.89138 -36.38575,-11.40543 -53.04163,-22.54213c-15.60862,-11.01685 -27.92614,-24.60124 -36.95256,-40.75317c-9.02642,-16.15193 -15.76577,-33.97839 -20.21805,-53.47937l-17.94862,-85.12842c-3.3009,-15.6558 -3.55482,-32.20953 -0.76178,-49.66117c2.79304,-17.45165 8.5908,-33.57801 17.39328,-48.37909c10.74177,-16.91327 23.80205,-30.90876 39.18082,-41.98647c15.37877,-11.07771 32.68995,-18.64524 51.93354,-22.70259l0.48924,-0.10315c19.24359,-4.05735 38.21799,-4.14033 56.9232,-0.24895c12.91677,2.68717 25.26717,7.11821 37.05118,13.29311l0.38305,7.25932l-1.27814,13.00862l2.84949,9.07958l-3.12562,13.03223l3.99338,9.05143l-4.84548,14.15577l7.32131,11.8952l-2.5666,10.17481l2.52921,8.93102l2.23777,14.94486l-4.3101,14.78573l10.11308,12.74835l-2.68517,11.88195l8.68842,13.40094l-3.19897,15.20862l6.93994,8.41507l0.98018,10.32819l9.1054,8.20996l3.37854,8.62759l15.70516,3.23153l12.15886,10.15314l9.08593,-1.14411l14.32766,9.39361l3.73308,-4.66087c-0.01627,0.2073 -0.03284,0.4147 -0.04972,0.62219z" fill="#d0d0ce" stroke="none" stroke-width="1"/><path d="M1064.35447,758.89796l-27.00621,8.73288" fill="none" stroke="none" stroke-width="1"/><path d="" fill="none" stroke="#00bb31" stroke-width="6" opacity="0"/><path d="M256.40918,684.84255l99.48717,-1.59807l1.34912,83.98917l-183.47633,2.94719l-4.40614,-274.30306l11.5604,-5.92188l12.05468,-0.19088l12.72151,4.58442l10.21293,-7.55627l6.42062,0.14523l-8.92172,8.76628l-7.16639,12.93354l-6.02891,9.51211l-11.80989,-0.18354l11.87413,4.18303l6.06104,-7.51237l7.19851,-10.9338l11.2345,-9.00746l7.90473,-5.14577l4.54875,-3.72229l4.19151,-0.61258l0.82897,-0.99884l10.93738,-0.04859z" fill="#d0d0ce" stroke="none" stroke-width="1"/><path d="M222.33313,486.93839l30.85261,-2.77028" fill="none" stroke="none" stroke-width="1"/><path d="" fill="none" stroke="#00bb31" stroke-width="6" opacity="0"/><path d="M-243.179,687.06336c14.07728,2.87657 26.37269,0.80915 36.88624,-6.20225c10.51355,-7.0114 19.01586,-15.97094 25.50693,-26.8786l66.54319,49.68404c-3.76311,5.55328 -8.98458,12.59434 -15.66441,21.12318c-6.67983,8.52884 -15.56818,16.59651 -26.66507,24.20303c-11.09689,7.60651 -24.75547,13.61218 -40.97576,18.017c-16.22028,4.40482 -35.5653,5.11656 -58.03504,2.13523l-0.49566,-0.06576c-25.11324,-3.33208 -45.65251,-10.09233 -61.6178,-20.28076c-15.46011,-9.86603 -27.6374,-21.89782 -36.53188,-36.09535l1.49288,-3.5852l10.30822,-7.53353l5.06284,-10.61347l1.60447,-9.59382l5.37439,-10.86233l-7.19765,7.30203l-2.51611,7.81367l-5.97448,8.83332l-11.21985,5.75338l-2.12861,3.31111c-6.52314,-12.76894 -10.86624,-26.74873 -13.0293,-41.93938c-2.61095,-18.33605 -3.14063,-37.15252 -1.58904,-56.44942l10.12777,-76.33104c2.74181,-18.13021 8.17685,-35.6509 16.30512,-52.56204c8.12826,-16.91115 18.81315,-31.54961 32.05465,-43.91539c2.93163,-2.73775 5.98725,-5.32307 9.16687,-7.75595l5.69133,6.67525l4.64531,8.44583l2.99436,14.85836l20.00728,1.42718l10.69137,-1.80025l11.32107,-1.84974l6.36117,-6.42188l10.61507,-3.10841l12.91337,2.13288l12.97437,-7.79488l8.3748,-5.74338l5.84116,-6.74866l13.38185,-4.18778l10.03619,-1.53619l14.03687,1.63856l5.42259,-2.96706c11.99501,7.03741 22.14157,15.18995 30.43969,24.45762c9.22501,10.30287 16.31395,21.49921 21.26681,33.58903c4.95286,12.08981 8.50136,23.99329 10.64551,35.71044l-77.19708,30.61225c-1.19345,-6.21093 -3.10846,-12.68573 -5.74503,-19.4244c-2.63657,-6.73866 -6.10432,-12.9151 -10.40323,-18.52931c-4.29891,-5.61421 -9.39023,-10.32479 -15.27395,-14.13175c-5.88372,-3.80696 -12.3171,-6.00557 -19.30013,-6.59584c-17.02768,-0.91425 -31.38083,3.9905 -43.05945,14.71424c-11.67862,10.72375 -18.72361,25.17265 -21.13499,43.34671l-9.53589,71.87014c-2.41137,18.17406 0.68266,34.13636 9.2821,47.8869c8.59944,13.75054 21.23763,22.40469 37.91456,25.96244z" fill="#d0d0ce" stroke="none" stroke-width="1"/><path d="M-354.22826,712.70312l-5.19388,-9.17483" fill="none" stroke="none" stroke-width="1"/><path d="" fill="none" stroke="#00bb31" stroke-width="6" opacity="0"/><path d="M769.32955,579.66728l-1.99451,-182.4891l80.20868,-0.87664l-2.84715,12.76755l-4.91151,6.88063l-1.0778,11.0201l-8.6301,7.73973l0.17991,9.44223l-4.87822,12.10794l-2.3168,10.88015l-6.01641,9.87874l-0.46021,9.41912l-3.876,7.56109l-2.90985,15.48907l1.8941,9.82053l-0.23505,14.94909l8.59779,11.47928l-4.44882,12.55489l13.48303,9.73702l7.29889,13.32168l13.4085,4.3399l8.57551,10.84408l0.14552,-0.01298l1.87618,171.66192l-84.99492,0.92895l-101.99401,-181.89619l1.99998,182.98907l-88.99468,0.97267l-0.55945,-51.18731l0.31647,-0.07203l10.39859,-8.85117l10.0286,-3.86488l6.72672,-5.31319l3.79483,-11.74778l12.55522,-5.48235l13.6226,-4.79788l-13.66632,0.79811l-12.57707,3.48247l-3.81669,9.7479l-6.74858,3.31331l-10.05046,1.865l-10.42045,6.85129l-0.31705,0.01906l-3.35249,-306.73834l85.49489,-0.93442z" fill="#d0d0ce" stroke="none" stroke-width="1"/><path d="M585.85216,719.99048l-0.15358,-14.05213" fill="none" stroke="none" stroke-width="1"/><path d="" fill="none" stroke="#00bb31" stroke-width="6" opacity="0"/><path d="M444.97579,770.26301l-82.83697,-13.9297l45.77194,-272.19597l1.72455,7.2006l14.56574,7.16235l-1.09894,12.28943l6.32678,8.98209l17.62471,2.5569l10.79752,11.60697l8.88235,6.10546l10.42254,-1.95441l6.63901,1.32661l-23.63522,140.55361l-2.54908,-0.82198l-12.09967,12.58717l-13.89986,-1.33258l-13.67552,9.84551l-15.62867,2.01092l14.96535,1.9337l13.34386,-7.8732l13.5682,3.30489l11.76801,-10.61486l2.49515,1.14273z" fill="#d0d0ce" stroke="none" stroke-width="1"/><path d="M460.1598,679.96696l-1.71224,10.1823" fill="none" stroke="none" stroke-width="1"/><path d="" fill="none" stroke="#00bb31" stroke-width="6" opacity="0"/><path d="M1140.35737,603.22662l-30.10248,126.46676c-8.24522,7.28886 -17.64857,14.04507 -28.21007,20.26862c-5.68742,3.35142 -11.58421,6.33007 -17.69035,8.93596l-4.79853,-2.37437l-6.94697,-11.73028l-14.75908,-1.33938l-9.95163,-7.73378l-6.75443,-5.33005l-12.95046,-8.73727l-9.35652,-3.53308l-4.77451,-7.35267l-0.40975,-0.15525l-2.36364,-3.42306l-5.367,0.49407l-5.9177,-2.2421l-2.40219,0.26359l-6.82312,-8.18382l-9.3507,-8.53308l-10.95512,-4.73495l-8.94814,-10.73261l-19.3198,-1.26687l15.47598,2.37367l7.02622,11.28601l9.03321,5.28835l7.42879,9.08648l4.20744,6.75828l-0.51323,0.05632l-10.60559,-6.36565l-12.22753,-7.90491l-15.7233,3.57462l14.55804,0.25189l11.6449,9.81816l10.02296,8.27891l14.55804,0.25189l3.63289,1.95174l2.73756,5.5882l7.43461,4.08648l11.02855,9.29067l4.83252,5.88345l8.02972,8.28718l12.83717,1.89278l4.14612,10.13513l0.74229,4.13856l1.38481,2.09985c-7.71729,1.54135 -15.72145,2.53222 -24.01249,2.97262c-13.53431,0.7189 -27.27335,-0.58115 -41.21713,-3.90014l-0.48641,-0.11578c-21.72634,-5.17145 -40.00945,-13.29243 -54.84932,-24.36293c-14.83987,-11.0705 -26.34841,-24.26054 -34.5256,-39.57013c-8.1772,-15.30959 -13.26238,-32.45304 -15.25554,-51.43035c-1.37806,-13.12075 -1.25405,-26.70294 0.37203,-40.74655l6.56075,-3.54628l12.48794,6.09767l5.54187,-11.90903l16.22138,1.81599l11.06332,-10.16763l3.77793,-17.39778l10.28079,-10.54928l-3.65536,-12.06301l2.59679,-7.75294l7.35719,-12.87235l-0.08667,-13.83146l-2.86676,-9.25483l-6.27158,-12.4807l-4.83589,-10.16684l0.84449,-12.24811l-4.49195,-11.76688l-4.13793,-10.29386c8.43373,-11.25059 18.16503,-20.84975 29.19388,-28.79749c14.47561,-10.43158 31.07076,-17.53183 49.78545,-21.30073c18.71469,-3.76891 39.09735,-3.02904 61.14796,2.2196l0.48641,0.11578c21.81906,6.22146 38.82825,14.29619 51.02757,24.2242c12.19932,9.92801 21.39147,20.25383 27.57643,30.97746c6.18496,10.72363 10.34321,20.96485 12.47476,30.72366c2.13154,9.75881 4.23979,17.45619 6.32474,23.09216l-77.66053,28.2859c-0.77232,-3.95294 -1.67208,-8.45018 -2.69925,-13.49172c-1.02718,-5.04154 -2.94223,-9.95177 -5.74514,-14.73069c-2.80292,-4.77892 -6.63266,-9.20263 -11.48924,-13.27111c-4.85657,-4.06849 -11.50042,-7.10615 -19.93154,-9.11298c-16.21369,-3.85929 -30.39643,-1.49584 -42.54823,7.09034c-12.1518,8.58619 -20.35031,21.79681 -24.59553,39.63187l-16.78792,70.52954c-2.08402,8.75539 -2.57373,17.29064 -1.46913,25.60574c1.1046,8.31511 3.53323,15.74611 7.28591,22.293c3.75268,6.5469 8.64796,12.25217 14.68585,17.11581c6.03789,4.86364 13.11026,8.26028 21.2171,10.18993c11.27239,3.02578 20.89624,3.26064 28.87154,0.70457c7.9753,-2.55606 14.51832,-6.65231 19.62904,-12.28874l4.28381,-17.99719l-38.42644,-9.14652l16.67214,-70.04313z" fill="#d0d0ce" stroke="none" stroke-width="1"/><path d="M1031.77022,762.12264l2.1271,6.23841" fill="none" stroke="none" stroke-width="1"/><path d="" fill="none" stroke="#00bb31" stroke-width="6" opacity="0"/><path d="M929.58586,791.12479l-5.02017,-57.38081l-16.73607,1.46422l6.48439,74.11689l36.56035,-3.19862l-1.46422,-16.73607zM908.29308,825.41105l-9.11649,-104.20197l231.11717,-20.22013l9.11649,104.20197zM979.06666,803.65996l-6.48439,-74.11689l-16.73607,1.46422l6.48439,74.11689zM1024.28478,725.01969l-8.02971,34.43086l-14.08581,-32.496l-19.72466,1.72568l29.29725,72.12102l14.94292,-1.30734l17.32467,-76.19991zM1098.37159,735.4021l-1.46422,-16.73607l-45.42648,3.9743l6.48439,74.11689l45.42648,-3.9743l-1.46422,-16.73607l-28.69041,2.51009l-1.04587,-11.95434l21.11933,-1.8477l-1.46422,-16.73607l-21.11933,1.8477l-1.04587,-11.95434zM1116.34229,791.64989l13.05015,-1.14174l-1.2899,-14.74368l-13.05015,1.14174zM1127.414,767.89453l-2.51356,-51.67758l-17.03493,1.49036l6.49834,51.32895z" fill="#fe5000" stroke="none" stroke-width="1"/></g></svg>