<svg version="1.1" xmlns="http://www.w3.org/2000/svg" xmlns:xlink="http://www.w3.org/1999/xlink" width="471.16381" height="441.94713" viewBox="232.77328,389.64385,471.16381,441.94713"><g fill="none" fill-rule="nonzero" stroke="none" stroke-width="none" stroke-linecap="butt" stroke-linejoin="miter" stroke-miterlimit="10" stroke-dasharray="" stroke-dashoffset="0" font-family="none" font-weight="none" font-size="none" text-anchor="none" style="mix-blend-mode: normal"><path d="M496.89446,411.78488l29.14008,14.52688l2.03463,4.75606l-3.26576,10.40896l-3.23932,7.33783l1.75747,11.9067l-2.02159,10.81903l-3.77877,13.47741l-3.68411,9.37913l-10.85669,5.2349l2.37978,13.22947l-8.88654,11.9761l3.26699,12.68418l-5.9063,14.04126l-4.66286,12.35732l-3.35891,10.76473l-10.12494,5.46586l-0.87171,10.847l-9.04291,10.09414l-5.37335,13.59827l-8.81993,4.79198l-8.99304,8.08116l-3.51013,12.04553l-12.09674,5.13305l-13.60915,7.23361l-12.01829,1.97428l-14.54296,2.78589l-10.27423,-3.51707z" fill="#d0d0ce" stroke="none" stroke-width="1"/><path d="M698.33278,606.59908l-7.58754,30.60879" fill="none" stroke="none" stroke-width="1"/><path d="" fill="none" stroke="#00bb31" stroke-width="6" opacity="0"/><path d="M668.2903,691.15791c-11.12245,20.36301 -25.10576,37.14517 -41.94991,50.34648c-16.84415,13.20131 -36.68398,22.01218 -59.51947,26.43261c-22.83549,4.42043 -48.9363,2.83124 -78.30243,-4.76756l-83.25781,-21.54386l25.6093,-98.96901l10.78071,1.30607l13.647,-5.74615l11.34601,-4.42779l11.80964,-9.90286l10.76657,-7.53395l0.93132,-12.51194l7.11816,-9.77301l7.63208,-6.51962l2.43135,-14.41785l6.74878,-11.75245l-1.40057,-10.79146l8.76865,-7.4499l1.04947,-11.22766l1.99414,-13.05638l2.86065,-14.96189l-5.83062,-11.72883l6.20487,-13.56087l-5.07605,-12.44652l9.53241,-7.37598l1.6554,-9.93984l0.89666,-13.96838l-0.26996,-11.00297l-4.19253,-11.28189l1.64436,-7.85067l1.03225,-10.8603l-2.97823,-4.22965l41.08645,10.63156c28.07531,7.26479 51.57229,18.25134 70.49095,32.95964c18.91866,14.7083 33.41079,31.88647 43.47638,51.5345c10.06559,19.64803 15.78815,41.44321 17.16767,65.38556c1.0578,18.3586 -0.22926,37.17326 -3.86118,56.44397l-9.57441,5.83393l-11.33058,-3.74203l-13.19798,6.38283l-16.28046,11.4708l-13.20734,3.22057l-8.14959,2.57314l-13.27235,-2.86845l-10.1032,8.24169l-3.92237,5.94839l-4.09474,0.84554l-7.51152,4.46862l-7.8212,6.68314l-9.41637,1.94443l-10.03572,6.37347l-13.14628,1.97465l12.15183,1.89976l9.53849,-4.43626l8.91914,-0.00722l7.32397,-4.74594l7.0143,-2.53142l1.0313,-0.00084l-1.16812,3.23917l-10.13764,9.65548l-12.24111,8.89692l-5.96514,12.58639l-14.31014,6.72457l-3.13755,12.65527l5.89626,-9.7588l15.6895,-5.27634l7.34449,-11.13815l13.62046,-7.44869l11.51699,-8.20725l5.17214,-9.06912l3.6837,-4.09163l2.41959,-0.36725l10.48623,-4.7553l7.65237,-0.63593l12.71012,-1.28336l15.28601,-7.59639l12.70076,-4.44562l10.83335,5.67924l9.44525,-4.28324c-5.85204,19.2736 -13.33702,37.25695 -22.45494,53.95005z" fill="#d0d0ce" stroke="none" stroke-width="1"/><path d="M293.80938,750.59359c0.36738,-5.25384 -0.02119,-10.20968 -1.16573,-14.86753c-1.14454,-4.65785 -3.0648,-8.73507 -5.7608,-12.23165c-2.69599,-3.49658 -6.17236,-6.34602 -10.4291,-8.54832c-4.25674,-2.2023 -9.27805,-3.50574 -15.06392,-3.91033l-14.96346,-1.04635l-5.18988,74.21877l17.1581,1.19981c6.05189,0.42319 11.24247,-0.21629 15.57176,-1.91844c4.32928,-1.70215 7.90934,-4.1584 10.74018,-7.36875c2.83084,-3.21035 4.9685,-7.02052 6.41297,-11.4305c1.44448,-4.40998 2.34111,-9.10888 2.68989,-14.0967zM232.77328,799.15422l7.29653,-104.3452l463.86728,32.43676l-7.29653,104.3452zM321.7399,789.83752l5.18988,-74.21877l-16.75908,-1.17191l-5.18988,74.21877zM386.08533,719.75532l-17.05835,-1.19284l-3.50875,50.17747c-0.12091,1.72911 -0.78967,3.1693 -2.00628,4.32057c-1.21661,1.15127 -2.68946,1.66645 -4.41857,1.54554c-1.72911,-0.12091 -3.09931,-0.8349 -4.1106,-2.14196c-1.01129,-1.30706 -1.45648,-2.82515 -1.33556,-4.55426l0.44644,-6.38441l-17.05835,-1.19284l-0.5162,7.38197c-0.26973,3.85725 0.0928,7.27419 1.08759,10.25084c0.99478,2.97664 2.47335,5.4859 4.4357,7.52776c1.96235,2.04186 4.28977,3.64144 6.98226,4.79875c2.6925,1.1573 5.63485,1.84757 8.82705,2.07079c3.1257,0.21857 6.11769,-0.04002 8.97598,-0.77576c2.85829,-0.73574 5.40114,-1.97805 7.62856,-3.72694c2.22742,-1.74888 4.05512,-3.99352 5.48309,-6.73392c1.42797,-2.7404 2.2745,-6.00597 2.53957,-9.79671zM448.63259,724.12905l-20.74933,-1.45093l-13.27731,16.4138l1.20679,-17.25786l-16.75908,-1.17191l-5.18988,74.21877l16.75908,1.17191l1.12308,-16.06078l10.84769,16.89786l20.74933,1.45093l-24.9448,-38.9349zM501.80782,783.68343c0.26507,-3.79074 -0.17093,-7.11258 -1.30803,-9.96552c-1.13709,-2.85294 -2.72623,-5.45346 -4.7674,-7.80156c-2.04118,-2.34811 -4.41453,-4.48553 -7.12005,-6.41229c-2.70552,-1.92675 -5.52742,-3.86165 -8.46571,-5.80468c-2.08303,-1.74957 -3.60624,-3.14255 -4.56962,-4.17894c-0.96338,-1.03639 -1.4009,-2.18638 -1.31254,-3.44996c0.11626,-1.66261 0.75212,-2.8712 1.90757,-3.62577c1.15545,-0.75457 2.39822,-1.08535 3.7283,-0.99234c1.26358,0.08836 2.35893,0.43227 3.28603,1.03174c0.92711,0.59947 1.71307,1.30601 2.35789,2.11964c0.64481,0.81363 1.13534,1.6833 1.47159,2.60901c0.33624,0.92571 0.57855,1.76131 0.7269,2.50681l15.06878,-4.76045c-0.19301,-2.01838 -0.75063,-4.07896 -1.67286,-6.18175c-0.92223,-2.10279 -2.27523,-4.0185 -4.05899,-5.74714c-1.78376,-1.72864 -4.01956,-3.20486 -6.70741,-4.42867c-2.68785,-1.22381 -5.86064,-1.9636 -9.51837,-2.21937c-3.06385,-0.14742 -6.05584,0.11117 -8.97598,0.77576c-2.92014,0.66459 -5.53566,1.75145 -7.84656,3.26059c-2.3109,1.50914 -4.21743,3.44754 -5.71958,5.81519c-1.50215,2.36765 -2.36716,5.18083 -2.59503,8.43954c-0.24647,3.52473 0.16407,6.49393 1.23164,8.90761c1.06756,2.41368 2.61693,4.62715 4.64811,6.64041c2.03118,2.01326 4.43394,3.96896 7.20829,5.86712c2.77435,1.89815 5.77833,4.09639 9.01193,6.5947c1.45519,1.17103 2.56472,2.26776 3.3286,3.29021c0.76387,1.02244 1.13953,2.10127 1.12698,3.2365c-0.06371,1.86677 -0.67445,3.19407 -1.83223,3.98189c-1.15778,0.78782 -2.3066,1.20871 -3.44647,1.26266c-1.34404,0.1065 -2.57123,-0.26333 -3.68157,-1.10952c-1.11034,-0.84618 -2.03083,-1.77933 -2.76145,-2.79945c-0.73062,-1.02012 -1.28184,-1.97757 -1.65366,-2.87235c-0.37182,-0.89478 -0.4889,-1.37078 -0.35124,-1.42798l-16.42839,5.56758c0.47903,2.70668 1.39347,5.15977 2.74332,7.35929c1.34986,2.19952 3.0377,4.10523 5.06353,5.71714c2.02583,1.61191 4.3243,2.90873 6.89541,3.89048c2.57111,0.98174 5.35302,1.57725 8.34571,1.78652c3.85725,0.26973 7.34686,0.06264 10.46884,-0.62124c3.12198,-0.68389 5.8183,-1.73169 8.08898,-3.1434c2.27067,-1.41171 4.09442,-3.12199 5.47124,-5.13084c1.37682,-2.00885 2.21544,-4.2057 2.51586,-6.59056zM563.35246,732.15104l-50.47674,-3.52968l-1.17191,16.75908l16.85883,1.17888l-4.01797,57.45969l16.75908,1.17191l4.01797,-57.45969l16.85883,1.17888zM615.62227,810.38778l-12.99145,-30.68098c0.86456,0.06046 2.09302,-0.30474 3.6854,-1.09559c1.59238,-0.79085 3.19836,-2.01514 4.81794,-3.67286c1.61958,-1.65773 3.06872,-3.74506 4.3474,-6.26199c1.27869,-2.51693 2.03429,-5.43801 2.26681,-8.76322c0.22322,-3.1922 0.0702,-6.26035 -0.45905,-9.20444c-0.52925,-2.94409 -1.56624,-5.55612 -3.11096,-7.8361c-1.54472,-2.27997 -3.68495,-4.1672 -6.4207,-5.66168c-2.73575,-1.49448 -6.23176,-2.39053 -10.48803,-2.68816l-22.6447,-1.58347l-5.18988,74.21877l16.75908,1.17191l1.68811,-24.14105l0.19951,0.01395l8.28753,24.83861zM665.27159,794.21174l5.31645,20.01962l19.05347,1.33235l-16.55701,-75.73946l-22.34543,-1.56255l-26.93678,72.69807l19.05347,1.33235l7.95115,-19.09186z" fill="#fe5000" stroke="none" stroke-width="1"/></g></svg>