<svg version="1.1" xmlns="http://www.w3.org/2000/svg" xmlns:xlink="http://www.w3.org/1999/xlink" width="339.72776" height="424.78183" viewBox="422.32228,397.91857,339.72776,424.78183"><g fill="none" fill-rule="nonzero" stroke="none" stroke-width="none" stroke-linecap="butt" stroke-linejoin="miter" stroke-miterlimit="10" stroke-dasharray="" stroke-dashoffset="0" font-family="none" font-weight="none" font-size="none" text-anchor="none" style="mix-blend-mode: normal"><path d="M650.37312,730.40811l25.40933,0.06843l-4.79753,9.74026l-9.57112,11.36718l1.01592,12.59763l-8.93273,6.02777l-3.2294,-0.61401z" fill="#d0d0ce" stroke="none" stroke-width="1"/><path d="M759.89972,769.97613l-83.99925,0.35485l-0.38269,-90.59113l1.1736,0.1613l11.12672,-0.40494l14.09791,-0.23597l11.03842,-0.0628l9.00944,-3.01496l9.99571,-0.00894l7.98826,1.98193l10.95792,-1.06177l8.59753,-0.96071z" fill="#d0d0ce" stroke="none" stroke-width="1"/><path d="M507.01051,482.11914l-0.14343,59.99983l66.8124,0.15972l-0.61303,3.22958l6.03048,8.93091l7.02084,-0.56833l0.70888,4.82114l-4.33734,12.76675l0.51559,9.86002l1.28074,10.50388l1.77985,-7.92846l1.01471,-8.57231l5.86764,-11.47904l0.04475,-8.81559l0.0387,-0.48272l10.03305,8.4426l9.74171,4.79459l-0.14006,58.59041l-105.9997,-0.2534l-0.14343,59.99983l143.99959,0.34424l-0.20081,83.99976l-227.99935,-0.54504l0.88928,-371.99894l134.15564,0.32071l0.90382,8.6037l0.98926,10.9647l-2.03473,7.97497l-0.05718,9.99555l2.95529,9.02919l-0.01022,11.0386l0.1427,14.09916l0.33133,11.12915l-0.16906,1.17251z" fill="#d0d0ce" stroke="none" stroke-width="1"/><path d="M586.11777,553.87085l6.91351,0.67368" fill="none" stroke="none" stroke-width="1"/><path d="" fill="none" stroke="#00bb31" stroke-width="6" opacity="0"/><path d="M532.63386,746.97912l-0.87924,-16.77698l-45.53751,2.38652l3.8938,74.29804l45.53751,-2.38652l-0.87924,-16.77698l-28.76053,1.50728l-0.62803,-11.98355l21.17095,-1.10952l-0.87924,-16.77698l-21.17095,1.10952l-0.62803,-11.98355zM484.53089,822.70041l-5.47434,-104.45665l277.51915,-14.54416l5.47434,104.45665zM564.02902,786.18976l-3.01455,-57.52106l-16.77698,0.87924l3.8938,74.29804l36.6497,-1.92073l-0.87924,-16.77698zM613.0422,800.44414l-3.8938,-74.29804l-16.77698,0.87924l3.8938,74.29804zM670.3644,722.93791l-47.4349,2.48596l0.87924,16.77698l26.86313,-1.40784l-24.72783,42.15192l0.87924,16.77698l47.4349,-2.48596l-0.87924,-16.77698l-25.96437,1.36073l23.82906,-42.10482zM726.3595,774.87854l7.7166,19.22249l19.07382,-0.99962l-25.66392,-73.15711l-22.3693,1.17233l-17.87633,75.43896l19.07382,-0.99962l5.56517,-19.91856z" fill="#00bb31" stroke="none" stroke-width="1"/><path d="M593.35691,515.39154l32,-32h31" fill="none" stroke="#00bb31" stroke-width="6"/><path d="M589.57452,554.20769l3.78239,-38.81615v-18l32,-32h62l-31,50h-31" fill="none" stroke="#00bb31" stroke-width="6"/><path d="M650.35691,483.39154c0,-3.31371 2.68629,-6 6,-6c3.31371,0 6,2.68629 6,6c0,3.31371 -2.68629,6 -6,6c-3.31371,0 -6,-2.68629 -6,-6z" fill="#00bb31" stroke="none" stroke-width="1"/><path d="M619.35691,515.39154c0,-3.31371 2.68629,-6 6,-6c3.31371,0 6,2.68629 6,6c0,3.31371 -2.68629,6 -6,6c-3.31371,0 -6,-2.68629 -6,-6z" fill="#00bb31" stroke="none" stroke-width="1"/><path d="M593.35691,515.39154l-7.23914,38.47931l0.70888,4.82114l-4.33734,12.76675l0.51559,9.86002l1.28074,10.50388l1.77985,-7.92846l1.01471,-8.57231l5.86764,-11.47904l0.04475,-8.81559l0.0387,-0.48272" fill="#00bb31" stroke="none" stroke-width="1"/></g></svg>