<svg version="1.1" xmlns="http://www.w3.org/2000/svg" xmlns:xlink="http://www.w3.org/1999/xlink" width="380.55498" height="439.64506" viewBox="715.99476,382.27774,380.55498,439.64506"><g fill="none" fill-rule="nonzero" stroke="none" stroke-width="none" stroke-linecap="butt" stroke-linejoin="miter" stroke-miterlimit="10" stroke-dasharray="" stroke-dashoffset="0" font-family="none" font-weight="none" font-size="none" text-anchor="none" style="mix-blend-mode: normal"><path d="M1088.35083,382.27774l6.48633,83.74919l-143.57005,11.11942l4.63309,59.82085l105.68351,-8.18513l6.48633,83.74919l-105.68351,8.18513l11.11942,143.57005l-83.74919,6.48633l-16.34115,-210.99108l8.82077,-2.12948l7.76491,-2.68296l16.91087,-1.84485l1.76951,-12.38985l10.06051,-10.30607l13.42533,-10.39413l-1.98611,-12.48118l8.70744,-10.27019l2.96305,-14.63066l-4.06357,-12.86021l-1.40222,-10.10572l5.77176,-9.28555l-5.49284,-9.73685l-8.77428,-10.98987l1.15056,-11.7822l-12.80393,-3.35209l-0.00237,-13.86995l-6.46938,-4.56082z" fill="#d0d0ce" stroke="none" stroke-width="1"/><path d="M829.69943,406.04536l48.18656,-8.20423l6.85845,3.95166l1.26758,13.8119l13.05633,2.17013l-0.07099,11.83803l9.7402,10.14366l6.35814,9.1952l-4.90067,9.77334l2.31823,9.93567l5.21974,12.43592l-1.61608,14.83995l-7.73429,11.02167l3.11637,12.24797l-12.4212,11.57546l-9.07845,11.18082l-0.63193,12.49961l-16.67208,3.37978l-7.48779,3.38009l-8.58974,2.92524l-11.78184,-69.19922l5.70509,-5.79766l7.42242,-7.57276l7.34036,-10.39999l10.33172,-4.82758l7.09046,-14.21304l-7.76184,10.26979l-10.66741,2.85595l-7.67605,8.42837l-7.75811,5.60113l-5.9894,4.12782z" fill="#d0d0ce" stroke="none" stroke-width="1"/><path d="M804.42206,495.8978l40.41392,-0.94978l5.70509,-5.79766l7.42242,-7.57276l7.34036,-10.39999l10.33172,-4.82758l7.09046,-14.21304l-7.76184,10.26979l-10.66741,2.85595l-7.67605,8.42837l-7.75811,5.60113l-5.9894,4.12782" fill="#00bb31" stroke="none" stroke-width="1"/><path d="M778.42206,495.8978c0,-3.31371 2.68629,-6 6,-6c3.31371,0 6,2.68629 6,6c0,3.31371 -2.68629,6 -6,6c-3.31371,0 -6,-2.68629 -6,-6z" fill="#00bb31" stroke="none" stroke-width="1"/><path d="M747.42206,475.8978c0,-3.31371 2.68629,-6 6,-6c3.31371,0 6,2.68629 6,6c0,3.31371 -2.68629,6 -6,6c-3.31371,0 -6,-2.68629 -6,-6z" fill="#00bb31" stroke="none" stroke-width="1"/><path d="M843.8546,489.18402l-39.43254,6.71378v-17l-20,-20h-62l31,37h31" fill="none" stroke="#00bb31" stroke-width="6"/><path d="M804.42206,495.8978l-20,-20h-31" fill="none" stroke="#00bb31" stroke-width="6"/><path d="M844.83598,494.94801l-1.96275,-11.52798" fill="none" stroke="none" stroke-width="1"/><path d="" fill="none" stroke="#00bb31" stroke-width="6" opacity="0"/><path d="M776.34491,737.72392l0.58631,-16.78977l-45.57222,-1.59142l-2.59652,74.35468l16.78977,0.58631l1.00511,-28.78246l21.18709,0.73987l0.58631,-16.78977l-21.18709,-0.73987l0.41879,-11.99269zM723.22458,809.01348l3.65049,-104.53628l369.67467,12.90932l-3.65049,104.53628zM831.91104,739.66434l0.58631,-16.78977l-45.57222,-1.59142l-2.59652,74.35468l45.57222,1.59142l0.58631,-16.78977l-28.78246,-1.00511l0.41879,-11.99269l21.18709,0.73987l0.58631,-16.78977l-21.18709,-0.73987l0.41879,-11.99269zM858.18359,798.2169l2.59652,-74.35468l-16.78977,-0.58631l-2.59652,74.35468zM908.0513,725.51297l-1.27383,36.47777l-18.61405,-37.17227l-17.08958,-0.59678l-2.59652,74.35468l17.78916,0.62121l1.27732,-36.5777l18.71049,37.27569l16.98964,0.59329l2.59652,-74.35468zM952.51276,784.70071l2.01021,-57.56491l-16.78977,-0.58631l-2.59652,74.35468l36.67764,1.28081l0.58631,-16.78977zM1030.88976,746.61283l0.58631,-16.78977l-45.57222,-1.59142l-2.59652,74.35468l45.57222,1.59142l0.58631,-16.78977l-28.78246,-1.00511l0.41879,-11.99269l21.18709,0.73987l0.58631,-16.78977l-21.18709,-0.73987l0.41879,-11.99269zM1086.64433,806.19493l-14.05429,-30.20889c0.86614,0.03025 2.08111,-0.3776 3.64492,-1.22354c1.56381,-0.84594 3.12608,-2.12553 4.68683,-3.83877c1.56074,-1.71324 2.93615,-3.84988 4.12622,-6.4099c1.19007,-2.56003 1.84327,-5.50569 1.9596,-8.83699c0.11168,-3.19805 -0.14832,-6.25899 -0.78,-9.18282c-0.63168,-2.92383 -1.75919,-5.49808 -3.38254,-7.72275c-1.62335,-2.22468 -3.82814,-4.03606 -6.61438,-5.43415c-2.78624,-1.39809 -6.31139,-2.17159 -10.57546,-2.32049l-22.68617,-0.79222l-2.59652,74.35468l16.78977,0.58631l0.84457,-24.18526l0.19988,0.00698l9.14934,24.53425z" fill="#00bb31" stroke="none" stroke-width="1"/></g></svg>