<svg version="1.1" xmlns="http://www.w3.org/2000/svg" xmlns:xlink="http://www.w3.org/1999/xlink" width="653.5" height="653.5" viewBox="606,144.96875,653.5,653.5"><g fill="none" fill-rule="nonzero" stroke="none" stroke-width="none" stroke-linecap="none" stroke-linejoin="miter" stroke-miterlimit="10" stroke-dasharray="none" stroke-dashoffset="0" font-family="none" font-weight="none" font-size="none" text-anchor="none" style="mix-blend-mode: normal"><g stroke="none"><path d="M659,797.96875v-600h600v600z" fill="#000000" stroke-width="1" stroke-linecap="butt" stroke-dasharray=""/><path transform="translate(658.5,197.46875) scale(1.01,1.01)" d="M0,100v-100h100v100z" fill="none" stroke-width="3" stroke-linecap="round" stroke-dasharray="4,10"/><path transform="translate(657.5,197.46875) scale(1.01,1.01)" d="M100,100v-100h100v100z" fill="#01564d" stroke-width="3" stroke-linecap="round" stroke-dasharray="4,10"/><path transform="translate(656.5,197.46875) scale(1.01,1.01)" d="M200,100v-100h100v100z" fill="#1fa08e" stroke-width="3" stroke-linecap="round" stroke-dasharray="4,10"/><path transform="translate(655.5,197.46875) scale(1.01,1.01)" d="M300,100v-100h100v100z" fill="#1fa08e" stroke-width="3" stroke-linecap="round" stroke-dasharray="4,10"/><path transform="translate(654.5,197.46875) scale(1.01,1.01)" d="M400,100v-100h100v100z" fill="#01564d" stroke-width="3" stroke-linecap="round" stroke-dasharray="4,10"/><path transform="translate(653.5,197.46875) scale(1.01,1.01)" d="M500,100v-100h100v100z" fill="#001b18" stroke-width="3" stroke-linecap="round" stroke-dasharray="4,10"/><path transform="translate(658.5,196.46875) scale(1.01,1.01)" d="M0,200v-100h100v100z" fill="#01564d" stroke-width="3" stroke-linecap="round" stroke-dasharray="4,10"/><path transform="translate(657.5,196.46875) scale(1.01,1.01)" d="M100,200v-100h100v100z" fill="#02fae0" stroke-width="3" stroke-linecap="round" stroke-dasharray="4,10"/><path transform="translate(656.5,196.46875) scale(1.01,1.01)" d="M200,200v-100h100v100z" fill="#02fae0" stroke-width="3" stroke-linecap="round" stroke-dasharray="4,10"/><path transform="translate(655.5,196.46875) scale(1.01,1.01)" d="M300,200v-100h100v100z" fill="#02fae0" stroke-width="3" stroke-linecap="round" stroke-dasharray="4,10"/><path transform="translate(654.5,196.46875) scale(1.01,1.01)" d="M400,200v-100h100v100z" fill="#01564d" stroke-width="3" stroke-linecap="round" stroke-dasharray="4,10"/><path transform="translate(653.5,196.46875) scale(1.01,1.01)" d="M500,200v-100h100v100z" fill="none" stroke-width="3" stroke-linecap="round" stroke-dasharray="4,10"/><path transform="translate(658.5,195.46875) scale(1.01,1.01)" d="M0,300v-100h100v100z" fill="#1fa08e" stroke-width="3" stroke-linecap="round" stroke-dasharray="4,10"/><path transform="translate(657.5,195.46875) scale(1.01,1.01)" d="M100,300v-100h100v100z" fill="#02fae0" stroke-width="3" stroke-linecap="round" stroke-dasharray="4,10"/><path transform="translate(656.5,195.46875) scale(1.01,1.01)" d="M200,300v-100h100v100z" fill="#02fae0" stroke-width="3" stroke-linecap="round" stroke-dasharray="4,10"/><path transform="translate(655.5,195.46875) scale(1.01,1.01)" d="M300,300v-100h100v100z" fill="#01564d" stroke-width="3" stroke-linecap="round" stroke-dasharray="4,10"/><path transform="translate(654.5,195.46875) scale(1.01,1.01)" d="M400,300v-100h100v100z" fill="none" stroke-width="3" stroke-linecap="round" stroke-dasharray="4,10"/><path transform="translate(653.5,195.46875) scale(1.01,1.01)" d="M500,300v-100h100v100z" fill="none" stroke-width="3" stroke-linecap="round" stroke-dasharray="4,10"/><path transform="translate(658.5,194.46875) scale(1.01,1.01)" d="M0,400v-100h100v100z" fill="#1fa08e" stroke-width="3" stroke-linecap="round" stroke-dasharray="4,10"/><path transform="translate(657.5,194.46875) scale(1.01,1.01)" d="M100,400v-100h100v100z" fill="#02fae0" stroke-width="3" stroke-linecap="round" stroke-dasharray="4,10"/><path transform="translate(656.5,194.46875) scale(1.01,1.01)" d="M200,400v-100h100v100z" fill="#1fa08e" stroke-width="3" stroke-linecap="round" stroke-dasharray="4,10"/><path transform="translate(655.5,194.46875) scale(1.01,1.01)" d="M300,400v-100h100v100z" fill="#001b18" stroke-width="3" stroke-linecap="round" stroke-dasharray="4,10"/><path transform="translate(654.5,194.46875) scale(1.01,1.01)" d="M400,400v-100h100v100z" fill="none" stroke-width="3" stroke-linecap="round" stroke-dasharray="4,10"/><path transform="translate(653.5,194.46875) scale(1.01,1.01)" d="M500,400v-100h100v100z" fill="none" stroke-width="3" stroke-linecap="round" stroke-dasharray="4,10"/><path transform="translate(658.5,193.46875) scale(1.01,1.01)" d="M0,500v-100h100v100z" fill="#001b18" stroke-width="3" stroke-linecap="round" stroke-dasharray="4,10"/><path transform="translate(657.5,193.46875) scale(1.01,1.01)" d="M100,500v-100h100v100z" fill="#01564d" stroke-width="3" stroke-linecap="round" stroke-dasharray="4,10"/><path transform="translate(656.5,193.46875) scale(1.01,1.01)" d="M200,500v-100h100v100z" fill="#001b18" stroke-width="3" stroke-linecap="round" stroke-dasharray="4,10"/><path transform="translate(655.5,193.46875) scale(1.01,1.01)" d="M300,500v-100h100v100z" fill="none" stroke-width="3" stroke-linecap="round" stroke-dasharray="4,10"/><path transform="translate(654.5,193.46875) scale(1.01,1.01)" d="M400,500v-100h100v100z" fill="none" stroke-width="3" stroke-linecap="round" stroke-dasharray="4,10"/><path transform="translate(653.5,193.46875) scale(1.01,1.01)" d="M500,500v-100h100v100z" fill="none" stroke-width="3" stroke-linecap="round" stroke-dasharray="4,10"/><path transform="translate(658.5,192.46875) scale(1.01,1.01)" d="M0,600v-100h100v100z" fill="none" stroke-width="3" stroke-linecap="round" stroke-dasharray="4,10"/><path transform="translate(657.5,192.46875) scale(1.01,1.01)" d="M100,600v-100h100v100z" fill="none" stroke-width="3" stroke-linecap="round" stroke-dasharray="4,10"/><path transform="translate(656.5,192.46875) scale(1.01,1.01)" d="M200,600v-100h100v100z" fill="none" stroke-width="3" stroke-linecap="round" stroke-dasharray="4,10"/><path transform="translate(655.5,192.46875) scale(1.01,1.01)" d="M300,600v-100h100v100z" fill="none" stroke-width="3" stroke-linecap="round" stroke-dasharray="4,10"/><path transform="translate(654.5,192.46875) scale(1.01,1.01)" d="M400,600v-100h100v100z" fill="none" stroke-width="3" stroke-linecap="round" stroke-dasharray="4,10"/><path transform="translate(653.5,192.46875) scale(1.01,1.01)" d="M500,600v-100h100v100z" fill="none" stroke-width="3" stroke-linecap="round" stroke-dasharray="4,10"/></g><path d="M1159,397.96875v-100h100v100z" fill="none" stroke="none" stroke-width="3" stroke-linecap="round" stroke-dasharray="4,10"/><g stroke-linecap="butt" stroke-dasharray=""><path d="M609,747.96875v-600h600v600z" fill="none" stroke="#ffffff" stroke-width="6"/><g fill="#ffffff" stroke="none" stroke-width="1"><path d="M1155.05,722.96875h-63.45c-6.1,0 -11.32667,-2.17333 -15.68,-6.52c-4.34667,-4.35333 -6.52,-9.58 -6.52,-15.68v0v-63.6c0,-6.1 2.17333,-11.32333 6.52,-15.67c4.35333,-4.35333 9.58,-6.53 15.68,-6.53v0h63.45c6.1,0 11.35,2.17667 15.75,6.53c4.4,4.34667 6.6,9.57 6.6,15.67v0v10.2h-23.55v-4.05c0,-3.3 0,-4.95 0,-4.95c0,0 -1.65,0 -4.95,0v0h-51.3c-3.3,0 -4.95,0 -4.95,0c0,0 0,1.65 0,4.95v0v51.3c0,3.3 0,4.95 0,4.95c0,0 1.65,0 4.95,0v0h51.3c3.3,0 4.95,0 4.95,0c0,0 0,-1.65 0,-4.95v0v-11.25h-23.4v-23.4h46.95v40.8c0,6.1 -2.2,11.32667 -6.6,15.68c-4.4,4.34667 -9.65,6.52 -15.75,6.52z"/><path d="M975.65,722.96875h-23.25v-107.85h85.65c6.1,0 11.35,2.2 15.75,6.6c4.4,4.4 6.6,9.6 6.6,15.6v0v27.9c0,6 -2.2,11.2 -6.6,15.6c-4.4,4.4 -9.65,6.6 -15.75,6.6v0h-1.05l23.4,27.6v7.95h-24l-29.85,-35.55l-30.9,0.15zM980.6,664.01875v0h51.3c3.3,0 4.95,0 4.95,0c0,0 0,-1.65 0,-4.95v0v-15.75c0,-3.3 0,-4.95 0,-4.95c0,0 -1.65,0 -4.95,0v0h-51.3c-3.3,0 -4.95,0 -4.95,0c0,0 0,1.65 0,4.95v0v15.75c0,3.3 0,4.95 0,4.95c0,0 1.65,0 4.95,0z"/><path d="M921.2,722.96875h-63.6c-6.1,0 -11.32333,-2.17333 -15.67,-6.52c-4.35333,-4.35333 -6.53,-9.58 -6.53,-15.68v0v-85.8h23.25v79.65c0,3.3 0,4.95 0,4.95c0,0 1.65,0 4.95,0v0h51.3c3.3,0 4.95,0 4.95,0c0,0 0,-1.65 0,-4.95v0v-79.65h23.55v85.8c0,6.1 -2.2,11.32667 -6.6,15.68c-4.4,4.34667 -9.6,6.52 -15.6,6.52z"/><path d="M804.05,722.96875h-85.65v-108h81.6c6,0 11.2,2.17667 15.6,6.53c4.4,4.34667 6.6,9.57 6.6,15.67v0v20.25c0,1.3 -0.07667,2.52333 -0.23,3.67c-0.14667,1.15333 -0.42,2.23 -0.82,3.23v0c1.5,1.9 2.75,4.1 3.75,6.6c1,2.5 1.5,5 1.5,7.5v0v22.35c0,6.1 -2.2,11.32667 -6.6,15.68c-4.4,4.34667 -9.65,6.52 -15.75,6.52zM746.6,699.56875v0h51.3c3.3,0 4.95,0 4.95,0c0,0 0,-1.65 0,-4.95v0v-9.9c0,-3.3 0,-4.95 0,-4.95c0,0 -1.65,0 -4.95,0v0h-51.3c-3.3,0 -4.95,0 -4.95,0c0,0 0,1.65 0,4.95v0v9.9c0,3.3 0,4.95 0,4.95c0,0 1.65,0 4.95,0zM746.6,656.36875v0h47.1c3.3,0 4.95,0 4.95,0c0,0 0,-1.65 0,-4.95v0v-8.1c0,-3.3 0,-4.95 0,-4.95c0,0 -1.65,0 -4.95,0v0h-47.1c-3.3,0 -4.95,0 -4.95,0c0,0 0,1.65 0,4.95v0v8.1c0,3.3 0,4.95 0,4.95c0,0 1.65,0 4.95,0z"/><path d="M1086.05,605.96875h-23.25v-108h24l36.6,43.65l36.45,-43.65h24.15v108h-23.4v-72.45l-37.2,44.4l-37.35,-44.25z"/><path d="M975.65,605.96875h-23.25v-85.8c0,-6.1 2.17333,-11.32333 6.52,-15.67c4.35333,-4.35333 9.58,-6.53 15.68,-6.53v0h63.45c6.1,0 11.35,2.17667 15.75,6.53c4.4,4.34667 6.6,9.57 6.6,15.67v0v85.8h-23.55v-34.8h-61.2zM975.65,526.31875v21.45h61.2v-21.45c0,-3.3 0,-4.95 0,-4.95c0,0 -1.65,0 -4.95,0v0h-51.3c-3.3,0 -4.95,0 -4.95,0c0,0 0,1.65 0,4.95z"/><path d="M857.525,605.96875h-23.25v-108h23.25v42.3h63.75v-42.3h23.25v108h-23.25v-42.3h-63.75z"/></g></g></g></svg>