<svg version="1.1" xmlns="http://www.w3.org/2000/svg" xmlns:xlink="http://www.w3.org/1999/xlink" width="653.5" height="653.5" viewBox="606,144.96875,653.5,653.5"><g fill="none" fill-rule="nonzero" stroke="none" stroke-width="none" stroke-linecap="none" stroke-linejoin="miter" stroke-miterlimit="10" stroke-dasharray="none" stroke-dashoffset="0" font-family="none" font-weight="none" font-size="none" text-anchor="none" style="mix-blend-mode: normal"><g stroke="none"><path d="M659,797.96875v-600h600v600z" fill="#000000" stroke-width="1" stroke-linecap="butt" stroke-dasharray=""/><path transform="translate(658.5,197.46875) scale(1.01,1.01)" d="M0,100v-100h100v100z" fill="none" stroke-width="3" stroke-linecap="round" stroke-dasharray="4,10"/><path transform="translate(657.5,197.46875) scale(1.01,1.01)" d="M100,100v-100h100v100z" fill="none" stroke-width="3" stroke-linecap="round" stroke-dasharray="4,10"/><path transform="translate(656.5,197.46875) scale(1.01,1.01)" d="M200,100v-100h100v100z" fill="none" stroke-width="3" stroke-linecap="round" stroke-dasharray="4,10"/><path transform="translate(655.5,197.46875) scale(1.01,1.01)" d="M300,100v-100h100v100z" fill="none" stroke-width="3" stroke-linecap="round" stroke-dasharray="4,10"/><path transform="translate(654.5,197.46875) scale(1.01,1.01)" d="M400,100v-100h100v100z" fill="#240038" stroke-width="3" stroke-linecap="round" stroke-dasharray="4,10"/><path transform="translate(653.5,197.46875) scale(1.01,1.01)" d="M500,100v-100h100v100z" fill="#670295" stroke-width="3" stroke-linecap="round" stroke-dasharray="4,10"/><path transform="translate(658.5,196.46875) scale(1.01,1.01)" d="M0,200v-100h100v100z" fill="#240038" stroke-width="3" stroke-linecap="round" stroke-dasharray="4,10"/><path transform="translate(657.5,196.46875) scale(1.01,1.01)" d="M100,200v-100h100v100z" fill="#240038" stroke-width="3" stroke-linecap="round" stroke-dasharray="4,10"/><path transform="translate(656.5,196.46875) scale(1.01,1.01)" d="M200,200v-100h100v100z" fill="none" stroke-width="3" stroke-linecap="round" stroke-dasharray="4,10"/><path transform="translate(655.5,196.46875) scale(1.01,1.01)" d="M300,200v-100h100v100z" fill="#240038" stroke-width="3" stroke-linecap="round" stroke-dasharray="4,10"/><path transform="translate(654.5,196.46875) scale(1.01,1.01)" d="M400,200v-100h100v100z" fill="#440069" stroke-width="3" stroke-linecap="round" stroke-dasharray="4,10"/><path transform="translate(653.5,196.46875) scale(1.01,1.01)" d="M500,200v-100h100v100z" fill="#b239ff" stroke-width="3" stroke-linecap="round" stroke-dasharray="4,10"/><path transform="translate(658.5,195.46875) scale(1.01,1.01)" d="M0,300v-100h100v100z" fill="#b239ff" stroke-width="3" stroke-linecap="round" stroke-dasharray="4,10"/><path transform="translate(657.5,195.46875) scale(1.01,1.01)" d="M100,300v-100h100v100z" fill="#670295" stroke-width="3" stroke-linecap="round" stroke-dasharray="4,10"/><path transform="translate(656.5,195.46875) scale(1.01,1.01)" d="M200,300v-100h100v100z" fill="#440069" stroke-width="3" stroke-linecap="round" stroke-dasharray="4,10"/><path transform="translate(655.5,195.46875) scale(1.01,1.01)" d="M300,300v-100h100v100z" fill="#240038" stroke-width="3" stroke-linecap="round" stroke-dasharray="4,10"/><path transform="translate(654.5,195.46875) scale(1.01,1.01)" d="M400,300v-100h100v100z" fill="#440069" stroke-width="3" stroke-linecap="round" stroke-dasharray="4,10"/><path transform="translate(653.5,195.46875) scale(1.01,1.01)" d="M500,300v-100h100v100z" fill="#b239ff" stroke-width="3" stroke-linecap="round" stroke-dasharray="4,10"/><path transform="translate(658.5,194.46875) scale(1.01,1.01)" d="M0,400v-100h100v100z" fill="#b239ff" stroke-width="3" stroke-linecap="round" stroke-dasharray="4,10"/><path transform="translate(657.5,194.46875) scale(1.01,1.01)" d="M100,400v-100h100v100z" fill="#670295" stroke-width="3" stroke-linecap="round" stroke-dasharray="4,10"/><path transform="translate(656.5,194.46875) scale(1.01,1.01)" d="M200,400v-100h100v100z" fill="#670295" stroke-width="3" stroke-linecap="round" stroke-dasharray="4,10"/><path transform="translate(655.5,194.46875) scale(1.01,1.01)" d="M300,400v-100h100v100z" fill="#440069" stroke-width="3" stroke-linecap="round" stroke-dasharray="4,10"/><path transform="translate(654.5,194.46875) scale(1.01,1.01)" d="M400,400v-100h100v100z" fill="#670295" stroke-width="3" stroke-linecap="round" stroke-dasharray="4,10"/><path transform="translate(653.5,194.46875) scale(1.01,1.01)" d="M500,400v-100h100v100z" fill="#b239ff" stroke-width="3" stroke-linecap="round" stroke-dasharray="4,10"/><path transform="translate(658.5,193.46875) scale(1.01,1.01)" d="M0,500v-100h100v100z" fill="#440069" stroke-width="3" stroke-linecap="round" stroke-dasharray="4,10"/><path transform="translate(657.5,193.46875) scale(1.01,1.01)" d="M100,500v-100h100v100z" fill="#240038" stroke-width="3" stroke-linecap="round" stroke-dasharray="4,10"/><path transform="translate(656.5,193.46875) scale(1.01,1.01)" d="M200,500v-100h100v100z" fill="#240038" stroke-width="3" stroke-linecap="round" stroke-dasharray="4,10"/><path transform="translate(655.5,193.46875) scale(1.01,1.01)" d="M300,500v-100h100v100z" fill="#240038" stroke-width="3" stroke-linecap="round" stroke-dasharray="4,10"/><path transform="translate(654.5,193.46875) scale(1.01,1.01)" d="M400,500v-100h100v100z" fill="#440069" stroke-width="3" stroke-linecap="round" stroke-dasharray="4,10"/><path transform="translate(653.5,193.46875) scale(1.01,1.01)" d="M500,500v-100h100v100z" fill="#670295" stroke-width="3" stroke-linecap="round" stroke-dasharray="4,10"/><path transform="translate(658.5,192.46875) scale(1.01,1.01)" d="M0,600v-100h100v100z" fill="none" stroke-width="3" stroke-linecap="round" stroke-dasharray="4,10"/><path transform="translate(657.5,192.46875) scale(1.01,1.01)" d="M100,600v-100h100v100z" fill="none" stroke-width="3" stroke-linecap="round" stroke-dasharray="4,10"/><path transform="translate(656.5,192.46875) scale(1.01,1.01)" d="M200,600v-100h100v100z" fill="#240038" stroke-width="3" stroke-linecap="round" stroke-dasharray="4,10"/><path transform="translate(655.5,192.46875) scale(1.01,1.01)" d="M300,600v-100h100v100z" fill="#240038" stroke-width="3" stroke-linecap="round" stroke-dasharray="4,10"/><path transform="translate(654.5,192.46875) scale(1.01,1.01)" d="M400,600v-100h100v100z" fill="#240038" stroke-width="3" stroke-linecap="round" stroke-dasharray="4,10"/><path transform="translate(653.5,192.46875) scale(1.01,1.01)" d="M500,600v-100h100v100z" fill="none" stroke-width="3" stroke-linecap="round" stroke-dasharray="4,10"/></g><path d="M659,397.96875v-100h100v100z" fill="none" stroke="none" stroke-width="3" stroke-linecap="round" stroke-dasharray="4,10"/><g stroke-linecap="butt" stroke-dasharray=""><path d="M609,747.96875v-600h600v600z" fill="none" stroke="#ffffff" stroke-width="6"/><g fill="#ffffff" stroke="none" stroke-width="1"><path d="M1141.7,722.96875h-23.4v-84.6h-42.3v-23.4h108v23.4h-42.3z"/><path d="M1044.275,722.96875h-62.4c-6,0 -11.15,-2.15 -15.45,-6.45c-4.3,-4.3 -6.45,-9.4 -6.45,-15.3v0v-8.4h22.95v2.25c0,3.3 0,4.95 0,4.95c0,0 1.65,0 4.95,0v0h50.25c3.3,0 4.95,0 4.95,0c0,0 0,-1.65 0,-4.95v0v-10.05c0,-3.3 0,-4.95 0,-4.95c0,0 -1.65,0 -4.95,0v0h-60.45v-22.95h56.4c3.3,0 4.95,0 4.95,0c0,0 0,-1.65 0,-4.95v0v-9.3c0,-3.3 0,-4.95 0,-4.95c0,0 -1.65,0 -4.95,0v0h-46.2c-3.3,0 -4.95,0 -4.95,0c0,0 0,1.65 0,4.95v0v3.45h-22.95v-9.6c0,-6 2.15,-11.12667 6.45,-15.38c4.3,-4.24667 9.45,-6.37 15.45,-6.37v0h58.35c6,0 11.12667,2.12333 15.38,6.37c4.24667,4.25333 6.37,9.38 6.37,15.38v0v21.6c0,1.1 -0.07667,2.27333 -0.23,3.52c-0.14667,1.25333 -0.37,2.38 -0.67,3.38v0c1.5,1.8 2.7,3.87667 3.6,6.23c0.9,2.34667 1.35,4.82 1.35,7.42v0v22.35c0,5.9 -2.12333,11 -6.37,15.3c-4.25333,4.3 -9.38,6.45 -15.38,6.45z"/><path d="M949.85,722.96875h-85.5c-6.1,0 -11.32667,-2.17333 -15.68,-6.52c-4.34667,-4.35333 -6.52,-9.58 -6.52,-15.68v0v-63.6c0,-6.1 2.17333,-11.32333 6.52,-15.67c4.35333,-4.35333 9.58,-6.53 15.68,-6.53v0h85.5v23.4h-79.5c-3.3,0 -4.95,0 -4.95,0c0,0 0,1.65 0,4.95v0v51.3c0,3.3 0,4.95 0,4.95c0,0 1.65,0 4.95,0v0h79.5z"/></g></g></g></svg>