<?xml version="1.0" encoding="UTF-8" standalone="no"?>
<svg
   xmlns:dc="http://purl.org/dc/elements/1.1/"
   xmlns:cc="http://creativecommons.org/ns#"
   xmlns:rdf="http://www.w3.org/1999/02/22-rdf-syntax-ns#"
   xmlns:svg="http://www.w3.org/2000/svg"
   xmlns="http://www.w3.org/2000/svg"
   xmlns:sodipodi="http://sodipodi.sourceforge.net/DTD/sodipodi-0.dtd"
   xmlns:inkscape="http://www.inkscape.org/namespaces/inkscape"
   version="1.1"
   width="617.83204"
   height="457.8855"
   viewBox="314.13738,312.39567,617.83204,457.8855"
   id="svg34"
   sodipodi:docname="ICON.svg"
   inkscape:version="0.92.4 5da689c313, 2019-01-14">
  <metadata
     id="metadata40">
    <rdf:RDF>
      <cc:Work
         rdf:about="">
        <dc:format>image/svg+xml</dc:format>
        <dc:type
           rdf:resource="http://purl.org/dc/dcmitype/StillImage" />
      </cc:Work>
    </rdf:RDF>
  </metadata>
  <defs
     id="defs38" />
  <sodipodi:namedview
     pagecolor="#ffffff"
     bordercolor="#666666"
     borderopacity="1"
     objecttolerance="10"
     gridtolerance="10"
     guidetolerance="10"
     inkscape:pageopacity="0"
     inkscape:pageshadow="2"
     inkscape:window-width="1920"
     inkscape:window-height="1080"
     id="namedview36"
     showgrid="false"
     inkscape:zoom="1.0308254"
     inkscape:cx="111.74437"
     inkscape:cy="183.00553"
     inkscape:window-x="0"
     inkscape:window-y="0"
     inkscape:window-maximized="0"
     inkscape:current-layer="g32" />
  <g
     fill="none"
     fill-rule="nonzero"
     stroke="none"
     stroke-width="none"
     stroke-linecap="butt"
     stroke-linejoin="miter"
     stroke-miterlimit="10"
     stroke-dasharray=""
     stroke-dashoffset="0"
     font-family="none"
     font-weight="none"
     font-size="none"
     text-anchor="none"
     style="mix-blend-mode: normal"
     id="g32">
    <path
       d="M507.51307,737.06391l-27.32314,-5.90235"
       fill="none"
       stroke="none"
       stroke-width="1"
       id="path2" />
    <path
       d=""
       fill="none"
       stroke="#00bb31"
       stroke-width="6"
       opacity="0"
       id="path4" />
    <path
       d="M803.76551,357.41569l24.59428,5.3372"
       fill="none"
       stroke="none"
       stroke-width="1"
       id="path6" />
    <path
       d=""
       fill="none"
       stroke="#00bb31"
       stroke-width="6"
       opacity="0"
       id="path8" />
    <path
       d="M477.77144,380.9834l6.63163,-12.41544"
       fill="none"
       stroke="none"
       stroke-width="1"
       id="path10" />
    <path
       d=""
       fill="none"
       stroke="#00bb31"
       stroke-width="6"
       opacity="0"
       id="path12" />
    <path
       d="M509.37966,324.06685c9.71317,-10.15299 23.74632,-14.0221 37.10901,-10.25834c2.0029,0.59768 16.14516,7.88273 75.88196,39.46929l0.42585,10.44472l-7.81989,4.57125l-5.98461,10.71362l-10.91862,9.14784l-4.20633,8.16977l-8.76301,10.88663l-17.25799,0.27956l-12.02874,3.72607l-12.42354,2.29676l-15.87089,2.85364l-8.62451,-7.83991l-14.55647,0.66396l-9.46133,-0.06434l-8.94762,-2.36851l-12.37877,-1.71553l-4.77607,-7.21171l8.99337,-16.84822l0.51216,0.08809l12.06426,4.17937l15.94984,-5.51095l15.68053,-2.52306l7.11928,7.27244l1.7343,-1.19623l4.75376,3.2625l16.12938,-7.50288l15.25463,6.55485l-13.36748,-10.0817l-15.18581,5.73945l-2.04515,-1.79296l3.55359,-2.45107l8.15531,-8.39589l10.74346,-0.76035l6.38334,-9.75976l9.92727,-7.03202l-11.67132,3.43225l-7.25537,7.95988l-11.61548,-1.03953l-8.15531,8.39589l-6.19754,4.27473l-4.48657,-3.93331l-14.73696,0.75964l-15.00627,3.74752l-11.12069,-5.94279l-0.48553,-0.15955c22.13021,-41.35829 22.31072,-41.64173 24.97658,-44.50111z"
       fill="#d0d0ce"
       stroke="none"
       stroke-width="1"
       id="path14"
       style="fill:#aaaaaa;fill-opacity:1" />
    <path
       d="M644.2708,766.56375l-48.02218,-10.34976"
       fill="none"
       stroke="none"
       stroke-width="1"
       id="path16" />
    <path
       d=""
       fill="none"
       stroke="#00bb31"
       stroke-width="6"
       opacity="0"
       id="path18" />
    <path
       d="M890.83901,604.99286l-4.19385,19.32459"
       fill="none"
       stroke="none"
       stroke-width="1"
       id="path20" />
    <path
       d=""
       fill="none"
       stroke="#00bb31"
       stroke-width="6"
       opacity="0"
       id="path22" />
    <path
       d="M342.17933,533.41882l9.45276,-43.29453"
       fill="none"
       stroke="none"
       stroke-width="1"
       id="path24" />
    <path
       d=""
       fill="none"
       stroke="#00bb31"
       stroke-width="6"
       opacity="0"
       id="path26" />
    <path
       d="M741.16676,343.85046c24.1467,5.23357 44.84415,9.71588 62.59874,13.56523l4.33078,6.09554l2.86579,14.08417l-2.22341,13.76779l8.94584,14.26565l-5.60068,11.1999l6.55943,11.56287l-3.75385,9.93925l2.0298,4.64156l-0.42618,6.32482l4.23052,1.04545l7.14982,10.12304l2.86579,14.08417l3.18217,8.99497l-2.23703,14.11482l6.14599,-13.26629l-0.26668,-1.86177l5.75203,9.1513l11.31697,6.47505l7.40414,11.92387l1.58234,11.59725l1.95753,-13.45987l-5.6342,-12.85518l-9.54704,-7.40636l-5.16855,-11.97022l-4.74924,-13.32084l0.09491,-16.99974l-11.68994,-2.88884l0.43109,-6.39772l3.01098,-5.01887l-4.60495,-11.1386l7.55516,-10.77563l-6.99136,-13.84139l4.17789,-13.34352l-0.91131,-13.6599l-3.19028,-5.84954c89.57434,19.46416 82.31926,18.27261 87.6931,22.00159c8.5209,5.96901 14.36547,15.83303 15.44609,26.08729l0.47044,4.62878l-41.13041,189.5223l-8.7087,8.64062l-13.65323,7.92964l-14.13699,0.66562l-10.90267,3.75418l-5.59192,3.34505l-0.17437,0.25532l-1.63694,1.02208l-10.63754,1.53388l-9.4049,13.84163l-15.41614,0.06248l-9.76273,8.496l8.91439,-4.587l14.99197,1.89202l8.98073,-11.88713l6.69813,0.27585l-0.46817,0.68554l0.79793,-0.67196l3.18549,0.13119l6.97906,-2.66794l10.4785,-1.79968l13.71282,1.28889l13.22906,-5.97513l8.33237,-6.90656l-5.59158,25.7651l-2.08103,3.26127c-6.47315,10.14078 -16.1745,16.17325 -28.02942,17.36424c-5.20526,0.54878 -12.92624,-0.66908 -30.91554,-4.72573l-16.53208,-3.7404l-0.81852,2.36545c-1.93448,5.63271 -1.98575,15.9465 -0.11369,24.89754c1.52295,7.04425 5.74619,18.2857 9.91961,26.00689l1.98636,3.73709l-5.48038,4.86318l-5.4318,4.87372l-4.92787,-3.30737c-23.50295,-15.67987 -43.71651,-33.3924 -57.76574,-50.68265c-5.06615,-6.18563 -14.82124,-20.7638 -17.71211,-26.42649c-1.17073,-2.3394 -2.38136,-4.02626 -3.08889,-4.28153l-1.16164,-0.50641l-4.01221,18.25325c-2.23068,10.04426 -7.28651,33.10632 -11.27763,51.26242c-7.1536,32.72827 -7.22739,33.06829 -9.17738,36.66317c-6.22759,11.82165 -16.61497,18.6716 -29.93125,19.79975l-3.78835,0.34766l-16.44323,-3.54385l-4.916,-6.6222l0.25619,-12.79948l-3.95226,-8.76353l-3.73007,-7.78852l4.15621,-13.68824l-13.39386,-9.68884l-0.18818,-14.74949l-3.11319,-14.08292l-6.03821,-13.41636l2.2062,-13.24386l-10.55509,-6.2332l-1.78006,-8.2329l1.11389,-18.54867l-3.11113,0.02558l0.25118,-3.4843l-8.29665,-9.82478l1.2312,-13.02167l-3.86601,-12.88573l-6.03821,-13.41636l-1.69381,-12.3551l-3.73007,-7.78852l-7.76602,-11.99698l-3.11319,-14.08292l2.87277,-10.31885l-6.87982,-8.52983l2.9696,7.6871l-4.82788,9.89748l1.15809,13.66156l5.81091,11.57561l1.77496,7.36716l-0.2613,11.93374l4.0831,12.99499l1.9109,12.46436l-3.18631,12.60031l0.14175,0.2102l-13.56373,-6.68329l-3.67395,-12.51008l-13.45223,0.19367l-7.05958,-10.15688l-8.09202,-4.41806l-11.85625,-7.70904l-7.52847,-6.58195l-9.40841,-2.91237l-5.085,-12.41543l-11.29271,-9.87293l8.65993,12.88432l3.76861,13.92112l8.09202,4.41806l6.21208,8.08765l17.31549,15.13849l5.74319,11.66258l12.13584,1.31202l2.35756,14.01577l12.6091,8.36723l9.69236,7.1455l5.83784,13.07362l2.47647,-0.02037l-0.02756,1.22976l8.59999,5.81184l-4.16131,12.82249l4.0831,12.99499l1.15809,13.66156l-1.76693,14.32812l11.43875,9.26747l-6.11132,13.26687l1.77496,7.36716l1.99715,8.34216l-2.2113,12.37812l3.81644,6.38522l-37.18284,-8.01366l-51.5527,-11.13642l-9.06182,-11.38922l-8.81153,-10.77653l-3.87391,-9.98921l-6.62459,-13.06066l-5.22495,-10.40717l-8.76294,-8.54099l0.46635,-15.37651l-10.53505,-0.26572l-6.62128,-4.14182l-5.59431,-6.82058l-4.75841,-9.52267l-0.38451,-14.09093l-8.2478,-5.42095l-5.3665,-13.3204l1.45669,12.4758l6.2929,4.99865l-1.57039,13.66863l2.8035,9.10037l0.57556,1.01187l-3.66499,-2.2187l-8.0367,-6.03419l-13.8906,-0.22629l-13.19244,-3.31053l11.12094,6.73236l12.85485,1.9372l7.00095,7.74511l7.51882,6.88965l9.9049,10.67206l5.87116,0.82421l0.35711,1.31499l6.80803,8.11869l3.27004,9.98487l4.66968,12.63836l1.919,9.56691l6.85663,10.35423l7.15248,10.97677l-22.71329,-4.90653l-3.58682,2.93448c-5.25673,4.30137 -21.69725,14.66952 -28.76403,18.17119c-20.27558,9.99361 -42.1572,16.84129 -69.45615,21.6995l-7.02958,1.22096l-8.23648,-1.88922l-8.22594,-1.93779l9.63314,-7.82743c11.10462,-8.98307 16.7981,-14.35948 21.78179,-20.44941c7.47026,-9.1106 11.70756,-17.85473 13.33654,-27.47009l0.28235,-1.76974l-20.21315,-4.59014c-19.24168,-4.3793 -20.43494,-4.73999 -23.66231,-6.5085c-9.48783,-5.26335 -15.77742,-13.54551 -18.21811,-24.09494c-1.96693,-8.51387 -3.79021,1.05932 24.46991,-128.45567l2.59153,-11.86943l1.79919,-1.28618l12.31587,-11.67876l16.08985,1.84001l7.94486,-9.05307l9.56008,-7.50676l14.74255,-1.92626l8.61851,-7.16993l10.30263,-2.4621l10.70837,1.641l12.04795,-9.4588l13.39525,-5.69253l12.81145,-5.48664l-0.03505,-0.54554l6.55047,0.50324l11.2442,-2.79892l10.76956,-10.06354l7.00329,-8.71624l12.5915,0.96735l10.57055,-4.68206l9.02424,-3.06684l12.31587,-11.67876l10.44045,3.86096l12.19236,-13.59731l-11.33911,9.68937l-10.01383,-5.81492l-11.88925,9.72479l-8.59762,1.11287l-10.14393,2.72809l-12.16488,-2.92132l-6.57667,6.76228l-10.34294,8.10957l-10.81758,0.84495l-7.51878,-1.80559l2.04246,-4.64805l-3.47441,4.30417l-3.21415,-0.77186l-6.30875,4.54232l-12.96863,3.73856l-11.62133,7.50483l-10.28174,-3.59497l-9.87601,0.50813l-8.19189,5.21597l-14.31593,-0.02771l-9.13346,5.55279l-7.51824,7.0991l-15.66323,-3.79398l-11.88925,9.72479l-1.73211,0.97897l13.29581,-60.89606l1.90368,-3.14718c1.04258,-1.75734 2.77119,-4.33217 3.88571,-5.71787c6.29022,-7.89171 16.06164,-12.84087 26.6307,-13.49713l4.02068,-0.24638l57.44599,12.31443l57.43544,12.363l4.69204,-21.31979l6.54751,5.65242l12.38173,-1.69407l9.25477,-0.13802l9.12659,-2.49527l13.83524,-4.57359l10.4225,5.21707l14.50892,-7.03703l11.34038,-5.56913l10.57396,-6.83853l16.54011,-4.93366l5.49441,-12.84992l1.84164,-9.0026l8.03975,-11.75847l2.86619,-11.9324l6.29332,-6.51469l-3.23301,-9.94088c22.04843,4.76188 49.72024,10.7577 84.39061,18.28192z"
       fill="#d0d0ce"
       stroke="none"
       stroke-width="1"
       id="path28"
       style="fill:#aaaaaa;fill-opacity:1" />
    <path
       d="M563.02793,564.74111c-0.19067,-2.72668 -0.81745,-5.23907 -1.88035,-7.53719c-1.0629,-2.29812 -2.45983,-4.35569 -4.19079,-6.1727c1.46124,-2.04023 2.55706,-4.28882 3.28745,-6.74575c0.73039,-2.45693 1.00025,-5.04874 0.80959,-7.77541c-0.17207,-2.46066 -0.6627,-4.69855 -1.47191,-6.71368c-0.89431,-2.27649 -2.10952,-4.36348 -3.64562,-6.26095c-1.5361,-1.89747 -3.31846,-3.49369 -5.34707,-4.78867c-2.02861,-1.29498 -4.23464,-2.26011 -6.61809,-2.8954c-2.38345,-0.63529 -4.87202,-0.86225 -7.46568,-0.68088c-3.1922,0.22322 -6.12642,1.02987 -8.80264,2.41994c-2.67622,1.39007 -4.98853,3.20579 -6.93692,5.44716c-1.9484,2.24137 -3.42347,4.8005 -4.42523,7.67739c-1.00176,2.87689 -1.39335,5.87818 -1.17478,9.00388l16.75908,-1.17191c-0.12091,-1.72911 0.37532,-3.23406 1.48869,-4.51484c1.11337,-1.28078 2.53461,-1.98163 4.26372,-2.10254c1.39659,-0.09766 2.65598,0.23196 3.77818,0.98886c1.1222,0.7569 1.92699,1.75318 2.41437,2.98886c0.23672,0.51808 0.37833,1.10965 0.42483,1.77469c0.12091,1.72911 -0.36602,3.36707 -1.46078,4.91387c-1.09477,1.5468 -2.50671,2.38066 -4.23582,2.50157l-4.78831,0.33483l1.00449,14.36492l4.78831,-0.33483c1.72911,-0.12091 3.24336,0.50833 4.54275,1.88771c1.29939,1.37939 2.00954,2.93363 2.13045,4.66275c0.05115,0.73155 -0.00675,1.33706 -0.17371,1.81654c-0.31067,1.29148 -0.96897,2.39008 -1.97491,3.29579c-1.00594,0.90571 -2.2072,1.40739 -3.60379,1.50505c-1.72911,0.12091 -3.23522,-0.39194 -4.51833,-1.53857c-1.28311,-1.14662 -1.98512,-2.58449 -2.10603,-4.3136l-16.75908,1.17191c0.22322,3.1922 1.03103,6.14304 2.42342,8.85251c1.39239,2.70947 3.20928,5.03841 5.45065,6.9868c2.24137,1.9484 4.78388,3.42464 7.62751,4.42872c2.84363,1.00408 5.86155,1.39452 9.05376,1.17129c2.59367,-0.18137 5.02642,-0.75246 7.29827,-1.71327c2.27184,-0.96082 4.32209,-2.22358 6.15073,-3.78828c1.82864,-1.5647 3.3715,-3.39345 4.62857,-5.48624c1.25708,-2.09279 2.17001,-4.32858 2.73879,-6.70739c0.52088,-2.10814 0.69296,-4.42579 0.51624,-6.95295zM514.745,606.81164l-7.29653,-104.3452l231.83389,-16.2114l7.29653,104.3452zM618.20019,560.98333c-0.4883,-6.98295 -2.67222,-12.41049 -6.55178,-16.28263c-3.87956,-3.87214 -9.21105,-5.57104 -15.99449,-5.0967c-0.53203,0.0372 -1.17231,0.19893 -1.92084,0.48517c-0.74852,0.28624 -1.49356,0.62237 -2.2351,1.00837c-0.74155,0.386 -1.37752,0.84816 -1.90793,1.38647c-0.53041,0.53831 -0.84584,1.04488 -0.9463,1.51971l-0.73942,-10.57418l0.09976,-0.00698c-0.12091,-1.72911 0.37416,-3.25068 1.4852,-4.56472c1.11104,-1.31404 2.53112,-2.03151 4.26023,-2.15242c1.72911,-0.12091 3.23522,0.39194 4.51833,1.53857c1.28311,1.14662 1.98512,2.58449 2.10603,4.3136l15.76151,-1.10215c-0.22322,-3.1922 -0.97766,-6.09665 -2.26333,-8.71334c-1.28566,-2.61669 -2.97803,-4.83738 -5.07709,-6.66207c-2.09906,-1.82469 -4.53367,-3.19152 -7.30383,-4.1005c-2.77016,-0.90898 -5.71808,-1.25418 -8.84378,-1.03561c-3.52473,0.24647 -6.67159,1.11811 -9.44059,2.61491c-2.769,1.4968 -5.07666,3.37903 -6.92297,5.64668c-1.84631,2.26765 -3.20501,4.81864 -4.07608,7.65298c-0.87108,2.83433 -1.20663,5.68134 -1.00666,8.54103l2.13455,30.52546c0.21392,3.0592 0.9436,5.84842 2.18903,8.36768c1.24544,2.51926 2.91536,4.65798 5.00977,6.41617c2.09441,1.75818 4.60867,3.06933 7.54276,3.93343c2.93409,0.8641 6.19675,1.17059 9.78798,0.91946c3.59123,-0.25112 6.70833,-1.07056 9.3513,-2.4583c2.64297,-1.38774 4.80564,-3.193 6.48802,-5.41577c1.68238,-2.22277 2.90923,-4.74784 3.68055,-7.57519c0.77132,-2.82736 1.04537,-5.83714 0.82215,-9.02935zM656.16202,564.84465c-3.41032,-0.02885 -6.23349,-1.21814 -8.46951,-3.56789c-2.23602,-2.34975 -3.48192,-5.35349 -3.7377,-9.01122l-1.01147,-14.46468c-0.25577,-3.65773 0.54566,-6.77122 2.4043,-9.34047c1.85864,-2.56924 4.47452,-4.10546 7.84763,-4.60865c1.39194,-0.16416 2.74063,0.00885 4.04606,0.51903c1.30544,0.51018 2.49181,1.22917 3.55913,2.15698c1.06732,0.92781 1.99431,1.99909 2.78096,3.21384c0.78665,1.21475 1.42135,2.40671 1.90408,3.57589l13.89965,-9.09174c-0.88966,-2.20999 -2.06197,-4.40022 -3.51691,-6.57068c-1.45495,-2.17046 -3.29264,-4.08026 -5.51309,-5.72938c-2.22045,-1.64913 -4.83329,-2.93667 -7.83854,-3.86262c-3.00525,-0.92595 -6.53625,-1.24709 -10.59301,-0.96342l-0.09976,0.00698c-4.58879,0.32088 -8.55301,1.45016 -11.89265,3.38784c-3.33964,1.93768 -6.05899,4.38333 -8.15807,7.33695c-2.09908,2.95362 -3.60613,6.25011 -4.52116,9.88947c-0.91503,3.63936 -1.27791,7.29023 -1.08864,10.95262l1.07425,15.36249c0.46924,3.8433 1.32704,7.50906 2.5734,10.99728c1.24636,3.48822 3.04441,6.50347 5.39414,9.04576c2.34973,2.54228 5.29289,4.49173 8.82947,5.84833c3.53658,1.35661 7.83203,1.85819 12.88636,1.50476l0.09976,-0.00698c4.52229,-0.31623 8.28432,-1.23088 11.28608,-2.74396c3.00177,-1.51308 5.43743,-3.23718 7.307,-5.17231c1.86957,-1.93513 3.2879,-3.87212 4.25501,-5.81097c0.96711,-1.93885 1.70808,-3.52774 2.22291,-4.76667l-15.02971,-7.0688c-0.8348,2.39741 -2.14175,4.49368 -3.92086,6.28882c-1.77911,1.79514 -4.10548,2.69294 -6.97912,2.6934zM738.49944,552.47094c-0.19067,-2.72668 -0.81745,-5.23907 -1.88035,-7.53719c-1.0629,-2.29812 -2.45983,-4.35569 -4.19079,-6.1727c1.46124,-2.04023 2.55706,-4.28882 3.28745,-6.74575c0.73039,-2.45693 1.00025,-5.04874 0.80959,-7.77541c-0.17207,-2.46066 -0.6627,-4.69855 -1.47191,-6.71368c-0.89431,-2.27649 -2.10952,-4.36348 -3.64562,-6.26095c-1.5361,-1.89747 -3.31846,-3.49369 -5.34707,-4.78867c-2.02861,-1.29498 -4.23464,-2.26011 -6.61809,-2.8954c-2.38345,-0.63529 -4.87202,-0.86225 -7.46568,-0.68088c-3.1922,0.22322 -6.12642,1.02987 -8.80264,2.41994c-2.67622,1.39007 -4.98853,3.20579 -6.93692,5.44716c-1.9484,2.24137 -3.42347,4.8005 -4.42523,7.67739c-1.00176,2.87689 -1.39335,5.87818 -1.17478,9.00388l16.75908,-1.17191c-0.12091,-1.72911 0.37532,-3.23406 1.48869,-4.51484c1.11337,-1.28078 2.53461,-1.98163 4.26372,-2.10254c1.39659,-0.09766 2.65598,0.23196 3.77818,0.98886c1.1222,0.7569 1.92699,1.75318 2.41437,2.98886c0.23672,0.51808 0.37833,1.10965 0.42483,1.77469c0.12091,1.72911 -0.36602,3.36707 -1.46078,4.91387c-1.09477,1.5468 -2.50671,2.38066 -4.23582,2.50157l-4.78831,0.33483l1.00449,14.36492l4.78831,-0.33483c1.72911,-0.12091 3.24336,0.50833 4.54275,1.88771c1.29939,1.37939 2.00954,2.93363 2.13045,4.66275c0.05115,0.73155 -0.00675,1.33706 -0.17371,1.81654c-0.31067,1.29148 -0.96897,2.39008 -1.97491,3.29579c-1.00594,0.90571 -2.2072,1.40739 -3.60379,1.50505c-1.72911,0.12091 -3.23522,-0.39194 -4.51833,-1.53857c-1.28311,-1.14662 -1.98512,-2.58449 -2.10603,-4.3136l-16.75908,1.17191c0.22322,3.1922 1.03103,6.14304 2.42342,8.85251c1.39239,2.70947 3.20928,5.03841 5.45065,6.9868c2.24137,1.9484 4.78388,3.42464 7.62751,4.42872c2.84363,1.00408 5.86155,1.39452 9.05376,1.17129c2.59367,-0.18137 5.02642,-0.75246 7.29827,-1.71327c2.27184,-0.96082 4.32209,-2.22358 6.15073,-3.78828c1.82864,-1.5647 3.3715,-3.39345 4.62857,-5.48624c1.25708,-2.09279 2.17001,-4.32858 2.73879,-6.70739c0.52088,-2.10814 0.69296,-4.42579 0.51624,-6.95295z"
       fill="#fe5000"
       stroke="none"
       stroke-width="1"
       id="path30" />
  </g>
</svg>
