<svg version="1.1" xmlns="http://www.w3.org/2000/svg" xmlns:xlink="http://www.w3.org/1999/xlink" width="437.67694" height="289.47153" viewBox="332.31821,536.90548,437.67694,289.47153"><g fill="none" fill-rule="nonzero" stroke="none" stroke-width="1" stroke-linecap="butt" stroke-linejoin="miter" stroke-miterlimit="10" stroke-dasharray="" stroke-dashoffset="0" font-family="none" font-weight="none" font-size="none" text-anchor="none" style="mix-blend-mode: normal"><path d="M430.02909,540.2114l51.25403,8.27135l0.0211,1.77371l5.30602,9.6902l-4.50042,10.10771l-2.00266,15.11683l-0.39607,9.06129l8.37889,10.00679l-7.2233,14.06898l-61.83056,-9.97818z" fill="#d0d0ce"/><path d="M501.36069,556.13909l-10.99296,68.11868l-5.3009,-0.85546l7.2233,-14.06898l-8.37889,-10.00679l0.39607,-9.06129l2.00266,-15.11683l4.50042,-10.10771l-5.30602,-9.6902l-0.0211,-1.77371z" fill="#d0d0ce"/><path d="M408.44632,694.87184l67.13146,10.83364l-10.99296,68.11868l-67.13146,-10.83364z" fill="#d0d0ce"/><path d="M526.80089,549.49652l63.69737,-11.59098l3.6983,2.13331l1.9403,10.6628l-0.544,0.89921l1.0478,1.8694l1.52535,8.38246l-4.67819,6.82739l1.46703,14.91027l8.95369,9.82l1.26122,6.93096l0.43051,4.44156l0.21864,0.46784l-66.66498,12.131z" fill="#d0d0ce"/><path d="M592.87923,536.90548l0.49429,2.71634l-3.6983,-2.13331z" fill="#d0d0ce"/><path d="M605.88848,604.00491l-0.23639,0.04302l-0.21864,-0.46784l-0.43051,-4.44156z" fill="#d0d0ce"/><path d="M555.4637,705.93894l66.90137,-12.17401l12.35304,67.88521l-66.90137,12.17401z" fill="#d0d0ce"/><path d="M594.89735,583.59408l-1.46703,-14.91027l4.67819,-6.82739l5.74253,31.55766z" fill="#d0d0ce"/><path d="M595.535,551.5999l0.544,-0.89921l0.5038,2.76861z" fill="#d0d0ce"/><path d="M690.82397,652.69507l-14.05443,-62.84978l9.32726,-5.85792l7.9703,5.52147l12.44417,0.51566l10.79781,4.27282l7.32552,4.27303l11.77037,1.76737l12.21275,5.7867l3.7494,11.59798l0.80155,2.17254l3.72019,16.63628l-0.35197,1.46917z" fill="#d0d0ce"/><path d="M641.09279,554.79404l66.36103,-14.83961l11.04152,49.3764l-0.80155,-2.17254l-3.7494,-11.59798l-12.21275,-5.7867l-11.77037,-1.76737l-7.32552,-4.27303l-10.79781,-4.27282l-12.44417,-0.51566l-7.9703,-5.52147l-9.32726,5.85792z" fill="#d0d0ce"/><path d="M743.31291,643.0143l-0.64809,0.14493l0.35197,-1.46917z" fill="#d0d0ce"/><path d="M688.57628,706.48723l66.36103,-14.83961l15.05784,67.33692l-66.36103,14.83961z" fill="#d0d0ce"/><path d="M358.17549,773.49044l3.01455,-57.52106l-16.77698,-0.87924l-3.8938,74.29804l36.6497,1.92073l0.87924,-16.77698zM332.31821,804.47964l5.47434,-104.45665l417.8266,21.89736l-5.47434,104.45665zM446.23736,747.86412c0.11137,-3.39883 -0.34839,-6.72745 -1.37927,-9.98587c-1.03088,-3.25842 -2.67838,-6.21536 -4.94251,-8.87083c-2.57956,-3.00579 -5.57681,-5.36589 -8.99177,-7.0803c-3.41495,-1.71441 -7.0864,-2.67454 -11.01435,-2.88039l-0.09986,-0.00523c-3.92794,-0.20585 -7.663,0.36612 -11.20516,1.71592c-3.54216,1.3498 -6.78634,3.3828 -9.73253,6.099c-2.46272,2.40774 -4.4129,5.22621 -5.85054,8.45539c-1.43764,3.22919 -2.2402,6.44159 -2.40767,9.6372l-0.91065,17.37615c-0.14277,3.99801 0.24263,7.79004 1.15621,11.3761c0.91357,3.58606 2.59531,6.84521 5.0452,9.77745c2.64613,3.00928 5.67668,5.37112 9.09163,7.08553c3.41495,1.71441 7.05312,2.67279 10.91448,2.87516l0.09986,0.00523c3.92794,0.20585 7.67964,-0.36525 11.25509,-1.7133c3.57545,-1.34806 6.80473,-3.41522 9.68784,-6.20148c2.80955,-2.6566 4.8604,-5.80358 6.15253,-9.44094c1.29214,-3.63736 2.03241,-7.25357 2.22082,-10.84864zM494.23551,777.8172l5.66503,19.92379l19.07382,0.99962l-17.87633,-75.43896l-22.3693,-1.17233l-25.66392,73.15711l19.07382,0.99962l7.61674,-19.22772zM585.03329,764.95156c0.27564,-5.25945 -0.19937,-10.20776 -1.42503,-14.84492c-1.22566,-4.63717 -3.21679,-8.68025 -5.97339,-12.12925c-2.7566,-3.449 -6.28217,-6.23733 -10.5767,-8.36501c-4.29453,-2.12767 -9.33782,-3.34329 -15.12987,-3.64683l-14.97944,-0.78504l-3.8938,74.29804l17.17643,0.90018c6.05835,0.3175 11.23699,-0.41247 15.5359,-2.18991c4.29892,-1.77745 7.83556,-4.29581 10.60994,-7.55507c2.77438,-3.25927 4.84521,-7.10616 6.21251,-11.54068c1.36729,-4.43452 2.18178,-9.14835 2.44346,-14.1415zM613.64445,803.70205l3.8938,-74.29804l-16.77698,-0.87924l-3.8938,74.29804zM664.77342,731.87951l-1.91026,36.44998l-17.96247,-37.49146l-17.07657,-0.89494l-3.8938,74.29804l17.77561,0.93158l1.9155,-36.54984l18.05709,37.59656l16.9767,0.88971l3.8938,-74.29804zM743.552,770.6556l-23.96711,-1.25606l-0.75364,14.38027l7.88917,0.41345l-0.19364,3.69493c-0.80211,1.29313 -1.94153,2.33492 -3.41825,3.12539c-1.47673,0.79046 -3.37841,1.09135 -5.70506,0.90266c-1.66438,-0.08723 -3.17817,-0.50035 -4.54136,-1.23937c-1.36319,-0.73902 -2.53196,-1.68482 -3.50631,-2.83739c-0.97435,-1.15257 -1.72011,-2.52682 -2.2373,-4.12274c-0.51718,-1.59592 -0.72867,-3.29265 -0.63447,-5.09018l0.75887,-14.48013c0.1919,-3.66164 1.32828,-6.55614 3.40913,-8.68348c2.08086,-2.12735 4.78567,-3.10379 8.11443,-2.92934c1.73096,0.09072 3.1475,0.44868 4.24962,1.07388c1.10212,0.6252 2.01506,1.35732 2.73881,2.19635c0.72375,0.83903 1.27757,1.73591 1.66146,2.69064c0.38389,0.95473 0.72309,1.80699 1.01758,2.55676l14.25734,-8.36529c-0.61342,-1.03352 -1.30576,-2.47173 -2.07704,-4.31462c-0.77127,-1.84289 -1.95864,-3.70759 -3.56211,-5.59409c-1.60347,-1.8865 -3.78416,-3.5863 -6.54209,-5.09937c-2.75792,-1.51308 -6.39521,-2.48811 -10.91187,-2.92509l-0.09986,-0.00523c-4.52712,-0.23726 -8.56351,0.3523 -12.10916,1.76868c-3.54565,1.41638 -6.5542,3.41166 -9.02564,5.98584c-2.47144,2.57418 -4.40055,5.62741 -5.78731,9.15967c-1.38676,3.53226 -2.18482,7.29565 -2.39416,11.29017l-0.80597,15.37889c-0.09015,4.2678 0.40304,8.23238 1.47956,11.89373c1.07652,3.66136 2.69517,6.85044 4.85594,9.56725c2.16077,2.71681 4.90045,4.89651 8.21903,6.53911c3.31858,1.6426 7.20814,2.58078 11.66869,2.81455l0.09986,0.00523c2.86274,0.15003 5.61239,-0.08973 8.24895,-0.71927c2.63656,-0.62954 5.06984,-1.52008 7.29983,-2.67162c2.22999,-1.15154 4.27159,-2.52991 6.12481,-4.13512c1.85322,-1.60521 3.45939,-3.27344 4.81853,-5.00468z" fill="#fe5000"/></g></svg>