<svg version="1.1" xmlns="http://www.w3.org/2000/svg" xmlns:xlink="http://www.w3.org/1999/xlink" width="396.82804" height="508.43274" viewBox="486.85974,318.03811,396.82804,508.43274"><g fill="none" fill-rule="nonzero" stroke="none" stroke-width="none" stroke-linecap="butt" stroke-linejoin="miter" stroke-miterlimit="10" stroke-dasharray="" stroke-dashoffset="0" font-family="none" font-weight="none" font-size="none" text-anchor="none" style="mix-blend-mode: normal"><path d="M738.43975,763.85507l10.26085,-6.53764l15.90382,-1.32445l13.12029,-8.85803l14.57237,3.81387l11.39265,0.506l13.52906,0.49156l13.49037,5.19077l13.31773,8.77485l10.58118,3.13512l10.74176,-3.97554l12.79512,3.13765l2.28212,1.94564l-150.99804,0.05825z" fill="#d0d0ce" stroke="none" stroke-width="1"/><path d="M571.5164,318.23807l0.19893,229.85577l-3.61635,-0.81683l-6.57739,-11.71388l-1.0406,-14.23259l-7.9359,-4.77453l-2.95719,-8.12303l-10.30565,-4.85674l6.37813,5.61472l0.99343,8.50203l5.97214,5.15353l-0.92316,14.61158l4.61363,12.09287l9.29128,2.92119l1.90002,2.4189l-5.15936,0.99572l-10.61445,7.71186l-8.55255,-10.37782l-11.91049,-2.04452l-8.335,-8.79249l-8.80428,-4.18763l-3.65138,-13.12168l-6.48709,-7.07767l0.64231,-13.23596l3.27593,-10.50903l-6.99252,-9.25248l8.97007,-14.74109l-7.78351,-11.10083l4.26626,-8.65588l-2.12607,-11.66716l8.472,-12.79789l2.3389,-11.80279l3.97516,-14.50637l-2.33186,-8.62269l5.25912,-11.14671l5.76345,-9.07385l2.16679,-12.81786l-5.90685,-15.77785l2.26125,-14.40765l5.27287,-9.60803z" fill="#d0d0ce" stroke="none" stroke-width="1"/><path d="M571.71532,548.09384l-4.20763,6.7972" fill="none" stroke="none" stroke-width="1"/><path d="" fill="none" stroke="#00bb31" stroke-width="6" opacity="0"/><path d="M488.26521,630.61715l-0.06024,-13.37761" fill="none" stroke="none" stroke-width="1"/><path d="" fill="none" stroke="#00bb31" stroke-width="6" opacity="0"/><path d="M487.06169,363.3397l-0.0131,-2.90963" fill="none" stroke="none" stroke-width="1"/><path d="" fill="none" stroke="#00bb31" stroke-width="6" opacity="0"/><path d="M729.23071,400.31471l-0.02363,8.97131" fill="none" stroke="none" stroke-width="1"/><path d="" fill="none" stroke="#00bb31" stroke-width="6" opacity="0"/><path d="M644.80268,562.7061l0.03606,-13.6908" fill="none" stroke="none" stroke-width="1"/><path d="" fill="none" stroke="#00bb31" stroke-width="6" opacity="0"/><path d="M645.37249,346.38034l0.01522,-5.77786" fill="none" stroke="none" stroke-width="1"/><path d="" fill="none" stroke="#00bb31" stroke-width="6" opacity="0"/><path d="M486.85974,318.49158l43.99955,-0.19812l-5.23789,9.62715l-2.20883,14.41578l5.9642,15.75626l-2.12016,12.82565l-5.7304,9.09475l-5.21854,11.16577l2.36321,8.61415l-3.92237,14.52074l-2.29596,11.81122l-8.42539,12.82862l2.1685,11.65935l-4.23475,8.67135l7.82384,11.07244l-8.91639,14.77362l7.02613,9.22698l-3.23769,10.52087l-0.59416,13.23821l6.51279,7.05402l3.69908,13.10831l8.81945,4.15557l8.36693,8.76211l11.91784,2.00118l8.59024,10.34664l10.58632,-7.75042l9.36552,-1.84283l0.97333,216.15779l-33.59606,0.15128l-1.65053,-2.33995l-7.15474,-11.44622l-10.27066,-10.90672l-5.39309,-12.3931l-9.44294,-9.61401l5.44298,9.63202l3.39311,12.40211l8.27068,10.91572l5.15476,11.45522l1.28303,2.3416l-40.03569,0.18028l-0.62982,-139.86985l9.18053,0.55758l3.75725,-13.24128l13.85407,-1.96945l7.13477,-8.28221l11.03947,-6.10201l10.43631,-11.53389l-10.45432,7.53393l-11.04848,4.10203l-7.14377,6.28224l-13.86308,-0.03053l-3.76625,11.2413l-9.18673,-1.93531l-1.14328,-253.89984l9.54733,-4.98094l-9.56043,2.07131z" fill="#d0d0ce" stroke="none" stroke-width="1"/><path d="M539.29811,770.26004l-10.36739,0.04668" fill="none" stroke="none" stroke-width="1"/><path d="" fill="none" stroke="#00bb31" stroke-width="6" opacity="0"/><path d="M645.44714,318.03811l38.53755,0.10151l-0.80174,6.02396l10.38891,4.98745l-1.13756,16.86771l13.39115,7.43774l-9.39116,-7.4272l3.13755,-16.86244l-8.38891,-4.98218l1.94386,-6.02095l36.32007,0.09567l-0.21614,82.05535l-4.27753,1.51301l-13.77194,7.03374l-11.62926,4.13393l-8.81012,4.1153l8.79959,-0.11531l11.62399,-2.13394l13.76668,-5.03375l4.27497,-0.54167l-0.26139,99.23704l-1.95252,2.27624l-3.17627,12.78559l3.94309,10.75372l-3.16705,10.57166l-8.81502,13.29117l-5.23149,13.47464l-0.53241,13.52751l-0.5404,11.39107l-3.85786,14.56079l8.81837,13.14698l1.27642,15.90774l6.50663,10.28055l6.33079,9.02987l-0.29168,110.73722l-83.99971,-0.22126l0.54611,-207.33045l14.06524,-0.38231l8.42081,-8.3576l5.51117,-11.27891l13.04748,-6.46185l6.35802,-5.96075l6.36066,-6.96074l-6.35012,2.96076l-6.35276,3.96075l-13.04222,4.46186l-5.5059,9.27891l-8.41554,6.35761l-14.06079,-1.30853l0.53375,-202.63496l8.59821,-4.38807l8.89629,-5.30903l-8.88575,1.30904l-8.59353,2.6102z" fill="#d0d0ce" stroke="none" stroke-width="1"/><path d="M683.98469,318.13962l9.14208,0.02408" fill="none" stroke="none" stroke-width="1"/><path d="" fill="none" stroke="#00bb31" stroke-width="6" opacity="0"/><path d="M571.62189,715.03978l-5.18988,74.21877l17.05835,1.19284l1.82762,-26.13618l5.58636,0.39064c3.1922,0.22322 6.12583,-0.1564 8.80088,-1.13886c2.67505,-0.98246 5.00141,-2.47381 6.9791,-4.47406c1.97768,-2.00025 3.56761,-4.42859 4.7698,-7.28502c1.20218,-2.85643 1.92884,-6.08026 2.17996,-9.67149c0.25577,-3.65773 -0.01165,-7.0012 -0.80227,-10.0304c-0.79062,-3.0292 -2.02712,-5.65518 -3.7095,-7.87795c-1.68238,-2.22277 -3.78087,-3.99013 -6.29548,-5.30207c-2.51461,-1.31194 -5.36802,-2.07952 -8.56022,-2.30274zM558.96637,804.27434l7.29653,-104.3452l317.42488,22.19651l-7.29653,104.3452zM662.86709,776.35408l5.31645,20.01962l19.05347,1.33235l-16.55701,-75.73946l-22.34543,-1.56255l-26.93678,72.69807l19.05347,1.33235l7.95115,-19.09186zM759.17091,728.05424l-17.25786,-1.20679l-3.03441,43.39404c-0.12556,1.79562 -0.42703,3.47869 -0.90442,5.04921c-0.47738,1.57053 -1.14033,2.92759 -1.98884,4.07118c-0.84851,1.1436 -1.89571,2.02269 -3.14162,2.63728c-1.24591,0.61459 -2.70016,0.86375 -4.36277,0.74749c-1.66261,-0.11626 -3.06803,-0.56539 -4.21628,-1.3474c-1.14825,-0.782 -2.07954,-1.79944 -2.79389,-3.05233c-0.71434,-1.25288 -1.1986,-2.69016 -1.45276,-4.31184c-0.25416,-1.62168 -0.31846,-3.33033 -0.1929,-5.12594l3.03441,-43.39404l-17.25786,-1.20679l-3.12509,44.69087c-0.27438,3.92375 -0.05497,7.71496 0.65822,11.37362c0.71319,3.65866 2.03735,6.94236 3.9725,9.8511c1.93514,2.90874 4.54277,5.27975 7.82288,7.11302c3.28011,1.83327 7.34989,2.8864 12.20935,3.15938l0.09976,0.00698c4.38463,0.37343 8.28955,-0.03851 11.71474,-1.23583c3.4252,-1.19732 6.34359,-3.03154 8.75517,-5.50267c2.41159,-2.47113 4.32718,-5.49487 5.74678,-9.07122c1.4196,-3.57635 2.28286,-7.55917 2.58979,-11.94845zM815.2321,787.91068c0.26507,-3.79074 -0.17093,-7.11258 -1.30803,-9.96552c-1.13709,-2.85294 -2.72623,-5.45346 -4.7674,-7.80156c-2.04118,-2.34811 -4.41453,-4.48553 -7.12005,-6.41229c-2.70552,-1.92675 -5.52742,-3.86165 -8.46571,-5.80468c-2.08303,-1.74957 -3.60624,-3.14255 -4.56962,-4.17894c-0.96338,-1.03639 -1.4009,-2.18638 -1.31254,-3.44996c0.11626,-1.66261 0.75212,-2.8712 1.90757,-3.62577c1.15545,-0.75457 2.39822,-1.08535 3.7283,-0.99234c1.26358,0.08836 2.35893,0.43227 3.28603,1.03174c0.92711,0.59947 1.71307,1.30601 2.35789,2.11964c0.64481,0.81363 1.13534,1.6833 1.47159,2.60901c0.33624,0.92571 0.57855,1.76131 0.7269,2.50681l15.06878,-4.76045c-0.19301,-2.01838 -0.75063,-4.07896 -1.67286,-6.18175c-0.92223,-2.10279 -2.27523,-4.0185 -4.05899,-5.74714c-1.78376,-1.72864 -4.01956,-3.20486 -6.70741,-4.42867c-2.68785,-1.22381 -5.86064,-1.9636 -9.51837,-2.21937c-3.06385,-0.14742 -6.05584,0.11117 -8.97598,0.77576c-2.92014,0.66459 -5.53566,1.75145 -7.84656,3.26059c-2.3109,1.50914 -4.21743,3.44754 -5.71958,5.81519c-1.50215,2.36765 -2.36716,5.18083 -2.59503,8.43954c-0.24647,3.52473 0.16407,6.49393 1.23164,8.90761c1.06756,2.41368 2.61693,4.62715 4.64811,6.64041c2.03118,2.01326 4.43394,3.96896 7.20829,5.86712c2.77435,1.89815 5.77833,4.09639 9.01193,6.5947c1.45519,1.17103 2.56472,2.26776 3.3286,3.29021c0.76387,1.02244 1.13953,2.10127 1.12698,3.2365c-0.06371,1.86677 -0.67445,3.19407 -1.83223,3.98189c-1.15778,0.78782 -2.3066,1.20871 -3.44647,1.26266c-1.34404,0.1065 -2.57123,-0.26333 -3.68157,-1.10952c-1.11034,-0.84618 -2.03083,-1.77933 -2.76145,-2.79945c-0.73062,-1.02012 -1.28184,-1.97757 -1.65366,-2.87235c-0.37182,-0.89478 -0.4889,-1.37078 -0.35124,-1.42798l-16.42839,5.56758c0.47903,2.70668 1.39347,5.15977 2.74332,7.35929c1.34986,2.19952 3.0377,4.10523 5.06353,5.71714c2.02583,1.61191 4.3243,2.90873 6.89541,3.89048c2.57111,0.98174 5.35302,1.57725 8.34571,1.78652c3.85725,0.26973 7.34686,0.06264 10.46884,-0.62124c3.12198,-0.68389 5.8183,-1.73169 8.08898,-3.1434c2.27067,-1.41171 4.09442,-3.12199 5.47124,-5.13084c1.37682,-2.00885 2.21544,-4.2057 2.51586,-6.59056zM875.00629,753.09551l1.17191,-16.75908l-45.48892,-3.1809l-5.18988,74.21877l45.48892,3.1809l1.17191,-16.75908l-28.72984,-2.00899l0.83708,-11.97077l21.14836,1.47884l1.17191,-16.75908l-21.14836,-1.47884l0.83708,-11.97077z" fill="#fe5000" stroke="none" stroke-width="1"/></g></svg>