<svg version="1.1" xmlns="http://www.w3.org/2000/svg" xmlns:xlink="http://www.w3.org/1999/xlink" width="294.09788" height="421.28053" viewBox="438.50178,396.36076,294.09788,421.28053"><g fill="none" fill-rule="nonzero" stroke="none" stroke-width="none" stroke-linecap="butt" stroke-linejoin="miter" stroke-miterlimit="10" stroke-dasharray="" stroke-dashoffset="0" font-family="none" font-weight="none" font-size="none" text-anchor="none" style="mix-blend-mode: normal"><path d="M604.95805,407.4875l101.6193,104.99396l-8.25776,0.76492l-12.33959,-7.58134l-13.96603,-2.15875l-8.52685,1.48896l-13.28015,-5.94406l-7.34015,-3.93771l-12.55605,-3.76341l-12.3272,-4.52424l-11.5327,-6.33193l-14.73185,-5.10294l-10.44073,-0.17063l-8.47413,-10.3412l-11.33575,-11.00652l-1.19071,-17.76724l-0.75756,-14.56603l-5.32587,-8.91862z" fill="#d0d0ce" stroke="none" stroke-width="1"/><path d="M587.36996,766.61695l-98.95323,3.04259l71.7853,-92.25089l0.59632,0.26827l14.54026,0.64706l11.07432,-4.73692l15.84133,2.94461l-13.38483,-6.10145l-9.84606,3.1585l-13.31201,-2.22548l-0.53548,-0.34646l67.60728,-86.88174l-155.7992,-186.29979l47.95468,-1.4745l4.68867,9.26947l-0.26365,14.58333l-0.05558,17.80701l10.5377,11.77283l7.72966,10.90888l10.40319,0.90088l14.33862,6.12138l11.06131,7.12348l11.98036,5.37583l12.2619,4.63288l7.04659,4.44173l12.83162,6.85886l8.61014,-0.88859l13.78072,3.13082l11.77878,8.4263l8.29105,-0.18516l61.74595,73.45223z" fill="#d0d0ce" stroke="none" stroke-width="1"/><path d="M560.20202,677.40865l4.97384,-6.39186" fill="none" stroke="none" stroke-width="1"/><path d="" fill="none" stroke="#00bb31" stroke-width="6" opacity="0"/><path d="M492.47964,723.56816l-1.29846,74.38867l17.0974,0.29844l0.45725,-26.19601l5.59915,0.09773c3.19951,0.05585 6.10925,-0.47678 8.72922,-1.5979c2.61997,-1.12111 4.86509,-2.73218 6.73538,-4.83319c1.87029,-2.10101 3.33095,-4.60924 4.38199,-7.52467c1.05104,-2.91543 1.60798,-6.17288 1.67081,-9.77233c0.06399,-3.66611 -0.37805,-6.991 -1.32612,-9.97466c-0.94807,-2.98367 -2.32031,-5.54134 -4.11671,-7.67302c-1.7964,-2.13168 -3.98452,-3.78678 -6.56434,-4.96532c-2.57982,-1.17854 -5.46949,-1.79573 -8.66901,-1.85158zM484.51164,813.34277l1.82552,-104.58407l246.26249,4.29853l-1.82552,104.58407zM565.26314,782.44737l1.00526,-57.59123l-16.79744,-0.2932l-1.29846,74.38867l36.69441,0.6405l0.2932,-16.79744zM636.00124,780.88168l6.35691,19.71395l19.09709,0.33334l-20.49822,-74.76913l-22.39659,-0.39093l-23.09514,74.00821l19.09709,0.33334l6.94106,-19.48183zM727.54383,727.67122l-18.79714,-0.32811l-8.90585,17.44723l-8.39151,-17.74916l-18.79714,-0.32811l18.44786,37.52768l-0.64923,37.19433l15.79759,0.27575l0.64923,-37.19433z" fill="#00bb31" stroke="none" stroke-width="1"/><path d="M534.27743,652.10422l-20,-20h-34.5" fill="none" stroke="#00bb31" stroke-width="6"/><path d="M562.68894,674.21272l-28.41151,-22.1085v-18l-20,-20h-69l34.5,38h34.5" fill="none" stroke="#00bb31" stroke-width="6"/><path d="M473.77743,632.10422c0,-3.31371 2.68629,-6 6,-6c3.31371,0 6,2.68629 6,6c0,3.31371 -2.68629,6 -6,6c-3.31371,0 -6,-2.68629 -6,-6z" fill="#00bb31" stroke="none" stroke-width="1"/><path d="M508.27743,652.10422c0,-3.31371 2.68629,-6 6,-6c3.31371,0 6,2.68629 6,6c0,3.31371 -2.68629,6 -6,6c-3.31371,0 -6,-2.68629 -6,-6z" fill="#00bb31" stroke="none" stroke-width="1"/><path d="M534.27743,652.10422l25.92459,25.30443l0.59632,0.26827l14.54026,0.64706l11.07432,-4.73692l15.84133,2.94461l-13.38483,-6.10145l-9.84606,3.1585l-13.31201,-2.22548l-0.53548,-0.34646" fill="#00bb31" stroke="none" stroke-width="1"/></g></svg>