<svg version="1.1" xmlns="http://www.w3.org/2000/svg" xmlns:xlink="http://www.w3.org/1999/xlink" width="653.5" height="653.5" viewBox="606,144.96875,653.5,653.5"><g fill="none" fill-rule="nonzero" stroke="none" stroke-width="none" stroke-linecap="none" stroke-linejoin="miter" stroke-miterlimit="10" stroke-dasharray="none" stroke-dashoffset="0" font-family="none" font-weight="none" font-size="none" text-anchor="none" style="mix-blend-mode: normal"><g stroke="none"><path d="M659,797.96875v-600h600v600z" fill="#000000" stroke-width="1" stroke-linecap="butt" stroke-dasharray=""/><path transform="translate(658.5,197.46875) scale(1.01,1.01)" d="M0,100v-100h100v100z" fill="#12002f" stroke-width="3" stroke-linecap="round" stroke-dasharray="4,10"/><path transform="translate(657.5,197.46875) scale(1.01,1.01)" d="M100,100v-100h100v100z" fill="#12002f" stroke-width="3" stroke-linecap="round" stroke-dasharray="4,10"/><path transform="translate(656.5,197.46875) scale(1.01,1.01)" d="M200,100v-100h100v100z" fill="#12002f" stroke-width="3" stroke-linecap="round" stroke-dasharray="4,10"/><path transform="translate(655.5,197.46875) scale(1.01,1.01)" d="M300,100v-100h100v100z" fill="#12002f" stroke-width="3" stroke-linecap="round" stroke-dasharray="4,10"/><path transform="translate(654.5,197.46875) scale(1.01,1.01)" d="M400,100v-100h100v100z" fill="none" stroke-width="3" stroke-linecap="round" stroke-dasharray="4,10"/><path transform="translate(653.5,197.46875) scale(1.01,1.01)" d="M500,100v-100h100v100z" fill="none" stroke-width="3" stroke-linecap="round" stroke-dasharray="4,10"/><path transform="translate(658.5,196.46875) scale(1.01,1.01)" d="M0,200v-100h100v100z" fill="#41008b" stroke-width="3" stroke-linecap="round" stroke-dasharray="4,10"/><path transform="translate(657.5,196.46875) scale(1.01,1.01)" d="M100,200v-100h100v100z" fill="#43008c" stroke-width="3" stroke-linecap="round" stroke-dasharray="4,10"/><path transform="translate(656.5,196.46875) scale(1.01,1.01)" d="M200,200v-100h100v100z" fill="#41008b" stroke-width="3" stroke-linecap="round" stroke-dasharray="4,10"/><path transform="translate(655.5,196.46875) scale(1.01,1.01)" d="M300,200v-100h100v100z" fill="#2a005e" stroke-width="3" stroke-linecap="round" stroke-dasharray="4,10"/><path transform="translate(654.5,196.46875) scale(1.01,1.01)" d="M400,200v-100h100v100z" fill="none" stroke-width="3" stroke-linecap="round" stroke-dasharray="4,10"/><path transform="translate(653.5,196.46875) scale(1.01,1.01)" d="M500,200v-100h100v100z" fill="none" stroke-width="3" stroke-linecap="round" stroke-dasharray="4,10"/><path transform="translate(658.5,195.46875) scale(1.01,1.01)" d="M0,300v-100h100v100z" fill="#6800e7" stroke-width="3" stroke-linecap="round" stroke-dasharray="4,10"/><path transform="translate(657.5,195.46875) scale(1.01,1.01)" d="M100,300v-100h100v100z" fill="#6800e7" stroke-width="3" stroke-linecap="round" stroke-dasharray="4,10"/><path transform="translate(656.5,195.46875) scale(1.01,1.01)" d="M200,300v-100h100v100z" fill="#41008b" stroke-width="3" stroke-linecap="round" stroke-dasharray="4,10"/><path transform="translate(655.5,195.46875) scale(1.01,1.01)" d="M300,300v-100h100v100z" fill="#12002f" stroke-width="3" stroke-linecap="round" stroke-dasharray="4,10"/><path transform="translate(654.5,195.46875) scale(1.01,1.01)" d="M400,300v-100h100v100z" fill="none" stroke-width="3" stroke-linecap="round" stroke-dasharray="4,10"/><path transform="translate(653.5,195.46875) scale(1.01,1.01)" d="M500,300v-100h100v100z" fill="none" stroke-width="3" stroke-linecap="round" stroke-dasharray="4,10"/><path transform="translate(658.5,194.46875) scale(1.01,1.01)" d="M0,400v-100h100v100z" fill="#6800e7" stroke-width="3" stroke-linecap="round" stroke-dasharray="4,10"/><path transform="translate(657.5,194.46875) scale(1.01,1.01)" d="M100,400v-100h100v100z" fill="#6800e7" stroke-width="3" stroke-linecap="round" stroke-dasharray="4,10"/><path transform="translate(656.5,194.46875) scale(1.01,1.01)" d="M200,400v-100h100v100z" fill="#2a005e" stroke-width="3" stroke-linecap="round" stroke-dasharray="4,10"/><path transform="translate(655.5,194.46875) scale(1.01,1.01)" d="M300,400v-100h100v100z" fill="none" stroke-width="3" stroke-linecap="round" stroke-dasharray="4,10"/><path transform="translate(654.5,194.46875) scale(1.01,1.01)" d="M400,400v-100h100v100z" fill="none" stroke-width="3" stroke-linecap="round" stroke-dasharray="4,10"/><path transform="translate(653.5,194.46875) scale(1.01,1.01)" d="M500,400v-100h100v100z" fill="none" stroke-width="3" stroke-linecap="round" stroke-dasharray="4,10"/><path transform="translate(658.5,193.46875) scale(1.01,1.01)" d="M0,500v-100h100v100z" fill="#6800e7" stroke-width="3" stroke-linecap="round" stroke-dasharray="4,10"/><path transform="translate(657.5,193.46875) scale(1.01,1.01)" d="M100,500v-100h100v100z" fill="#2a005e" stroke-width="3" stroke-linecap="round" stroke-dasharray="4,10"/><path transform="translate(656.5,193.46875) scale(1.01,1.01)" d="M200,500v-100h100v100z" fill="none" stroke-width="3" stroke-linecap="round" stroke-dasharray="4,10"/><path transform="translate(655.5,193.46875) scale(1.01,1.01)" d="M300,500v-100h100v100z" fill="none" stroke-width="3" stroke-linecap="round" stroke-dasharray="4,10"/><path transform="translate(654.5,193.46875) scale(1.01,1.01)" d="M400,500v-100h100v100z" fill="none" stroke-width="3" stroke-linecap="round" stroke-dasharray="4,10"/><path transform="translate(653.5,193.46875) scale(1.01,1.01)" d="M500,500v-100h100v100z" fill="none" stroke-width="3" stroke-linecap="round" stroke-dasharray="4,10"/><path transform="translate(658.5,192.46875) scale(1.01,1.01)" d="M0,600v-100h100v100z" fill="#2a005e" stroke-width="3" stroke-linecap="round" stroke-dasharray="4,10"/><path transform="translate(657.5,192.46875) scale(1.01,1.01)" d="M100,600v-100h100v100z" fill="#12002f" stroke-width="3" stroke-linecap="round" stroke-dasharray="4,10"/><path transform="translate(656.5,192.46875) scale(1.01,1.01)" d="M200,600v-100h100v100z" fill="none" stroke-width="3" stroke-linecap="round" stroke-dasharray="4,10"/><path transform="translate(655.5,192.46875) scale(1.01,1.01)" d="M300,600v-100h100v100z" fill="none" stroke-width="3" stroke-linecap="round" stroke-dasharray="4,10"/><path transform="translate(654.5,192.46875) scale(1.01,1.01)" d="M400,600v-100h100v100z" fill="none" stroke-width="3" stroke-linecap="round" stroke-dasharray="4,10"/><path transform="translate(653.5,192.46875) scale(1.01,1.01)" d="M500,600v-100h100v100z" fill="none" stroke-width="3" stroke-linecap="round" stroke-dasharray="4,10"/></g><path d="M759,297.96875v-100h100v100z" fill="none" stroke="none" stroke-width="3" stroke-linecap="round" stroke-dasharray="4,10"/><g stroke-linecap="butt" stroke-dasharray=""><path d="M609,747.96875v-600h600v600z" fill="none" stroke="#ffffff" stroke-width="6"/><g fill="#ffffff" stroke="none" stroke-width="1"><path d="M1184,722.96875h-22.95v-73.05l-4.95,6.15h-30.45l34.5,-41.1h23.85z"/><path d="M1091.675,722.96875h-85.5c-6.1,0 -11.32667,-2.17333 -15.68,-6.52c-4.34667,-4.35333 -6.52,-9.58 -6.52,-15.68v0v-63.6c0,-6.1 2.17333,-11.32333 6.52,-15.67c4.35333,-4.35333 9.58,-6.53 15.68,-6.53v0h85.5v23.4h-79.5c-3.3,0 -4.95,0 -4.95,0c0,0 0,1.65 0,4.95v0v51.3c0,3.3 0,4.95 0,4.95c0,0 1.65,0 4.95,0v0h79.5z"/><path d="M890.075,722.96875h-23.25v-107.85h85.65c6.1,0 11.35,2.2 15.75,6.6c4.4,4.4 6.6,9.6 6.6,15.6v0v27.9c0,6 -2.2,11.2 -6.6,15.6c-4.4,4.4 -9.65,6.6 -15.75,6.6v0h-1.05l23.4,27.6v7.95h-24l-29.85,-35.55l-30.9,0.15zM895.025,664.01875v0h51.3c3.3,0 4.95,0 4.95,0c0,0 0,-1.65 0,-4.95v0v-15.75c0,-3.3 0,-4.95 0,-4.95c0,0 -1.65,0 -4.95,0v0h-51.3c-3.3,0 -4.95,0 -4.95,0c0,0 0,1.65 0,4.95v0v15.75c0,3.3 0,4.95 0,4.95c0,0 1.65,0 4.95,0z"/></g></g></g></svg>