<svg version="1.1" xmlns="http://www.w3.org/2000/svg" xmlns:xlink="http://www.w3.org/1999/xlink" width="966.9785" height="374.67984" viewBox="422.33809,396.92243,966.9785,374.67984"><g fill="none" fill-rule="nonzero" stroke="none" stroke-width="none" stroke-linecap="butt" stroke-linejoin="miter" stroke-miterlimit="10" stroke-dasharray="" stroke-dashoffset="0" font-family="none" font-weight="none" font-size="none" text-anchor="none" style="mix-blend-mode: normal"><path d="M530.72136,741.27254c13.15298,-5.60993 26.32463,-8.61119 39.51496,-9.00377c13.19033,-0.39258 27.71434,3.30486 43.57204,11.09232c2.94927,1.44834 5.76642,2.98207 8.45147,4.60122l-0.15935,0.08462l-12.46366,8.73864l-6.30788,9.30624l-11.9831,-3.77468l-12.27944,7.99012l-9.53878,-5.49267l-14.49157,5.48161l-13.71387,-5.80354l-8.15261,-0.58046l-13.7503,3.7315l-11.33842,-5.74215l-8.3725,-4.2622l-0.26639,-0.07856c10.68586,-6.52242 21.11233,-11.95182 31.2794,-16.28823z" fill="#d0d0ce" stroke="none" stroke-width="1"/><path d="M642.60616,769.86331l-3.0107,-66.25647l6.97761,2.1015l9.26962,12.35806l6.75843,7.42708l1.04074,17.64323l7.0849,7.05155l-3.1185,15.50292l0.38967,3.97817c-8.2145,1.05796 -16.67842,1.12261 -25.39178,0.19396z" fill="#d0d0ce" stroke="none" stroke-width="1"/><path d="M934.56304,580.7402l-0.00869,-10.29122" fill="none" stroke="none" stroke-width="1"/><path d="" fill="none" stroke="#00bb31" stroke-width="6" opacity="0"/><path d="M744.88931,414.76854l16.32225,-7.12153" fill="none" stroke="none" stroke-width="1"/><path d="" fill="none" stroke="#00bb31" stroke-width="6" opacity="0"/><path d="M1118.03056,542.20251l-0.12158,-143.99995l18.64159,-0.01574l-3.6693,7.32666l4.26979,11.12779l-0.15945,12.96937l1.53453,14.21837l-7.2725,11.27219l2.78602,11.37949l-5.90729,8.46145l-1.32046,14.04053l-0.648,8.05506l-3.76932,11.97463l1.53025,12.32595l1.90479,8.18756l3.1138,8.08094l2.90008,14.97986l-1.06168,14.48614l2.68991,15.34998l1.88673,15.51668l13.15736,9.67233l9.83955,11.12411l12.25977,11.7052l10.81977,2.60394l8.81684,-0.21165l8.57966,-2.03869l3.26964,-5.11125l0.12196,144.44802l-83.99997,0.07092l-0.12158,-143.99995l-99.49996,0.08401l0.09296,110.09892l-5.15034,0.04836l-8.90745,7.53011l-8.7232,16.59028l8.72658,-12.59028l8.90914,-5.53011l5.15082,0.52365l0.02307,27.32902l-83.99997,0.07092l-0.1601,-189.61717l1.9527,-1.13473l12.09858,-8.32146l8.92659,-0.45137l7.49771,-6.36392l9.33722,-8.14694l-9.34059,4.14694l-7.4994,4.36392l-8.92827,-1.54863l-12.10027,6.32146l-1.95294,0.8435l-0.1453,-172.09148l83.99997,-0.07092l0.12158,143.99995z" fill="#d0d0ce" stroke="none" stroke-width="1"/><path d="M1018.69448,736.38541l0.00555,6.57201" fill="none" stroke="none" stroke-width="1"/><path d="" fill="none" stroke="#00bb31" stroke-width="6" opacity="0"/><path d="M1207.71782,398.62944l-3.36952,128.96941l-0.98071,1.02912l-9.19655,11.04472l-14.27244,2.42873l-7.34589,13.25999l7.24142,-9.26135l14.22021,-0.42941l9.14431,-9.0454l0.97543,-0.82707l-2.35937,90.30557l-3.40626,5.02124l-8.63151,1.80662l-8.81934,-0.02615l-10.74563,-2.89471l-11.93972,-12.03149l-9.53605,-11.38536l-12.8918,-10.02356l-1.46768,-15.5619l-2.27507,-15.41692l1.45186,-14.45225l-2.49515,-15.05261l-2.89479,-8.16196l-1.68335,-8.23594l-1.19737,-12.36272l4.09081,-11.86865l0.86494,-8.03466l1.69853,-13.99983l6.13327,-8.29911l-2.4782,-11.45047l7.57378,-11.07202l-1.15063,-14.25458l0.50907,-12.96036l-3.96822,-11.23887l3.86551,-7.22507z" fill="#d0d0ce" stroke="none" stroke-width="1"/><path d="M1204.34829,527.59885l-0.21422,8.19932" fill="none" stroke="none" stroke-width="1"/><path d="" fill="none" stroke="#00bb31" stroke-width="6" opacity="0"/><path d="M818.11857,662.74424l-5.45183,-15.13586" fill="none" stroke="none" stroke-width="1"/><path d="" fill="none" stroke="#00bb31" stroke-width="6" opacity="0"/><path d="M913.18361,700.79022c-2.25839,11.80441 -7.14244,22.49937 -14.65216,32.08488c-7.50972,9.58551 -17.15448,17.53889 -28.93428,23.86016c-11.7798,6.32127 -25.56768,10.69115 -41.36363,13.10964c-15.79595,2.41849 -33.27453,2.34074 -52.43575,-0.23327c-14.86646,-1.99707 -28.55814,-5.85429 -41.07504,-11.57166c-12.5169,-5.71737 -23.57303,-12.92015 -33.16839,-21.60834c-9.59536,-8.68819 -17.41068,-18.73481 -23.44597,-30.13987c-2.18731,-4.13342 -4.07863,-8.41483 -5.67398,-12.84423l3.80021,-1.2394l15.81057,-0.30226l5.35554,-8.44028l17.00239,-4.8255l5.79271,-8.20259l10.0652,-11.71918l0.54541,-7.26677l19.70423,-5.30574c-0.70511,0.24161 -0.27244,2.65402 1.298,7.23724c0.66296,1.9348 1.4819,3.9355 2.4568,6.00211l-3.38509,4.62693l0.0804,12.20759l-2.16696,9.38813l-2.12926,12.55018l-8.75827,13.57796l5.72435,13.59635l-3.41588,-10.32971l9.9125,-11.94463l3.2835,-10.91686l3.32119,-7.75481l1.07383,-10.57427l2.93707,-3.14654c3.06471,4.40927 6.82828,8.55085 11.29071,12.42473c5.27104,4.57585 11.27679,6.81201 18.01724,6.7085c5.70498,0.09372 11.57145,-1.64067 17.59942,-5.20317c6.02797,-3.5625 9.49808,-9.99106 10.41033,-19.28568c0.06434,-0.85884 0.08368,-1.71405 0.05801,-2.56563l4.71904,-5.64545l-3.97506,-11.08881l9.52651,-7.38641l3.30464,-11.16641l-5.54597,-16.70416l6.0268,-13.53069l-1.9151,-10.15353l-0.36002,6.86357l-7.16437,11.88571l4.4084,15.05919l-4.4422,9.52143l-10.66407,5.74144l2.83749,9.44383l-2.20792,2.02443c-3.46129,-5.01581 -8.38156,-10.44395 -14.76079,-16.28442c-15.33976,-13.49578 -29.62926,-25.42109 -42.8685,-35.77592c-3.00549,-2.35069 -5.91448,-4.71008 -8.72698,-7.07818l-0.01004,-0.27755l1.38468,-9.29235l1.84682,-12.57463l-7.90252,-11.85517l-2.03694,-7.91536l1.15114,-14.84676l-9.79741,-12.00269l2.18139,-10.78885l-11.47416,-9.10879l-0.22354,-12.56157l-10.82706,-3.02826l-12.24246,-9.04593l-0.13082,-0.12426c2.71334,-12.15177 7.36494,-22.75543 13.95481,-31.81098c8.24935,-11.33595 18.37981,-20.40124 30.39136,-27.19587c0.76557,-0.43306 1.53676,-0.85717 2.31359,-1.27232l2.87351,9.12238l10.19464,5.53967l11.97275,-2.81726l6.96486,10.5962l5.62991,7.03539l15.35369,2.29439l4.47374,-2.07353l9.5742,9.83043l8.96579,8.5291l-5.26846,-10.05546l-7.87831,-10.75047l-0.06512,-0.02311l4.54359,-2.10591l15.35369,2.29439l8.27117,-6.97049l7.50153,-4.87105l-7.94964,0.89623l-8.49523,4.98308l-15.57775,-4.2818l-14.56949,4.66154l-4.87151,-0.72798l-5.74849,-2.48066l-5.1162,-11.35938l-10.12408,2.05408l-8.34598,-6.30285l-1.34057,-10.13845c6.82411,-2.36695 14.00927,-4.15953 21.55549,-5.37776c14.78266,-2.38645 29.7946,-2.72413 45.03581,-1.01304c18.17012,2.44086 33.76633,7.1425 46.78864,14.10491c13.0223,6.96241 23.70862,15.04041 32.05894,24.234c8.35032,9.19359 14.49163,19.1835 18.42391,29.96973c3.93228,10.78623 6.05865,21.24578 6.3791,31.37865l-76.70667,18.95619c-0.50293,-3.76716 -1.44592,-8.01385 -2.829,-12.74007c-1.38307,-4.72621 -3.55385,-9.22192 -6.51233,-13.48711c-2.95848,-4.26519 -6.65535,-8.041 -11.09062,-11.32743c-4.43527,-3.28643 -9.79138,-5.35124 -16.06833,-6.19445c-6.60732,-0.88759 -12.91386,0.36728 -18.91964,3.76459c-6.00578,3.39731 -9.56341,9.22554 -10.67289,17.48469c-0.84321,6.27695 0.97377,12.15452 5.45095,17.6327c4.47717,5.47818 11.63424,12.91392 21.47121,22.30722c14.04297,10.63096 27.50779,21.18426 40.39448,31.65989c12.88669,10.47563 24.04881,21.89674 33.48636,34.26333c9.43756,12.36659 16.53912,25.84877 21.3047,40.44654c4.76558,14.59777 5.88355,31.31208 3.35393,50.14293z" fill="#d0d0ce" stroke="none" stroke-width="1"/><path d="M754.26547,659.38517l6.47739,11.28033" fill="none" stroke="none" stroke-width="1"/><path d="" fill="none" stroke="#00bb31" stroke-width="6" opacity="0"/><path d="M478.02657,662.83547c0.06632,-3.79942 -0.54294,-7.09389 -1.82779,-9.8834c-1.28485,-2.78952 -3.0079,-5.3033 -5.16917,-7.54136c-2.16127,-2.23806 -4.64323,-4.24835 -7.44588,-6.03087c-2.80265,-1.78252 -5.72195,-3.56707 -8.7579,-5.35366c-2.17174,-1.63815 -3.76576,-2.9495 -4.78207,-3.93406c-1.01631,-0.98455 -1.5134,-2.11007 -1.4913,-3.37654c0.02909,-1.66641 0.60082,-2.90662 1.7152,-3.72063c1.11438,-0.81401 2.33813,-1.20938 3.67126,-1.18611c1.26647,0.02211 2.37832,0.30822 3.33553,0.85834c0.95721,0.55012 1.77907,1.21457 2.46559,1.99333c0.68651,0.77877 1.22189,1.62157 1.60612,2.52842c0.38423,0.90684 0.66993,1.72862 0.8571,2.46533l14.79899,-5.54257c-0.29838,-2.00551 -0.96308,-4.03409 -1.99409,-6.08573c-1.03102,-2.05164 -2.48242,-3.89392 -4.35421,-5.52683c-1.87179,-1.63292 -4.18179,-2.9901 -6.93,-4.07157c-2.74821,-1.08146 -5.95537,-1.65419 -9.62148,-1.71818c-3.06736,0.01314 -6.04172,0.42796 -8.92308,1.24446c-2.88136,0.8165 -5.43641,2.03877 -7.66516,3.66678c-2.22875,1.62802 -4.03122,3.66354 -5.4074,6.10656c-1.37618,2.44302 -2.09277,5.29762 -2.14979,8.56379c-0.06167,3.5328 0.50371,6.47644 1.69614,8.83095c1.19242,2.3545 2.85551,4.48385 4.98927,6.38805c2.13376,1.9042 4.63558,3.73147 7.50547,5.48182c2.86989,1.75035 5.9848,3.78836 9.34472,6.11402c1.51448,1.09326 2.67989,2.13043 3.49623,3.11149c0.81634,0.98106 1.24794,2.03876 1.29482,3.17308c0.03408,1.86755 -0.50636,3.22499 -1.62132,4.07232c-1.11496,0.84734 -2.24018,1.32777 -3.37567,1.44131c-1.33662,0.1767 -2.58149,-0.12841 -3.73459,-0.91532c-1.15311,-0.78691 -2.12117,-1.67061 -2.90417,-2.65109c-0.78301,-0.98048 -1.38358,-1.90777 -1.80172,-2.78187c-0.41814,-0.8741 -0.55997,-1.34331 -0.4255,-1.40764l-16.11449,6.41974c0.62003,2.6779 1.6616,5.07977 3.12472,7.20563c1.46312,2.12586 3.24839,3.94063 5.3558,5.4443c2.10741,1.50368 4.4706,2.67843 7.08957,3.52427c2.61897,0.84584 5.42823,1.29493 8.42777,1.34729c3.86608,0.06748 7.34007,-0.32195 10.42198,-1.16829c3.08191,-0.84634 5.7197,-2.03382 7.91338,-3.56244c2.19368,-1.52861 3.92542,-3.332 5.19521,-5.41016c1.2698,-2.07816 1.99229,-4.31589 2.16749,-6.71319zM422.33809,696.06863l1.82552,-104.58407l965.15298,16.84681l-1.82552,104.58407zM516.38233,665.7053c-3.39483,-0.32596 -6.1036,-1.75679 -8.12632,-4.29248c-2.02272,-2.53569 -3.00209,-5.63659 -2.93809,-9.30269l0.25306,-14.49779c0.06399,-3.66611 1.13373,-6.6979 3.20922,-9.09538c2.07549,-2.39748 4.8153,-3.69986 8.21944,-3.90715c1.40095,-0.04222 2.72943,0.24767 3.98543,0.86969c1.256,0.62201 2.3752,1.44167 3.3576,2.45897c0.9824,1.0173 1.81249,2.1653 2.49027,3.44399c0.67779,1.27869 1.20618,2.52143 1.58517,3.72823l14.63916,-7.84571c-0.69366,-2.27912 -1.67062,-4.56318 -2.93086,-6.85219c-1.26024,-2.28901 -2.9245,-4.3517 -4.99276,-6.18808c-2.06827,-1.83638 -4.55895,-3.34674 -7.47206,-4.5311c-2.91311,-1.18435 -6.40268,-1.81202 -10.46873,-1.88299l-0.09998,-0.00175c-4.5993,-0.08028 -8.64685,0.6992 -12.14266,2.33844c-3.49581,1.63924 -6.41797,3.83858 -8.76649,6.59801c-2.34852,2.75943 -4.13714,5.91203 -5.36588,9.45779c-1.22874,3.54576 -1.90843,7.15112 -2.03908,10.81606l-0.26877,15.39765c0.13249,3.86957 0.66753,7.59614 1.60513,11.17972c0.9376,3.58358 2.46601,6.74406 4.58522,9.48147c2.11922,2.7374 4.88127,4.93594 8.28615,6.59562c3.40489,1.65968 7.64028,2.53373 12.70617,2.62215l0.09998,0.00175c4.53264,0.07912 8.36007,-0.50417 11.48229,-1.74987c3.12222,-1.2457 5.69888,-2.75096 7.72999,-4.51578c2.03111,-1.76482 3.61287,-3.57082 4.74528,-5.41801c1.13241,-1.84718 2.00904,-3.36545 2.62989,-4.5548l-14.35643,-8.35183c-1.04057,2.31553 -2.52525,4.28991 -4.45405,5.92317c-1.9288,1.63325 -4.32457,2.32488 -7.18731,2.07488zM590.88163,609.09687l-0.50263,28.79561l-19.89697,-0.3473l0.50263,-28.79561l-16.79744,-0.2932l-1.29846,74.38867l16.79744,0.2932l0.50263,-28.79561l19.89697,0.3473l-0.50263,28.79561l16.79744,0.2932l1.29846,-74.38867zM657.3715,610.25746l-0.63701,36.49444l-19.25996,-36.84174l-17.0974,-0.29844l-1.29846,74.38867l17.79729,0.31065l0.63876,-36.59443l19.3582,36.94347l16.99741,0.29669l1.29846,-74.38867zM731.36698,628.35161l0.2932,-16.79744l-45.59305,-0.79583l-1.29846,74.38867l45.59305,0.79583l0.2932,-16.79744l-28.79561,-0.50263l0.20943,-11.99817l21.19677,0.36999l0.2932,-16.79744l-21.19677,-0.36999l0.20943,-11.99817zM758.65741,686.43675l1.29846,-74.38867l-16.79744,-0.2932l-1.29846,74.38867zM822.597,650.34715c0.09192,-5.26586 -0.5555,-10.19458 -1.94224,-14.78615c-1.38674,-4.59157 -3.51776,-8.5627 -6.39306,-11.91339c-2.87529,-3.35069 -6.49603,-6.01429 -10.8622,-7.99079c-4.36617,-1.9765 -9.44881,-3.01536 -15.24793,-3.11659l-14.99772,-0.26179l-1.29846,74.38867l17.19738,0.30018c6.06574,0.10588 11.21575,-0.80438 15.45001,-2.73078c4.23427,-1.9264 7.68087,-4.56665 10.33981,-7.92075c2.65894,-3.35411 4.59426,-7.27093 5.80596,-11.75046c1.2117,-4.47954 1.86118,-9.21892 1.94844,-14.21816zM882.34398,630.98693l0.2932,-16.79744l-45.59305,-0.79583l-1.29846,74.38867l45.59305,0.79583l0.2932,-16.79744l-28.79561,-0.50263l0.20943,-11.99817l21.19677,0.36999l0.2932,-16.79744l-21.19677,-0.36999l0.20943,-11.99817zM939.12992,689.5869l-14.57936,-29.95901c0.86653,0.01513 2.07421,-0.41386 3.62301,-1.28697c1.54881,-0.8731 3.08851,-2.17976 4.61912,-3.91998c1.5306,-1.74022 2.86851,-3.90053 4.01372,-6.48094c1.14521,-2.58041 1.7469,-5.53702 1.80508,-8.86985c0.05585,-3.19951 -0.25753,-6.25545 -0.94014,-9.1678c-0.68261,-2.91236 -1.85488,-5.46654 -3.51681,-7.66254c-1.66193,-2.19601 -3.898,-3.96863 -6.70821,-5.31788c-2.81021,-1.34925 -6.34833,-2.06111 -10.61435,-2.13557l-22.69654,-0.39617l-1.29846,74.38867l16.79744,0.2932l0.42235,-24.19631l0.19997,0.00349l9.57613,24.37084zM951.55343,659.69917l51.69213,0.90229l0.2932,-16.79744l-51.69213,-0.90229zM1051.11152,617.13022l-0.50263,28.79561l-19.89697,-0.3473l0.50263,-28.79561l-16.79744,-0.2932l-1.29846,74.38867l16.79744,0.2932l0.50263,-28.79561l19.89697,0.3473l-0.50263,28.79561l16.79744,0.2932l1.29846,-74.38867zM1135.82035,646.01299c-0.00732,-3.40065 -0.58296,-6.7112 -1.72693,-9.93165c-1.14397,-3.22046 -2.89367,-6.1181 -5.24909,-8.69293c-2.68289,-2.91393 -5.76068,-5.16799 -9.23339,-6.76217c-3.47271,-1.59418 -7.17543,-2.4256 -11.10816,-2.49424l-0.09998,-0.00175c-3.93273,-0.06865 -7.64555,0.63333 -11.13845,2.10593c-3.4929,1.4726 -6.66415,3.61758 -9.51375,6.43494c-2.37719,2.49223 -4.22782,5.37703 -5.55189,8.65442c-1.32407,3.27739 -2.01402,6.51584 -2.06987,9.71536l-0.30367,17.39735c-0.00315,4.00055 0.51435,7.77683 1.55252,11.32882c1.03817,3.55199 2.83262,6.75046 5.38336,9.59541c2.74954,2.9151 5.86067,5.16974 9.33337,6.76392c3.47271,1.59418 7.1421,2.42502 11.00818,2.4925l0.09998,0.00175c3.93273,0.06865 7.66222,-0.63304 11.18844,-2.10506c3.52623,-1.47202 6.6814,-3.65062 9.46551,-6.5358c2.71513,-2.75303 4.65489,-5.96967 5.8193,-9.64991c1.16441,-3.68024 1.77802,-7.32008 1.84085,-10.91954zM1201.21039,647.15438c-0.00732,-3.40065 -0.58296,-6.7112 -1.72693,-9.93165c-1.14397,-3.22046 -2.89367,-6.1181 -5.24909,-8.69293c-2.68289,-2.91393 -5.76068,-5.16799 -9.23339,-6.76217c-3.47271,-1.59418 -7.17543,-2.4256 -11.10816,-2.49424l-0.09998,-0.00175c-3.93273,-0.06865 -7.64555,0.63333 -11.13845,2.10593c-3.4929,1.4726 -6.66415,3.61758 -9.51375,6.43494c-2.37719,2.49223 -4.22782,5.37703 -5.55189,8.65442c-1.32407,3.27739 -2.01402,6.51584 -2.06987,9.71536l-0.30367,17.39735c-0.00315,4.00055 0.51435,7.77683 1.55252,11.32882c1.03817,3.55199 2.83262,6.75046 5.38336,9.59541c2.74954,2.9151 5.86067,5.16974 9.33337,6.76392c3.47271,1.59418 7.1421,2.42502 11.00818,2.4925l0.09998,0.00175c3.93273,0.06865 7.66222,-0.63304 11.18844,-2.10506c3.52623,-1.47202 6.6814,-3.65062 9.46551,-6.5358c2.71513,-2.75303 4.65489,-5.96967 5.8193,-9.64991c1.16441,-3.68024 1.77802,-7.32008 1.84085,-10.91954zM1251.58098,620.62942l-11.58473,33.40291l-10.61189,-33.79035l-19.79698,-0.34556l21.59805,74.78833l14.99772,0.26179l25.19482,-73.97156zM1324.17668,638.69915l0.2932,-16.79744l-45.59305,-0.79583l-1.29846,74.38867l45.59305,0.79583l0.2932,-16.79744l-28.79561,-0.50263l0.20943,-11.99817l21.19677,0.36999l0.2932,-16.79744l-21.19677,-0.36999l0.20943,-11.99817zM1380.96262,697.29912l-14.57936,-29.95901c0.86653,0.01513 2.07421,-0.41386 3.62301,-1.28697c1.54881,-0.8731 3.08851,-2.17976 4.61912,-3.91998c1.5306,-1.74022 2.86851,-3.90053 4.01372,-6.48094c1.14521,-2.58041 1.7469,-5.53702 1.80508,-8.86985c0.05585,-3.19951 -0.25753,-6.25545 -0.94014,-9.1678c-0.68261,-2.91236 -1.85488,-5.46654 -3.51681,-7.66254c-1.66193,-2.19601 -3.898,-3.96863 -6.70821,-5.31788c-2.81021,-1.34925 -6.34833,-2.06111 -10.61435,-2.13557l-22.69654,-0.39617l-1.29846,74.38867l16.79744,0.2932l0.42235,-24.19631l0.19997,0.00349l9.57613,24.37084z" fill="#fe5000" stroke="none" stroke-width="1"/></g></svg>