<?xml version="1.0" encoding="UTF-8" standalone="no"?>
<!-- Created with Inkscape (http://www.inkscape.org/) -->

<svg
   width="191.57538mm"
   height="92.590714mm"
   viewBox="0 0 191.57538 92.590714"
   version="1.1"
   id="svg8"
   inkscape:version="1.1 (c68e22c387, 2021-05-23)"
   sodipodi:docname="tic.svg"
   xmlns:inkscape="http://www.inkscape.org/namespaces/inkscape"
   xmlns:sodipodi="http://sodipodi.sourceforge.net/DTD/sodipodi-0.dtd"
   xmlns="http://www.w3.org/2000/svg"
   xmlns:svg="http://www.w3.org/2000/svg"
   xmlns:rdf="http://www.w3.org/1999/02/22-rdf-syntax-ns#"
   xmlns:cc="http://creativecommons.org/ns#"
   xmlns:dc="http://purl.org/dc/elements/1.1/">
  <defs
     id="defs2" />
  <sodipodi:namedview
     id="base"
     pagecolor="#ffffff"
     bordercolor="#666666"
     borderopacity="1.0"
     inkscape:pageopacity="0"
     inkscape:pageshadow="2"
     inkscape:zoom="0.7"
     inkscape:cx="365"
     inkscape:cy="346.42857"
     inkscape:document-units="mm"
     inkscape:current-layer="layer1"
     showgrid="false"
     inkscape:window-width="1409"
     inkscape:window-height="1078"
     inkscape:window-x="509"
     inkscape:window-y="0"
     inkscape:window-maximized="1"
     inkscape:pagecheckerboard="true"
     inkscape:snap-bbox="false"
     fit-margin-top="0"
     fit-margin-left="0"
     fit-margin-right="0"
     fit-margin-bottom="0" />
  <metadata
     id="metadata5">
    <rdf:RDF>
      <cc:Work
         rdf:about="">
        <dc:format>image/svg+xml</dc:format>
        <dc:type
           rdf:resource="http://purl.org/dc/dcmitype/StillImage" />
      </cc:Work>
    </rdf:RDF>
  </metadata>
  <g
     inkscape:label="Ebene 1"
     inkscape:groupmode="layer"
     id="layer1"
     transform="translate(-10.801768,-10.310896)">
    <path
       d="m 44.107639,34.216149 c 0,0 0,0.375728 0,0.375728 -0.646869,0.524144 -0.304775,0.991934 -0.476858,1.68327 -0.09537,0.388888 -0.750534,1.48038 -1.028355,1.805392 0,0 -4.749918,3.817422 -4.749918,3.817422 -0.831392,0.800306 -1.23361,1.901194 -1.83072,2.838648 0,0 0.414658,0 0.414658,0 -0.170009,0.216041 -0.29026,0.278035 -0.333799,0.5805 -0.09537,0.663166 1.217024,2.374614 1.747788,2.810462 0.572229,0.46779 2.649671,1.626915 3.37325,1.79224 0,0 1.621317,0.12587 1.621317,0.12587 0,0 1.090552,0.304339 1.090552,0.304339 0,0 3.489357,0 3.489357,0 1.339347,0.0034 1.0014,-0.15593 1.884624,-0.304339 1.098847,-0.184107 2.585399,-0.221688 3.713271,-0.236706 1.351789,-0.01883 1.032501,-0.201024 2.081589,-0.358828 0,0 4.741625,-0.4133 4.741625,-0.4133 1.096773,-0.114601 0.507957,-0.351315 2.506614,-0.343802 0,0 4.345626,0 4.345626,0 0,0 1.478259,0.343802 1.478259,0.343802 0.818951,0.08829 1.652416,0.05819 2.461001,0.25737 0.642721,0.157813 2.718089,1.290635 3.219827,1.711457 0.700774,0.588021 0.816878,1.121552 1.764374,1.433404 0,0 0.408438,2.404682 0.408438,2.404682 0,0 -0.402218,0.976901 -0.402218,0.976901 -0.88115,1.797862 -2.616498,1.957557 -4.54881,1.641941 0,0 -1.090553,-0.281792 -1.090553,-0.281792 0,0 -1.830719,-0.0977 -1.830719,-0.0977 -0.787852,-0.08642 -1.797546,-0.527901 -2.487954,-0.135257 -0.447831,-0.604929 -0.858344,-0.62935 -1.623389,-0.411426 0,0 -3.371178,0.926176 -3.371178,0.926176 -1.268856,0.217924 -1.413988,0.006 -2.942006,0.482816 -1.208731,0.375727 -2.411242,0.34755 -3.638632,0.550448 0,0 -3.371178,0.845383 -3.371178,0.845383 -1.583997,0.268657 -3.255073,0.263018 -4.785165,0.743951 -0.841757,0.266766 -2.753335,0.409552 -3.284099,1.10277 -0.319287,0.41894 -0.406366,3.018999 -0.412585,3.650223 0,0 -0.263309,4.679722 -0.263309,4.679722 0,0 -1.237757,2.836774 -1.237757,2.836774 -0.360753,1.142217 -1.011767,3.516832 -1.608876,4.47495 0,0 -0.89981,1.05392 -0.89981,1.05392 -0.441612,0.537296 -0.481005,0.715765 -1.0947,1.213615 -0.74846,0.608686 -1.633757,0.98817 -2.475514,1.46159 -1.225318,0.685705 -2.03805,1.508558 -3.615826,1.559283 -2.073296,0.06765 -4.936517,-0.96938 -6.174273,-2.526788 -0.269528,-0.338155 -0.348314,-0.644376 -0.532837,-1.008835 -0.167937,-0.325011 -0.410512,-0.625593 -0.485151,-0.984422 -0.284041,-1.384562 1.567411,-3.507444 2.284771,-4.651535 0.738093,-1.174169 1.743641,-1.912472 0.850051,-3.51684 -0.72358,-1.303787 -2.436121,-3.10354 -3.910234,-3.736647 -1.482406,-0.636864 -3.07677,0.09957 -3.5868,-0.725161 -0.18245,-0.293069 -0.155497,-0.920537 -0.15135,-1.256818 0.0062,-0.601164 -0.563937,-3.20498 -0.833465,-3.697191 -0.17001,-0.308095 -0.387706,-0.460269 -0.640648,-0.702614 -0.514177,-0.492211 -0.858344,-0.963748 -1.712541,-0.809701 -0.694554,0.123988 -0.91847,0.61056 -0.702848,1.187312 0,0 0.802366,1.854225 0.802366,1.854225 0.3338,0.471538 0.843831,0.593652 1.158972,1.420261 0.223916,0.593652 0.15757,1.771576 0.15757,2.438491 -1.749861,-0.636863 -2.214279,-1.722726 -2.819681,-3.225636 -0.425026,-1.055811 -0.342094,-2.102218 -1.760228,-2.564369 -1.865965,-0.608686 -2.444414,0.826609 -1.882551,2.188632 0.398072,0.963749 1.695955,1.408983 2.218425,1.873017 0.55357,0.490328 0.576376,1.20985 1.675223,2.107848 1.606803,1.313182 3.89572,0.931807 5.886083,0.941202 0,0 2.073295,0.182234 2.073295,0.182234 0.337947,0.882964 2.444414,2.453524 2.635158,3.398482 0.196963,0.976901 -0.976523,2.147304 -1.554971,2.911911 -1.11958,1.480381 -1.600584,2.015795 -1.729128,3.834339 -0.04147,0.601165 -0.08086,1.076459 0.161717,1.658849 0.383559,0.920538 0.932982,1.277483 1.569484,1.963197 1.915725,2.062754 5.266169,3.270734 8.228907,2.631984 1.590217,-0.34379 3.60546,-1.717086 4.913709,-2.603815 0.54735,-0.371972 1.248125,-0.715765 1.704249,-1.147857 0,0 1.44094,-1.865495 1.44094,-1.865495 0,0 1.650343,-4.258917 1.650343,-4.258917 0.172084,-0.433965 0.255015,-1.17979 0.740166,-1.392075 0.570156,-0.247983 1.318615,0.22168 2.027682,0.296826 0,0 3.704978,0.232949 3.704978,0.232949 0,0 1.47826,0.330642 1.47826,0.330642 0.628208,0.06395 1.666929,-0.105205 2.137567,0.321256 0.760899,0.689461 -0.147205,1.980104 0.746386,2.705256 0,0 0,0.375736 0,0.375736 -0.34624,0.276161 -0.34624,0.287431 0,0.5636 -0.294408,0.390754 -0.402219,0.413301 0,0.751456 0,0 -0.410512,0.375736 -0.410512,0.375736 0.422952,0.804054 0.08915,0.817205 0,1.698296 -0.242576,2.474189 -1.463747,4.345336 -4.030485,5.414276 -1.163119,0.48282 -2.587472,0.21981 -3.79413,0.48282 0,0 -1.102993,0.28744 -1.102993,0.28744 0,0 -2.237085,0.37385 -2.237085,0.37385 0,0 -3.566067,1.61189 -3.566067,1.61189 0,0 -1.818281,1.43529 -1.818281,1.43529 -1.040793,0.84538 -1.509359,0.96187 -2.058782,2.27504 -0.246722,0.59553 -0.238428,1.37706 -0.252941,2.01392 -0.07464,3.15989 3.364957,3.16929 4.66906,4.97092 0.466492,0.64437 0.259162,1.968825 0.354534,2.759735 0.06635,0.54481 0.346239,0.97503 0.563936,1.47476 0,0 1.627536,-0.37574 1.627536,-0.37574 0,0 0,-2.425345 0,-2.425345 0,0 -1.420207,-2.45915 -1.420207,-2.45915 0.986889,-0.003 2.90054,-0.21229 3.524602,-0.93933 0.597108,0.36258 0.613695,0.28743 1.243977,0 0.51625,0.74394 1.009693,0.62558 1.380814,1.35074 0.613695,1.19295 -0.101592,2.977675 2.143787,2.898775 0,0 1.036647,-0.11648 1.036647,-0.11648 0.116105,-0.28179 0.319288,-0.67443 0.356607,-0.963745 0.126471,-0.99382 -0.810659,-1.7246 -1.807913,-1.85424 -0.259162,-1.49916 -1.407768,-1.98949 -2.883954,-2.29572 0,0 -0.872857,-0.2104 -0.872857,-0.2104 -0.951642,-0.0564 -3.947553,1.55928 -5.7451,0.76462 -0.37734,-0.16909 -0.818952,-0.5467 -1.165192,-0.79281 -0.752606,-0.53541 -1.289589,-0.85289 -1.399474,-1.78846 -0.296481,-2.49674 3.452036,-4.6647 5.628996,-5.52513 0.962009,-0.38136 2.199766,-1.22112 3.327639,-0.86042 1.156898,-0.58614 1.519724,-0.32689 2.703576,-0.43585 1.009694,-0.0921 2.765776,-0.54293 3.632412,-0.99193 1.387035,-0.71952 3.24678,-3.38533 3.599241,-4.803717 0,0 0,-1.095258 0,-1.095258 0,0 0,-6.763149 0,-6.763149 4.003532,0.892359 2.836267,0.296825 5.821812,0.712008 0.557716,0.03 1.700102,0.392636 2.073295,0 0.180376,0.274279 0.402219,0.488455 0.416732,0.792793 0.02074,0.370089 -0.41466,0.901747 -0.59089,1.236154 0,0 -0.733946,1.846713 -0.733946,1.846713 0,0 -0.870784,2.040215 -0.870784,2.040215 0,0 -0.236355,1.067081 -0.236355,1.067081 0,0 -0.619915,1.339485 -0.619915,1.339485 0,0 -0.267455,3.552535 -0.267455,3.552535 -0.01037,1.55928 0.147204,3.10353 1.08226,4.45804 1.22739,1.77532 4.716745,3.40224 7.00359,3.4323 1.281296,0.0169 2.496247,-0.1672 3.559847,-0.87545 1.517652,-1.01072 2.502467,-3.29703 4.878463,-1.86926 0.715287,0.42832 2.351117,1.87302 2.68699,2.58878 0,0 1.260564,3.63895 1.260564,3.63895 0.551496,0.88109 2.129274,1.87489 2.956518,2.57564 0.536983,0.454635 0.93713,0.975025 1.677295,1.121565 0.686261,0.21792 1.374595,0.0695 2.054636,0 -0.0021,-2.096585 -0.512105,-2.663935 -2.902613,-2.295735 -0.302701,-0.80781 -1.588145,-1.65321 -2.487954,-1.87864 2.027682,-0.37198 2.004876,0.84351 3.317272,0 0,0 0,0.37573 0,0.37573 0,0 1.623389,-0.70826 1.623389,-0.70826 0,0 1.090554,-0.43208 1.090554,-0.43208 0,0 3.505942,-0.55045 3.505942,-0.55045 -0.0039,-0.93557 0.05187,-1.88805 -1.260564,-2.0421 -1.834866,-0.21605 -4.018046,2.6226 -5.964869,2.32014 0,0 -0.895663,-0.25737 -0.895663,-0.25737 -2.332457,-0.64814 -1.706322,-1.36767 -2.771996,-2.88562 -1.142386,-1.62315 -2.846634,-3.18056 -5.071279,-3.3177 -4.148663,-0.25738 -3.242633,3.12984 -7.049203,2.98143 -0.568082,-0.0226 -2.118907,-0.32314 -2.635157,-0.51663 -3.742297,-1.39584 -4.511491,-4.40356 -4.057439,-7.74194 0,0 0.234283,-1.683271 0.234283,-1.683271 0.331727,-1.209858 0.939203,-2.352075 1.523871,-3.46988 0,0 1.092627,-2.754098 1.092627,-2.754098 0.17623,-0.578626 0.09952,-1.19859 0.802365,-1.517963 0.414659,-0.180351 2.046342,-0.05261 2.624791,0 0,0 1.451307,0 1.451307,0 -0.05184,1.51608 -0.431246,1.230524 -0.584669,2.288209 -0.371121,2.573755 -0.109886,5.840738 3.072623,6.845813 0.599181,0.18787 1.241903,0.43584 1.874258,0.46967 1.208731,0.0676 1.243977,-0.16345 2.083661,-0.31938 0,0 2.226719,-0.3607 2.226719,-0.3607 0,0 1.754008,-0.836003 1.754008,-0.836003 0,0 1.355935,-0.319364 1.355935,-0.319364 2.170739,-0.672562 2.917126,-1.320703 5.425812,-1.34888 0,0 4.146591,0.133382 4.146591,0.133382 1.339349,-0.144652 4.071953,-1.290634 5.154209,-2.043972 0,0 1.123725,-0.948723 1.123725,-0.948723 0,0 0.991036,-0.6951 0.991036,-0.6951 0.373193,-0.345668 0.559794,-0.708252 0.831392,-1.11404 1.523873,-2.269417 1.847307,-4.957766 1.086409,-7.525891 0,0 -1.038727,-2.476063 -1.038727,-2.476063 0,0 -0.118175,-1.298148 -0.118175,-1.298148 -0.0601,-0.497841 -0.147201,-0.798432 0,-1.307542 0.232214,-0.798432 1.411912,-1.948162 2.338674,-2.040216 0.75053,-0.07324 1.81621,0.355063 2.8653,0 0.88529,-0.302465 1.12165,-1.129074 1.69388,-1.724608 0,0 0,-0.375728 0,-0.375728 -0.29441,-0.285556 -0.64479,-0.796549 -1.07396,-0.875451 -0.78786,-0.144652 -0.99312,0.61056 -1.59023,1.115914 -0.58674,0.495967 -0.93505,0.486572 -1.68973,0.511001 0,0 0.92054,-1.884286 0.92054,-1.884286 0.0912,-0.897998 -1.302024,-0.834122 -1.868038,-0.503488 -0.845905,0.492211 -0.881152,1.97823 -1.318616,2.709021 -0.505882,0.847274 -1.382888,1.587469 -1.739491,2.52867 -0.688337,1.824166 0.532837,3.969587 1.136168,5.620924 0.302699,0.830366 0.0228,1.8223 0.796145,2.425347 0,0 0,0.375728 0,0.375728 0,0 0,0.375736 0,0.375736 -0.727729,0.888595 -0.489301,1.583695 -0.970302,2.57563 -0.555648,1.1441 -2.31795,2.990813 -3.441675,3.670887 -1.229464,0.743943 -3.228118,1.564922 -4.710523,1.625042 0,0 -2.902613,-0.169082 -2.902613,-0.169082 -3.056037,-0.0034 -3.103723,0.315608 -5.863278,1.177916 0,0 -1.542531,0.375728 -1.542531,0.375728 0,0 -1.30203,0.559844 -1.30203,0.559844 0,0 -2.84456,0.781523 -2.84456,0.781523 -0.443685,0.108954 -0.58467,0.221672 -1.102993,0.274282 -2.326237,0.24046 -4.314527,-1.955686 -4.345626,-3.920757 -0.04976,-3.308303 0.441611,-1.732121 0.829317,-4.320902 0,0 1.432648,0.234832 1.432648,0.234832 0,0 2.299283,0.501598 2.299283,0.501598 0,0 1.857672,0 1.857672,0 0.624062,0.107087 1.196292,0.452755 1.841087,0.340037 0.497591,-0.08642 1.461673,-0.873578 2.075367,-1.189185 0,0 4.6815,-2.735317 4.6815,-2.735317 0.75468,-0.480933 1.550825,-0.760859 2.03805,-1.504801 0.777485,-1.187312 0.773339,-4.163099 0.775412,-5.604024 0.0041,-1.980105 0.389779,-1.288761 0.414659,-2.817975 0.0083,-0.612451 0.128544,-2.408439 -0.267455,-2.842413 -0.505885,-0.552322 -2.865294,-0.343794 -3.671806,-0.351306 0,0 -2.073294,-0.170956 -2.073294,-0.170956 0,0 -5.597896,-0.204772 -5.597896,-0.204772 0.445758,-0.969388 1.523871,-2.042098 1.633756,-3.020881 0.08501,-0.758968 -0.205256,-1.176034 -0.425026,-1.867378 -0.746386,-2.355832 -3.458256,-4.381022 -6.012555,-5.055449 -0.731873,-0.193503 -3.481062,-0.387015 -4.318673,-0.394527 0,0 -3.729858,0 -3.729858,0 0,0 -1.4285,-0.246093 -1.4285,-0.246093 0,0 -1.06982,0.227311 -1.06982,0.227311 0,0 -5.37398,0.385123 -5.37398,0.385123 0,0 -1.876333,0.433973 -1.876333,0.433973 0,0 -2.035975,0.189746 -2.035975,0.189746 0,0 -1.090553,0.281792 -1.090553,0.281792 0,0 -3.713271,0.236714 -3.713271,0.236714 0,0 -2.695283,-0.197267 -2.695283,-0.197267 0,0 -1.432648,0 -1.432648,0 -0.69248,-0.163435 -2.28477,-1.087728 -2.825901,-1.512306 -1.304102,-1.021995 -1.443013,-1.655093 -1.961337,-2.047738 0.769193,-0.899881 0.51625,-1.66637 2.156228,-3.103539 1.494845,-1.311291 4.399531,-2.990804 5.168723,-4.67784 0.360753,-0.792793 0.783706,-2.074032 0.756753,-2.925071 -0.03317,-1.078341 -0.487225,-1.331955 -0.539056,-2.256257 -0.07671,-1.392075 1.443013,-2.553091 2.823827,-2.817974 0.111959,-0.274288 0.122325,-0.417066 0.356607,-0.655654 0.348313,-0.355063 1.24605,-0.486572 2.794801,-2.124757 0,0 4.789311,-6.541478 4.789311,-6.541478 0.966157,-0.683822 2.245379,-0.676309 3.375325,-1.127191 1.868039,-0.743943 1.975849,-1.609999 2.461001,-3.233158 0.186597,-0.619954 0.37734,-0.794667 0.296481,-1.519825 -0.04561,-0.411427 -0.234282,-0.772129 -0.404292,-1.151618 -1.293736,-2.876218 -4.49283,-3.5093238 -7.484595,-2.48546 -0.460272,0.157807 -1.117507,0.29307 -1.482405,0.580503 -0.456126,0.356944 -1.851454,1.940652 -1.961338,2.479822 -0.288188,1.442805 0.530764,2.979551 0.20733,3.941417 -0.246723,0.738313 -0.866638,1.283122 -1.248124,1.935011 0,0 -0.603329,1.206102 -0.603329,1.206102 0,0 -1.194218,1.519827 -1.194218,1.519827 0,0 -1.20873,2.128513 -1.20873,2.128513 -1.154826,2.064646 -0.731874,2.913794 -1.295809,3.637072 0,0 -0.663455,0.719521 -0.663455,0.719521 -0.767119,1.140343 -1.749861,4.174368 -0.466491,5.200119 z M 54.474113,12.423767 c -0.221843,0.576746 -0.192816,0.550446 -0.829318,0.751466 0,0 0.829318,-0.751466 0.829318,-0.751466 z m 2.695284,0 c -0.443686,0.589896 -0.478932,0.595534 -1.243977,0.751466 0,0 0,-0.751466 0,-0.751466 0,0 1.243977,0 1.243977,0 z m 2.073294,0.751466 c 0,0 -0.829317,-0.751466 -0.829317,-0.751466 0.6365,0.20102 0.607475,0.174713 0.829317,0.751466 z m -1.865965,0 c 0.201109,0.0507 0.31514,0.04693 0.524543,0.15217 1.627537,0.817216 -0.750532,1.747144 -0.690407,0.400151 0.0083,-0.212289 0.101591,-0.364458 0.165864,-0.552321 z m -4.561249,0.375726 c 0.17001,0.674441 0.242576,0.897997 -0.414659,1.315062 0,0 0,-1.315062 0,-1.315062 0,0 0.414659,0 0.414659,0 z m 2.695283,0.18787 c 0,0 0,0.563596 0,0.563596 0,0 -1.036647,0 -1.036647,0 0,0 0,-0.563596 0,-0.563596 0,0 1.036647,0 1.036647,0 z m 1.658637,2.442246 c 0,0 -0.621989,0 -0.621989,0 0,0 -0.829318,-0.563595 -0.829318,-0.563595 0,0 0.20733,-1.127192 0.20733,-1.127192 1.076039,0.270526 1.387033,0.689465 1.243977,1.690787 z m 2.695283,-1.690787 c 0,0 0,0.939329 0,0.939329 0,0 -0.829318,0 -0.829318,0 0,0 0.207329,-0.939329 0.207329,-0.939329 0,0 0.621989,0 0.621989,0 z m -5.805226,0.375733 c 0,0 0.207329,0.939322 0.207329,0.939322 0,0 -0.829317,0 -0.829317,0 0,0 0.207329,-0.939322 0.207329,-0.939322 0,0 0.414659,0 0.414659,0 z m 4.561249,0.939322 c 0,0 0.414659,0.939332 0.414659,0.939332 0,0 -1.036648,0 -1.036648,0 0,0 0.621989,-0.939332 0.621989,-0.939332 z m -6.012556,0.375732 c 0,0 0.829319,0.939328 0.829319,0.939328 -0.700774,-0.144652 -1.08226,-0.217924 -0.829319,-0.939328 z m 3.731931,0.5636 c 0,0 -0.414658,0.751456 -0.414658,0.751456 0,0 -0.41466,0 -0.41466,0 0,0 -1.036647,-0.751456 -1.036647,-0.751456 0,0 0,-0.375736 0,-0.375736 1.011767,-0.155921 0.982741,0.01693 1.865965,0.375736 z m 1.658636,0.751456 c 0,0 -1.036647,0.5636 -1.036647,0.5636 0,0 0,-0.5636 0,-0.5636 0,0 1.036647,0 1.036647,0 z m -6.219885,1.315064 c 0.816878,0.35318 1.567412,0.702613 1.865966,1.502919 -1.382888,-0.148417 -1.198365,-0.475294 -2.073295,-1.315055 0,0 0.207329,-0.187864 0.207329,-0.187864 z m -0.621988,1.315055 c 0,0 1.658636,1.502919 1.658636,1.502919 -0.866637,-0.214167 -2.027682,-0.480933 -1.658636,-1.502919 z m 1.036648,2.630111 c 0,0 -0.621989,0.5636 -0.621989,0.5636 -0.962009,-0.610568 -1.339348,-0.614325 -1.658636,-1.690792 0.984815,-0.123987 1.737421,0.413309 2.280625,1.127192 z M 183.01839,21.253442 c 0,0 0,0.939327 0,0.939327 0,0 1.86597,0 1.86597,0 0,0 0,5.072367 0,5.072367 0.003,0.835996 -0.056,1.707691 0.70285,2.320133 0.75053,0.604921 1.8867,0.497841 2.82175,0.497841 0,0 0,-0.939327 0,-0.939327 -0.69456,-0.0017 -1.44716,0.07143 -1.96756,-0.433974 -0.49966,-0.484681 -0.5121,-1.198572 -0.52039,-1.82041 0,0 0,-5.635957 0,-5.635957 0,0 -2.90262,0 -2.90262,0 z M 66.706553,21.817033 c 0,0 0,1.878656 0,1.878656 0,0 -1.865966,0 -1.865966,0 0,0 0,1.315064 0,1.315064 0,0 1.865966,0 1.865966,0 0,1.228632 -0.37112,3.980865 0.856271,4.709773 0.779558,0.460277 2.363555,0.362584 3.290319,0.362584 0,0 0,-1.315064 0,-1.315064 -0.489298,-0.0017 -1.200438,0.03756 -1.627537,-0.191611 -0.955789,-0.512885 -0.653088,-2.650784 -0.653088,-3.565682 0,0 2.280625,0 2.280625,0 0,0 0,-1.315064 0,-1.315064 0,0 -2.280625,0 -2.280625,0 0,0 0,-1.878656 0,-1.878656 0,0 -1.865965,0 -1.865965,0 z m 69.040707,0 c 0,0 0,1.878656 0,1.878656 0,0 -1.86596,0 -1.86596,0 0,0 0,0.939327 0,0.939327 0,0 1.86596,0 1.86596,0 0,1.375176 -0.46856,4.478715 1.04703,5.201984 0.67589,0.321256 1.91364,0.24611 2.68491,0.24611 0,0 0,-0.939327 0,-0.939327 -0.6137,0 -1.51557,0.07513 -2.00902,-0.300583 -0.74846,-0.571112 -0.47894,-3.287647 -0.47894,-4.208184 0,0 2.48796,0 2.48796,0 0,0 0,-0.939327 0,-0.939327 0,0 -2.48796,0 -2.48796,0 0,0 0,-1.878656 0,-1.878656 0,0 -1.24398,0 -1.24398,0 z m -86.249056,1.127192 c 0,0 1.865966,1.127191 1.865966,1.127191 0,0 -0.414658,0.751464 -0.414658,0.751464 -1.044941,-0.244227 -2.079515,-0.779641 -1.451308,-1.878655 z m 28.196812,1.315055 c -0.350387,-0.764607 -1.044941,-0.563591 -1.865965,-0.563591 0,0 0,6.387421 0,6.387421 0,0 1.865965,0 1.865965,0 0,-1.546139 -0.661381,-5.181328 1.865965,-5.220783 0.497591,-0.0077 1.163118,0.219806 1.658636,0.336281 -0.0041,-0.304339 0.01659,-0.800306 -0.124398,-1.074585 -0.611622,-1.194824 -2.608205,-0.370097 -3.400203,0.135257 z m 7.463862,0.939328 c 1.521798,-0.460269 3.454108,-1.262449 3.93926,0.751464 -1.102993,0 -2.784436,-0.105197 -3.704978,0.510993 -1.15068,0.772128 -1.243977,2.819857 0.391852,3.563799 1.158973,0.526028 2.330384,0.101458 3.313126,-0.505345 0.333801,0.728917 0.860417,0.561709 1.658638,0.563591 0,0 0,-3.569447 0,-3.569447 -0.0023,-0.758968 0.05595,-1.59309 -0.520401,-2.213045 -1.150677,-1.236162 -4.416117,-0.798432 -4.872242,-0.279926 -0.242575,0.278043 -0.201109,0.837878 -0.205255,1.177916 z m 11.610448,-0.751456 c 0,0 -0.207327,-0.751463 -0.207327,-0.751463 0,0 -1.865965,0 -1.865965,0 0,0 0,6.387421 0,6.387421 0,0 1.888768,0 1.888768,0 0,0 0,-3.945166 0,-3.945166 0.111962,-0.441495 0.418808,-1.089627 1.013848,-1.089627 0.595032,0 0.901877,0.648132 1.013839,1.089627 0,0 0,3.945166 0,3.945166 0,0 1.681441,0 1.681441,0 0,-0.94684 0.11611,-4.824382 -0.15342,-5.444337 -0.595043,-1.371419 -2.575038,-1.502928 -3.371184,-0.191621 z m 7.878524,3.945175 c 0.003,0.370089 -0.0539,1.068946 0.20525,1.36578 0.29234,0.332516 1.21288,0.441478 1.66072,0.480933 1.79547,0.161561 3.72156,-0.189746 3.50179,-2.222449 -0.15342,-1.412748 -1.26471,-1.499171 -2.46514,-1.865504 -0.37113,-0.112718 -1.16934,-0.390762 -0.96616,-0.879208 0.36905,-0.892359 2.43405,-0.103323 3.03945,0.114593 -0.003,-0.375719 0.0539,-1.065198 -0.20526,-1.367654 -0.47686,-0.554205 -3.71119,-1.033256 -4.67736,0.623711 -0.75467,1.30003 0.19904,2.333294 1.56535,2.727804 0.47685,0.137147 1.4285,0.266765 1.67729,0.698856 0.25502,0.443369 -0.22807,0.734556 -0.6448,0.824727 -0.77332,0.167208 -1.96962,-0.249857 -2.69113,-0.501589 z m 10.98846,-3.945175 c 0,0 0,-0.751463 0,-0.751463 0,0 -1.03665,0 -1.03665,0 0,0 0,6.387421 0,6.387421 0,0 1.03665,0 1.03665,0 0,-1.144099 -0.15135,-3.545017 0.3421,-4.50501 0.32135,-0.62935 1.10299,-1.29439 1.91572,-0.929932 0.85833,0.381358 0.84797,1.316938 0.85212,2.053368 0,0 0,3.381574 0,3.381574 0,0 1.24398,0 1.24398,0 0,-1.14973 0.11817,-4.133038 -0.19489,-5.072357 -0.41259,-1.238045 -1.57156,-1.80351 -2.91505,-1.313182 -0.49967,0.182225 -0.83347,0.448991 -1.24398,0.749581 z m 8.91516,0.375728 c 2.1666,-0.302464 3.18667,-1.059559 4.14659,1.315064 -1.2813,0 -3.04566,-0.152182 -4.06573,0.685697 -1.22324,1.005086 -0.74431,3.195593 1.37045,3.40976 1.16105,0.116475 1.78303,-0.368214 2.69528,-0.901755 0,0 0,0.751464 0,0.751464 0,0 1.03665,0 1.03665,0 0,-1.303786 0.30478,-4.662813 -0.52039,-5.615293 -1.19422,-1.380814 -3.99939,-1.010717 -4.45137,-0.475303 -0.20111,0.240471 -0.18452,0.548566 -0.21148,0.830366 z m 31.09943,-1.215489 c -0.58052,0.169073 -0.93506,0.268649 -1.37045,0.693227 -1.76437,1.722725 -1.06982,6.688004 2.82175,5.897084 2.92542,-0.595533 2.61029,-4.583911 1.56949,-5.731767 -0.82725,-0.913025 -1.81414,-1.035138 -3.02079,-0.858544 z m 8.91516,0.839761 c 0,0 0,-0.751463 0,-0.751463 0,0 -1.03664,0 -1.03664,0 0,0 0,6.387421 0,6.387421 0,0 1.03664,0 1.03664,0 0,-1.144099 -0.15134,-3.545017 0.3421,-4.50501 0.32136,-0.62935 1.10299,-1.29439 1.91573,-0.929932 0.85834,0.381358 0.84798,1.316938 0.85212,2.053368 0,0 0,3.381574 0,3.381574 0,0 1.24397,0 1.24397,0 0,-1.14973 0.11819,-4.133038 -0.19489,-5.072357 -0.41258,-1.238045 -1.57155,-1.80351 -2.91505,-1.313182 -0.49965,0.182225 -0.83345,0.448991 -1.24398,0.749581 z m 9.1225,0.375728 c 2.16661,-0.302464 3.18666,-1.059559 4.1466,1.315064 -1.2813,0 -3.04567,-0.152182 -4.06573,0.685697 -1.22325,1.005086 -0.74432,3.195593 1.37044,3.40976 1.16105,0.116475 1.78304,-0.368214 2.69529,-0.901755 0,0 0,0.751464 0,0.751464 0,0 1.03664,0 1.03664,0 0,-1.303786 0.30477,-4.662813 -0.52039,-5.615293 -1.19422,-1.380814 -3.99938,-1.010717 -4.45137,-0.475303 -0.20111,0.240471 -0.18452,0.548566 -0.21148,0.830366 z M 144.4551,23.695689 c 0,0 0,0.939327 0,0.939327 0,0 1.86597,0 1.86597,0 0,0 0,4.508767 0,4.508767 0,0 -2.48795,0 -2.48795,0 0,0 0,0.939327 0,0.939327 0,0 5.80522,0 5.80522,0 0,0 0,-0.939327 0,-0.939327 0,0 -2.28062,0 -2.28062,0 0,0 0,-5.448094 0,-5.448094 0,0 -2.90262,0 -2.90262,0 z M 48.668887,24.25928 c 0,0 1.451306,1.690792 1.451306,1.690792 -1.113358,-0.09394 -1.171411,-0.195377 -2.073294,-0.751464 0,0 0.621988,-0.939328 0.621988,-0.939328 z m 107.400823,0.272413 c 2.89224,-0.199141 2.61649,4.386653 0.61784,4.732321 -1.05739,0.184107 -1.73742,-0.601165 -1.96342,-1.435287 -0.34001,-1.266213 -0.10573,-2.76162 1.34558,-3.297034 z m -107.608152,1.98197 c -0.665528,-0.05261 -0.773339,0.01126 -1.036647,-0.563591 0,0 1.036647,0.563591 1.036647,0.563591 z m 40.63658,0.584265 c -0.03939,0.362576 -0.0705,0.736429 -0.238429,1.099014 -1.098847,2.38401 -3.94548,-0.612442 -1.208732,-1.099014 0,0 1.447161,0 1.447161,0 z m 39.599922,-0.02063 c -0.1389,0.465898 -0.26123,1.093366 -0.56601,1.482254 -0.51625,0.657528 -1.88462,1.093375 -2.59784,0.445235 -0.44575,-0.403906 -0.58259,-1.478499 0.68005,-1.82041 0.41465,-0.112718 1.00969,-0.105205 1.44715,-0.107079 0,0 1.03665,0 1.03665,0 z m 49.1371,0 c -0.13892,0.465898 -0.26124,1.093366 -0.56601,1.482254 -0.51626,0.657528 -1.88463,1.093375 -2.59785,0.445235 -0.44575,-0.403906 -0.58259,-1.478499 0.68005,-1.82041 0.41466,-0.112718 1.00969,-0.105205 1.44716,-0.107079 0,0 1.03665,0 1.03665,0 z M 48.046899,27.828753 c 0,0 -1.036648,0 -1.036648,0 0.416732,-0.552322 0.619915,-0.552322 1.036648,0 z m 29.440787,8.829669 c 0,0 0,1.315064 0,1.315064 0,0 1.036647,0 1.036647,0 0,0 0,-1.315064 0,-1.315064 0,0 -1.036647,0 -1.036647,0 z m 88.322354,0 c 0,0 0,1.315064 0,1.315064 0,0 1.03665,0 1.03665,0 0,0 0,-1.315064 0,-1.315064 0,0 -1.03665,0 -1.03665,0 z m -69.455367,0.563591 c 0,0 0,1.878664 0,1.878664 0,0 -1.865966,0 -1.865966,0 0,0 0,0.939319 0,0.939319 0,0 1.865966,0 1.865966,0 0,1.375176 -0.468567,4.478715 1.047009,5.201984 0.675893,0.321256 1.913656,0.24611 2.684918,0.24611 0,0 0,-0.939328 0,-0.939328 -0.613695,0 -1.51558,0.07513 -2.009025,-0.300582 -0.748455,-0.571104 -0.478925,-3.287647 -0.478925,-4.208184 0,0 2.48795,0 2.48795,0 0,0 0,-0.939319 0,-0.939319 0,0 -2.48795,0 -2.48795,0 0,0 0,-1.878664 0,-1.878664 0,0 -1.243977,0 -1.243977,0 z m 58.674237,0 c 0,0 0,1.878664 0,1.878664 0,0 -1.86597,0 -1.86597,0 0,0 0,0.939319 0,0.939319 0,0 1.86597,0 1.86597,0 0,1.375176 -0.46856,4.478715 1.04702,5.201984 0.67589,0.321256 1.91365,0.24611 2.68491,0.24611 0,0 0,-0.939328 0,-0.939328 -0.6137,0 -1.51557,0.07513 -2.00902,-0.300582 -0.74846,-0.571104 -0.47893,-3.287647 -0.47893,-4.208184 0,0 2.48795,0 2.48795,0 0,0 0,-0.939319 0,-0.939319 0,0 -2.48795,0 -2.48795,0 0,0 0,-1.878664 0,-1.878664 0,0 -1.24398,0 -1.24398,0 z m -69.040714,2.630119 c 0,0 0,-0.751455 0,-0.751455 0,0 -1.036648,0 -1.036648,0 0,0 0,6.387413 0,6.387413 0,0 1.036648,0 1.036648,0 0,-1.1441 -0.151352,-3.545017 0.342093,-4.50501 0.321361,-0.629341 1.102993,-1.29439 1.915724,-0.929932 0.858347,0.381367 0.84798,1.316938 0.852125,2.053368 0,0 0,3.381574 0,3.381574 0,0 1.243977,0 1.243977,0 0,-1.14973 0.118175,-4.13303 -0.194891,-5.072357 -0.412586,-1.238045 -1.571557,-1.80351 -2.915051,-1.313182 -0.499665,0.182234 -0.833465,0.448999 -1.243977,0.749581 z m 24.050224,4.320903 c -1.4285,0.497841 -3.14105,1.020103 -4.20258,-0.385123 -0.28196,-0.375736 -0.40429,-0.879208 -0.566,-1.30566 0,0 5.18324,0 5.18324,0 -0.0518,-1.001322 -0.20526,-2.220576 -1.08019,-2.926945 -1.60888,-1.30003 -5.06299,-0.621838 -5.13556,2.551209 -0.0331,1.414621 0.33588,2.611328 1.86183,3.274495 0.80029,0.34755 3.13275,0.482815 3.734,-0.216041 0.22807,-0.266775 0.19489,-0.674445 0.20526,-0.991935 z m 6.42721,-4.133039 c 0,0 0,-0.939319 0,-0.939319 0,0 -1.03665,0 -1.03665,0 0,0 0,6.387413 0,6.387413 0,0 1.03665,0 1.03665,0 0,-1.621276 -0.35453,-6.075562 2.69528,-5.551417 0.40844,0.07135 0.87078,0.308095 1.24398,0.47906 -0.0103,-0.279927 0.0103,-0.627477 -0.1244,-0.88673 -0.40014,-0.781515 -1.86183,-0.666923 -2.56259,-0.343794 -0.46027,0.212294 -0.85212,0.5636 -1.25227,0.854787 z m 8.70783,-0.187864 c 0,0 0,-0.751455 0,-0.751455 0,0 -1.03665,0 -1.03665,0 0,0 0,8.82966 0,8.82966 0,0 1.03665,0 1.03665,0 0,0 0,-3.193702 0,-3.193702 0.396,0.31749 0.73395,0.627459 1.24398,0.809693 0.44576,0.142778 0.99932,0.135265 1.4513,0 2.19563,-0.612434 2.26404,-3.999648 1.51559,-5.314703 -0.54735,-0.963757 -1.78926,-1.58183 -2.96689,-1.179798 -0.51003,0.172838 -0.84798,0.482807 -1.24398,0.800305 z m 10.98847,0.187864 c 0,0 0,-0.939319 0,-0.939319 0,0 -1.03665,0 -1.03665,0 0,0 0,6.387413 0,6.387413 0,0 1.03665,0 1.03665,0 0,-1.621276 -0.35454,-6.075562 2.69528,-5.551417 0.40844,0.07135 0.87079,0.308095 1.24397,0.47906 -0.0103,-0.279927 0.0103,-0.627477 -0.12439,-0.88673 -0.40014,-0.781515 -1.86182,-0.666923 -2.56259,-0.343794 -0.46028,0.212294 -0.85213,0.5636 -1.25227,0.854787 z m 13.06176,4.133039 c -1.42851,0.497841 -3.14105,1.020103 -4.20257,-0.385123 -0.28197,-0.375736 -0.4043,-0.879208 -0.56602,-1.30566 0,0 5.18324,0 5.18324,0 -0.0518,-1.001322 -0.20525,-2.220576 -1.08019,-2.926945 -1.60887,-1.30003 -5.06297,-0.621838 -5.13555,2.551209 -0.0331,1.414621 0.33588,2.611328 1.86182,3.274495 0.80029,0.34755 3.13275,0.482815 3.73401,-0.216041 0.22806,-0.266775 0.19489,-0.674445 0.20526,-0.991935 z m 25.08686,-4.320903 c 0,0 0,-0.751455 0,-0.751455 0,0 -1.03665,0 -1.03665,0 0,0 0,6.387413 0,6.387413 0,0 1.03665,0 1.03665,0 0,-1.1441 -0.15135,-3.545017 0.34209,-4.50501 0.32137,-0.629341 1.103,-1.29439 1.91573,-0.929932 0.85835,0.381367 0.84798,1.316938 0.85213,2.053368 0,0 0,3.381574 0,3.381574 0,0 1.24397,0 1.24397,0 0,-1.14973 0.11818,-4.13303 -0.19489,-5.072357 -0.41258,-1.238045 -1.57155,-1.80351 -2.91505,-1.313182 -0.49966,0.182234 -0.83346,0.448999 -1.24398,0.749581 z m 12.6471,4.69663 c 0.32758,1.085863 -0.0125,2.250627 -1.4513,2.382136 -0.46234,0.04315 -1.51143,-0.236714 -2.0733,-0.315616 0.0269,0.285556 0.0103,0.588021 0.21148,0.834122 0.53698,0.655645 3.36288,0.828483 4.2855,-0.837879 0.30892,-0.557961 0.26953,-1.26433 0.2716,-1.87489 0,0 0,-5.635958 0,-5.635958 0,0 -1.03665,0 -1.03665,0 0,0 0,0.751455 0,0.751455 -1.33312,-1.290634 -3.18665,-1.271852 -4.14659,0.38325 -0.58051,0.999439 -0.57015,2.932566 0,3.933896 0.83968,1.480381 2.86529,1.846713 3.93926,0.379484 z M 75.621721,39.100651 c 0,0 0,0.939319 0,0.939319 0,0 1.865965,0 1.865965,0 0,0 0,4.508767 0,4.508767 0,0 -2.487953,0 -2.487953,0 0,0 0,0.939327 0,0.939327 0,0 5.805225,0 5.805225,0 0,0 0,-0.939327 0,-0.939327 0,0 -2.280625,0 -2.280625,0 0,0 0,-5.448086 0,-5.448086 0,0 -2.902612,0 -2.902612,0 z m 88.322349,0 c 0,0 0,0.939319 0,0.939319 0,0 1.86597,0 1.86597,0 0,0 0,4.508767 0,4.508767 0,0 -2.48795,0 -2.48795,0 0,0 0,0.939327 0,0.939327 0,0 5.80523,0 5.80523,0 0,0 0,-0.939327 0,-0.939327 0,0 -2.28063,0 -2.28063,0 0,0 0,-5.448086 0,-5.448086 0,0 -2.90262,0 -2.90262,0 z m -54.73497,2.442247 c 0,0 -3.73193,0 -3.73193,0 0.51417,-2.18112 3.42923,-2.353958 3.73193,0 z m 17.41981,-1.602494 c 2.81969,-0.120231 2.50869,4.332172 0.6137,4.707899 -1.08641,0.214176 -1.7001,-0.56923 -1.92816,-1.414622 -0.3338,-1.245548 -0.13477,-2.771015 1.31446,-3.293277 z m 21.76545,1.602494 c 0,0 -3.73193,0 -3.73193,0 0.51419,-2.18112 3.42923,-2.353958 3.73193,0 z m 36.70562,-1.60625 c 2.83419,-0.19726 2.58332,4.202545 0.61369,4.544456 -2.22879,0.388888 -2.16659,-3.129835 -1.44923,-4.022194 0.29027,-0.362576 0.42295,-0.362576 0.83554,-0.522262 z m -27.37579,35.046269 c 4.12379,0 7.04713,-0.189737 10.98847,-1.465346 0,0 4.9759,-2.089058 4.9759,-2.089058 0,0 3.31727,-0.710135 3.31727,-0.710135 1.6545,-0.527901 2.80932,-1.399596 4.1466,-2.389648 0.51625,-0.383241 1.33935,-1.168521 2.065,-0.963749 1.42228,0.403914 1.34142,2.196146 0.76297,3.10917 -0.65102,1.027625 -1.36008,1.777207 -2.41331,2.487341 -1.37668,0.929933 -2.97311,1.356385 -3.15349,3.148617 -0.22391,2.209297 1.56326,2.879977 3.56814,3.231292 1.64828,0.287431 2.11062,0.238588 3.68011,0.281792 0,0 5.64972,0.604929 5.64972,0.604929 0.68626,0.10144 2.56467,0.353189 3.10994,0.556087 1.30204,0.480933 1.78304,1.502919 0.40637,2.260026 -0.75468,0.41518 -1.63168,0.39075 -2.47966,0.3776 0,0 -2.69528,0 -2.69528,0 0,0 -3.73193,-0.35131 -3.73193,-0.35131 -0.877,0.0395 -1.72499,0.38512 -1.72499,1.30379 0,1.20422 2.15415,1.78472 3.17629,2.14167 0,0 4.97591,1.83356 4.97591,1.83356 0.84383,0.32689 1.80377,0.63874 2.3988,1.30567 0.49552,0.55607 0.48515,1.00132 0.50382,1.672 -2.772,-0.002 -2.31588,-0.34755 -4.56126,-0.6688 -1.16519,-0.16721 -1.86182,-0.0282 -3.10994,-0.449 -1.21702,-0.40955 -3.73608,-1.77158 -4.97176,-1.56116 -1.99037,0.33816 -0.0311,2.11348 0.56601,2.73156 0,0 5.21434,4.83189 5.21434,4.83189 0.47686,0.47906 1.42227,1.58747 0.88736,2.25814 -0.62405,0.78341 -2.09609,-0.0358 -2.73259,-0.42081 -3.18874,-1.93126 -4.32283,-3.92076 -6.04781,-5.25271 -0.95579,-0.73831 -2.83419,-1.21173 -2.96481,0.40954 -0.0622,0.78153 0.78578,1.77533 1.21495,2.44225 0.77748,1.21173 1.94682,3.12608 2.10026,4.508775 0.15549,1.40147 -1.12374,2.36334 -2.34491,1.42214 -0.48722,-0.37574 -1.2191,-1.621295 -1.54046,-2.173605 0,0 -1.40362,-2.63012 -1.40362,-2.63012 -0.50381,-1.09901 -0.74846,-1.92374 -1.41191,-3.00585 -0.80858,-1.32069 -1.86804,-1.98009 -3.15141,-2.86118 -1.26056,-0.86606 -4.11549,-2.46104 -5.59789,-2.84429 0,0 -3.31728,-0.30622 -3.31728,-0.30622 0,0 -2.69528,0 -2.69528,0 -0.41259,0 -1.37459,-0.0658 -1.62339,0.28932 -0.481,0.68759 1.48863,0.71764 1.83071,0.75898 2.13965,0.25549 4.41198,0.0244 6.42723,0.80593 3.00627,1.16665 6.11828,2.77853 7.71472,5.47252 0,0 2.80932,5.635965 2.80932,5.635965 0.6987,1.23992 1.45753,2.19615 3.1597,2.04586 2.07744,-0.18412 2.3449,-2.04022 1.96341,-3.548775 -0.12648,-0.49785 -0.73188,-1.74528 -0.99104,-2.25439 0,0 -2.00902,-3.94517 -2.00902,-3.94517 1.21288,0.52226 1.89293,1.52921 2.81553,2.38965 1.55705,1.45031 2.41747,2.12663 4.23367,3.28388 0.72151,0.46027 1.58608,1.15161 2.48796,1.23051 2.05256,0.176605 2.45064,-1.85422 1.63583,-3.14674 0,0 -7.02639,-7.13888 -7.02639,-7.13888 1.29165,0.18411 3.17628,1.00133 4.56124,1.40523 0,0 3.10994,0.55984 3.10994,0.55984 0,0 2.0733,0.4753 2.0733,0.4753 1.49899,0.3081 3.48935,0.71201 3.70913,-1.31317 0.20317,-1.88054 -1.21496,-2.5437 -2.87981,-3.15614 0,0 -5.80523,-2.0515 -5.80523,-2.0515 -1.19422,-0.45464 -1.62961,-0.40391 -2.48796,-1.36766 1.52595,-0.40767 2.56467,-0.002 4.1466,0 0,0 3.73193,0 3.73193,0 0.96201,-0.002 1.85767,0.0226 2.68077,-0.50724 1.38911,-0.88484 1.36008,-2.513635 0,-3.389087 -1.42436,-0.907394 -5.31593,-0.858552 -7.24202,-1.363906 1.83279,-2.171725 3.30276,-1.850469 6.01255,-1.878647 1.273,-0.01504 2.51492,-0.326894 3.73193,-0.644384 1.04909,-0.272405 3.19081,-0.798424 3.57022,-1.805384 0.31306,-0.830366 -0.41673,-1.754668 -1.29374,-1.978222 -0.90603,-0.231076 -4.66906,0.216041 -5.80107,0.34755 -0.55772,0.06576 -2.23916,0.281792 -2.23916,-0.597416 0,-0.557953 2.12097,-1.480372 2.65381,-1.739634 0,0 5.80107,-2.936332 5.80107,-2.936332 0.95373,-0.638737 1.57158,-1.563039 1.40778,-2.669557 -0.20733,-1.414631 -1.56534,-1.542375 -2.85493,-1.36015 -2.20598,0.309969 -4.38295,2.03646 -6.21989,3.186198 -0.47892,0.2987 -1.97377,1.378932 -2.53563,0.860417 -0.65723,-0.606803 0.76712,-2.549335 1.19007,-3.062201 1.62339,-1.961314 4.70431,-4.238245 5.44447,-6.575286 0.4499,-1.422143 -0.75675,-2.926945 -2.44027,-2.678961 -1.03665,0.152173 -1.85767,1.082106 -2.5232,1.739633 0,0 -2.45063,2.442247 -2.45063,2.442247 0,0 -3.31934,3.945175 -3.31934,3.945175 -0.12025,-0.424578 -0.311,-0.875451 -0.30893,-1.315055 0,-0.522271 0.59504,-2.408431 0.7837,-3.005847 0.53078,-1.672001 0.94543,-2.957005 1.23362,-4.696631 0.16793,-1.016355 -0.16379,-2.628236 -1.70839,-2.308872 -0.93714,0.193503 -2.02976,1.440925 -2.59577,2.122883 -1.99658,2.402791 -2.72017,5.316585 -3.84182,8.07633 -0.43539,1.070829 -1.95926,3.443569 -3.51423,3.062202 -0.88737,-0.217923 -1.71047,-1.420261 -2.11891,-2.122874 -1.30825,-2.260022 -1.48241,-5.57209 -4.9303,-5.908362 -0.84175,-0.0808 -2.22672,0.199133 -2.50661,1.033255 -0.22806,0.678192 0.77127,3.958327 1.00763,4.875107 0.45198,2.415944 0.0601,3.663375 0,6.011686 0.0435,0.672562 0.0622,2.690239 -0.31308,3.167416 -0.59917,0.758968 -1.83072,0.727034 -2.74919,0.792784 0,0 -2.28062,0.306221 -2.28062,0.306221 -1.56327,0.176595 -4.07817,-0.02441 -4.97591,1.369536 z m 43.12454,-0.563591 c -2.75126,1.191068 -4.77273,1.844839 -7.87852,1.878655 -0.99726,0.0094 -1.93853,-0.06576 -2.90262,0.234824 -2.4838,0.774011 -2.0878,2.48171 -4.14658,2.361471 0,0 -2.69529,-0.289313 -2.69529,-0.289313 -1.38703,-0.150291 -3.0975,-0.07891 -3.67387,-1.559274 -0.70908,-1.809149 0.97859,-2.384018 2.20391,-3.199359 1.40983,-0.937445 3.46032,-2.859303 3.67387,-4.49937 0.21563,-1.645698 -2.01939,-3.118566 -2.91298,-2.941971 -0.49136,0.09581 -1.18799,0.732673 -1.57155,1.035138 -0.84176,0.665049 -1.92403,1.469103 -2.90262,1.946279 -2.02353,0.982548 -2.87565,0.680084 -4.76858,1.228649 -1.87218,0.541053 -2.48588,1.085863 -4.14658,1.737752 -0.29649,-1.021986 -0.0125,-1.578065 0,-2.630111 0.0269,-2.385892 -0.0581,-4.987826 -0.5826,-7.32675 -0.16379,-0.730799 -1.00348,-3.122321 -0.63858,-3.699073 0.43955,-0.691336 2.25575,-0.293069 2.87152,0 2.14171,1.01823 1.47618,4.392291 3.49557,6.498266 0.64895,0.676318 1.90744,1.420261 2.93994,1.206102 2.00488,-0.413309 3.13482,-2.021434 3.81901,-3.629558 1.06567,-2.502367 1.62961,-4.792458 3.2136,-7.138886 0.40222,-0.593651 1.23569,-1.594981 1.88255,-1.950045 1.04909,-0.578625 1.27923,0.229202 1.20873,1.010717 0,0 -2.22257,7.138877 -2.22257,7.138877 -0.15757,0.864183 -0.0248,2.301352 1.22117,2.440373 0.78371,0.08642 1.62132,-0.805944 2.02975,-1.315055 2.03598,-2.545579 1.78097,-2.817983 4.6048,-5.250835 0.6676,-0.574869 2.44027,-1.983861 3.27995,-0.866065 0.69455,0.92242 -0.50796,2.391531 -1.09884,3.112935 0,0 -5.09409,5.635958 -5.09409,5.635958 -0.42295,0.661284 -1.04287,1.878656 -0.6054,2.618842 0.75052,1.279365 2.32624,0.550448 3.31105,0 0,0 5.80522,-3.479268 5.80522,-3.479268 0.7381,-0.321246 1.93646,-0.659401 2.57089,0 1.02213,1.068955 -0.68418,2.303234 -1.53423,2.844287 0,0 -6.84188,3.265092 -6.84188,3.265092 -0.75468,0.394518 -1.84316,1.130956 -1.49485,2.059006 0.23636,0.62935 1.23361,1.025743 1.9095,1.104653 0,0 5.18325,-0.505363 5.18325,-0.505363 1.12579,-0.06954 2.08365,-0.182233 2.48795,0.92242 z M 119.99023,59.61178 c -1.14031,0.402031 -2.1583,0.854786 -3.27373,0 -1.3663,-0.976901 -1.20458,-3.704704 0.78578,-4.230723 0.8687,-0.227319 1.68558,0.197259 2.48795,0.439604 -0.0269,-0.304339 -0.0145,-0.591778 -0.21148,-0.860426 -0.59296,-0.805936 -2.46099,-0.717647 -3.31312,-0.34755 -1.3974,0.606812 -1.85975,1.762172 -1.85975,3.086631 0,1.324451 0.46235,2.47982 1.85975,3.086623 0.85213,0.370098 2.72016,0.458386 3.31312,-0.34755 0.19697,-0.268648 0.18453,-0.556087 0.21148,-0.826609 z m 4.56124,-3.978983 c 2.1666,-0.302465 3.18667,-1.059567 4.14659,1.315055 -1.2813,0 -3.04566,-0.152173 -4.06573,0.685706 -1.22324,1.005077 -0.74431,3.195584 1.37045,3.40976 1.16105,0.116475 1.78303,-0.368215 2.69528,-0.901755 0,0 0,0.751456 0,0.751456 0,0 1.03665,0 1.03665,0 0,-1.303787 0.30478,-4.662814 -0.52039,-5.615285 -1.19422,-1.380814 -3.99939,-1.010717 -4.45137,-0.475303 -0.20111,0.240471 -0.18452,0.548557 -0.21148,0.830366 z m 10.36648,-0.751464 c 0,0 -1.24398,-0.375728 -1.24398,-0.375728 0,0 0,6.387414 0,6.387414 0,0 1.05532,0 1.05532,0 0,0 0,-4.13303 0,-4.13303 0.0684,-0.400158 0.23012,-1.277492 0.82724,-1.277492 0.88322,0 0.81065,1.322577 0.81272,1.841083 0,0 0,3.569439 0,3.569439 0,0 1.05532,0 1.05532,0 0,0 0,-4.13303 0,-4.13303 0.0684,-0.400158 0.23013,-1.277492 0.82725,-1.277492 0.88321,0 0.81065,1.322577 0.81271,1.841083 0,0 0,3.569439 0,3.569439 0,0 1.03665,0 1.03665,0 0,0 -0.11817,-5.444329 -0.11817,-5.444329 -0.43125,-1.32446 -1.66278,-1.348881 -2.57711,-0.379493 -0.9475,-0.71953 -1.48033,-1.027625 -2.48795,-0.187864 z m 10.15914,0.375728 c 0,0 0,-0.751456 0,-0.751456 0,0 -1.03665,0 -1.03665,0 0,0 0,8.829669 0,8.829669 0,0 1.03665,0 1.03665,0 0,0 0,-3.193711 0,-3.193711 0.396,0.317491 0.73395,0.627468 1.24398,0.800298 1.17763,0.402039 2.41954,-0.216042 2.96689,-1.17979 0.74845,-1.315056 0.68004,-4.702269 -1.51559,-5.314703 -0.45197,-0.135265 -1.00554,-0.142787 -1.4513,0 -0.51003,0.182225 -0.84798,0.492203 -1.24398,0.809693 z m 1.45546,0.0883 c 2.81968,-0.120231 2.50869,4.33218 0.6137,4.707899 -1.08642,0.214176 -1.70011,-0.569221 -1.92817,-1.414622 -0.3338,-1.245548 -0.13476,-2.771006 1.31447,-3.293277 z m -17.83449,2.541822 c -0.1389,0.465908 -0.26123,1.093367 -0.56601,1.482255 -0.51625,0.657527 -1.88462,1.093375 -2.59784,0.445234 -0.44575,-0.403905 -0.58259,-1.478498 0.68005,-1.820409 0.41465,-0.112719 1.00969,-0.105206 1.44715,-0.10708 0,0 1.03665,0 1.03665,0 z m -54.734974,1.127192 c 1.049085,0.531657 1.946823,0.405787 3.109941,0.497841 0,0 7.049203,0.253614 7.049203,0.253614 -0.263309,1.046416 -0.771266,1.052046 -1.743641,1.585586 -1.507286,0.828492 -4.387092,2.69587 -6.11622,2.524914 0,0 -1.478259,-0.328768 -1.478259,-0.328768 0,0 -4.326967,-0.232949 -4.326967,-0.232949 0,0 -1.478259,-0.358829 -1.478259,-0.358829 0,0 -1.443014,0 -1.443014,0 0,0 -2.487954,-0.37761 -2.487954,-0.37761 0,0 -1.623389,0 -1.623389,0 0,0 -1.287517,-0.345667 -1.287517,-0.345667 0,0 -3.688391,-0.257379 -3.688391,-0.257379 0,0 -1.090553,-0.281792 -1.090553,-0.281792 0,0 -3.091283,-0.247984 -3.091283,-0.247984 0,0 -2.883953,0 -2.883953,0 -1.256416,-0.140904 -0.319288,-0.364458 -2.921272,-0.364458 0.791998,-0.294952 1.64205,-0.264892 2.469294,-0.422704 0,0 1.281296,-0.386997 1.281296,-0.386997 0,0 1.60473,-0.217933 1.60473,-0.217933 0,0 1.287517,-0.38887 1.287517,-0.38887 0,0 2.66833,-0.319373 2.66833,-0.319373 2.035975,-0.381367 3.914381,-1.059559 6.031214,-1.082106 0,0 5.76998,0.232958 5.76998,0.232958 1.078114,0.170956 3.389838,0.839752 4.389167,0.518506 z m 11.81778,1.878647 c 0,0 -0.379413,5.260238 -0.379413,5.260238 -0.08915,0.837879 0.107811,1.7246 -0.252942,2.521141 -0.568083,1.251187 -0.972375,1.181681 -2.062929,1.935019 -1.152752,0.794667 -3.21568,2.08531 -4.536369,2.494854 0,0 0,-2.22245 0,-2.22245 0,0 0.38978,-1.910589 0.38978,-1.910589 0,0 0.207329,-4.696639 0.207329,-4.696639 0,0 2.199766,-1.110283 2.199766,-1.110283 0,0 1.679369,-0.678192 1.679369,-0.678192 0,0 2.755409,-1.593099 2.755409,-1.593099 z m -8.707839,7.702485 c 0,0 0.414659,0.375728 0.414659,0.375728 -0.605402,0.982539 -0.621988,3.685913 -0.621988,4.884494 0,0 -3.505942,-0.208529 -3.505942,-0.208529 0,0 -2.713943,-0.355063 -2.713943,-0.355063 0,0 0.621988,-2.254383 0.621988,-2.254383 2.792729,-1.2587 1.729128,-4.473076 -0.829317,-4.277691 -2.106469,0.159687 -3.874989,2.395279 -1.932311,3.898199 0.491371,0.381375 0.912249,0.448999 1.517651,0.567356 0,0 -0.621988,1.878656 -0.621988,1.878656 0,0 -1.865966,-0.180351 -1.865966,-0.180351 0,0 -3.32971,0 -3.32971,0 -0.02696,-0.774003 -0.310995,-1.732121 0,-2.432861 0.342093,-0.828483 1.355934,-1.24554 1.225316,-2.453516 -0.0539,-0.501606 -0.265381,-0.757094 -0.642721,-1.108409 -0.327581,-0.302456 -0.746387,-0.63499 -1.210805,-0.740186 -2.098174,-0.477186 -5.239215,2.733433 -2.44234,4.296481 0.462344,0.259253 1.107139,0.437721 1.631682,0.552322 0,0 0,1.502919 0,1.502919 0,0 -5.147991,-0.232949 -5.147991,-0.232949 0,0 -3.352518,-0.518506 -3.352518,-0.518506 0,0 0.20733,-1.878655 0.20733,-1.878655 1.053234,-0.02063 2.050488,-0.07513 2.883953,-0.732674 2.048416,-1.619402 1.430574,-3.298924 -1.225317,-3.659618 -0.346241,0.0017 -0.90603,-0.09205 -1.235684,0 -0.518324,0.03378 -0.866637,0.332525 -1.219098,0.659402 -1.457526,1.356393 -0.545276,1.995139 -0.690406,3.545026 -0.03732,0.396392 -0.132692,1.21548 -0.497591,1.495406 -0.545277,0.356946 -1.718762,0.06387 -2.369777,0 0,0 -3.091282,-0.195376 -3.091282,-0.195376 0,0 -1.090554,-0.317499 -1.090554,-0.317499 -0.578448,-0.08269 -1.615096,-0.04315 -2.245377,0 0.13269,-0.82661 1.113358,-1.931254 2.073294,-1.951919 0.760899,-0.01693 1.235684,0.918663 3.091283,0.385123 1.532165,-0.439604 2.423681,-1.777206 1.424354,-3.086631 0,0 -1.820353,-1.777207 -1.820353,-1.777207 0,0 -0.414659,0 -0.414659,0 0,0 -2.002803,1.191068 -2.002803,1.191068 0,0 -0.655161,1.901194 -0.655161,1.901194 0,0 -1.903285,1.228649 -1.903285,1.228649 0,0 0,-2.630119 0,-2.630119 0,0 0,-3.757302 0,-3.757302 0,0 1.666929,0.351306 1.666929,0.351306 0,0 9.943522,0.422696 9.943522,0.422696 0,0 2.245379,0 2.245379,0 0,0 1.287516,0.328768 1.287516,0.328768 0,0 3.481062,0.257371 3.481062,0.257371 0,0 1.090554,0.321255 1.090554,0.321255 0,0 1.847304,0 1.847304,0 0,0 1.865966,0.368215 1.865966,0.368215 0,0 1.639976,0 1.639976,0 0,0 1.281296,0.375727 1.281296,0.375727 0,0 1.432647,0 1.432647,0 0,0 3.282026,0.249858 3.282026,0.249858 0,0 1.090554,0.2818 1.090554,0.2818 0.447832,0.07513 1.161045,0.01315 1.521798,0.268648 0.356606,0.255497 0.317214,0.727043 0.325507,1.095249 0.01245,0.687597 0.186596,1.578074 -0.414659,2.066528 z M 47.010251,67.84404 c 0,0 1.658636,-0.563591 1.658636,-0.563591 0,0 0,-0.375736 0,-0.375736 0,0 -2.280624,0 -2.280624,0 0.713213,-2.50425 3.522528,-1.234271 3.474842,0.375736 -0.0311,1.072711 -2.301358,1.987609 -2.852854,0.563591 z m 8.08585,1.315056 c 0.395999,-0.578626 0.524543,-0.586139 1.243977,-0.751456 -0.619915,-1.191067 -1.281296,-0.822853 -2.073295,0 0,0 -0.621988,-0.5636 -0.621988,-0.5636 0,0 0,-0.375727 0,-0.375727 0.271602,-0.225445 0.54113,-0.511002 0.883224,-0.644385 0.690406,-0.272405 2.558445,-0.484689 3.053962,0.18599 0.777487,1.04829 -1.648269,2.051494 -2.48588,2.149178 z m 9.122498,0.187864 c 0,0 -0.621989,-0.187864 -0.621989,-0.187864 0,0 0.414659,-0.375728 0.414659,-0.375728 0,0 -0.414659,-0.751464 -0.414659,-0.751464 0,0 -1.036647,0 -1.036647,0 0,0 0,1.878656 0,1.878656 -0.350388,-0.02441 -0.644795,-0.01693 -0.968229,-0.174712 -2.606131,-1.277492 2.801022,-4.645915 2.805168,-1.51608 0,0 -0.178303,1.127192 -0.178303,1.127192 z m 6.841873,-1.878647 c 0.281968,0.178468 0.653088,0.381358 0.833464,0.651888 0.468565,0.708253 0.242576,1.514189 -0.626135,1.790359 0,0 0,-0.751464 0,-0.751464 0,0 -1.243977,-0.375728 -1.243977,-0.375728 0,0 -0.621988,0.563592 -0.621988,0.563592 0,0 0.414659,0.751463 0.414659,0.751463 -1.544605,-0.356945 -1.488625,-1.446564 -0.713213,-1.959439 0.518324,-0.343794 0.970301,-0.170956 1.95719,-0.670671 z"
       id="Auswahl"
       inkscape:connector-curvature="0"
       style="fill:#ffffff;stroke:#ffffff;stroke-width:0.197358" />
  </g>
</svg>
