<svg version="1.1" xmlns="http://www.w3.org/2000/svg" xmlns:xlink="http://www.w3.org/1999/xlink" width="503.98127" height="417.49146" viewBox="306.30543,398.00854,503.98127,417.49146"><g fill="none" fill-rule="nonzero" stroke="none" stroke-width="none" stroke-linecap="butt" stroke-linejoin="miter" stroke-miterlimit="10" stroke-dasharray="" stroke-dashoffset="0" font-family="none" font-weight="none" font-size="none" text-anchor="none" style="mix-blend-mode: normal"><path d="M756.52065,770.2654l-8.0548,-15.27546l-12.8594,1.70387l-5.66526,-12.65345l-8.08412,-6.33363l-7.68462,-9.56796l-12.32998,-8.29525l-7.12186,-7.49609l-5.1073,-13.95879l-7.86331,-4.57945l-0.66249,-10.43092l-7.75136,-7.23077l-7.64543,-9.83478l-3.26646,-8.7033l1.14434,-11.74657l-8.78408,-10.61315l0.89555,-9.00807l-7.61862,-10.33538l-2.49688,-13.14275l2.51407,-12.90691l-9.041,-7.05022l-0.72417,-9.52257l0.0429,-10.73101l2.73356,-13.88702l9.22644,-12.72914l1.12573,-10.39147l13.75771,-9.32809l8.04277,-8.27478l90.59623,260.88704z" fill="#d0d0ce" stroke="none" stroke-width="1"/><path d="M381.64256,690.68259l-8.35936,-32.42709" fill="none" stroke="none" stroke-width="1"/><path d="" fill="none" stroke="#00bb31" stroke-width="6" opacity="0"/><path d="M593.47273,565.15183l38.83254,-167.03902l103.99995,-0.10427l-3.16137,11.18994l-11.33167,2.17976l-16.62034,-0.22856l-6.87231,7.87536l-14.85236,5.15417l-10.19183,9.82082l-6.1789,8.77369l-4.85813,8.22207l3.37623,10.95657l-9.45074,9.14289l-5.47733,12.20513l0.32921,12.83569l-5.89156,6.87291l1.12573,13.73069l-7.66339,8.97574l-2.30468,9.00587l0.6378,12.44061l2.2155,10.36625l-5.42875,8.9315l3.82522,8.25656l-3.80427,14.36871l1.54748,10.22338l5.36003,13.86036l0.82269,12.24428l3.00196,9.82121l-2.59947,13.61792l11.5188,5.96529l-2.14147,17.13574l6.82227,3.0124l-26.88133,95.14868l-75.49996,0.0757l-34.15739,-156.96583l-38.84257,157.03902l-80.49996,0.08071l-20.5358,-79.66114l9.16877,-2.5038l8.96077,-10.19702l8.20087,-10.84706l4.2915,-15.50719l4.62109,-11.27737l12.54969,-0.54717l-1.9983,-14.30784l9.29036,-5.9672l11.66212,-7.11943l-4.41914,-4.93872l4.92894,-9.30638l14.82026,-7.8166l7.3311,-12.90704l4.84081,-8.45749l2.56111,-10.40761l8.31073,-9.43712l15.33053,-8.1349l-16.32904,4.26153l-8.80999,7.50044l-3.06037,8.47092l-5.34007,6.52081l-7.83036,10.97036l-15.21076,5.83817l-2.41793,-4.97362l1.04804,6.84046l-5.26915,7.62545l-6.64015,8.04061l-9.78962,4.03052l1.49904,12.37115l-13.04895,-1.38951l-5.12034,9.34069l-4.79075,13.57051l-8.70013,8.91038l-9.46003,8.26034l-9.54003,1.06365l-66.97777,-259.81583l98.99995,-0.09926l39.66742,166.96031l38.83254,-167.03902l70.49996,-0.07068z" fill="#d0d0ce" stroke="none" stroke-width="1"/><path d="M387.6867,725.6l-7.8,33.4l-7.8,-33.4h-14.1l-7.8,33.4l-7.9,-33.4h-19.8l19.1,74.4h16.1l7.8,-31.4l6.8,31.4h15.1l21.1,-74.4zM315.8867,815.5v-104.6h494.4v104.6zM437.0867,800v-74.4h-16.8v74.4zM498.9867,725.6h-20.8l-12.1,17.3v-17.3h-16.8v74.4h16.8v-16.1l12,16.1h20.8l-27.6,-37.1zM528.3867,800v-74.4h-16.8v74.4zM540.5867,725.6v74.4h17.1v-26.2h5.6c3.2,0 6.1,-0.58333 8.7,-1.75c2.6,-1.16667 4.81667,-2.81667 6.65,-4.95c1.83333,-2.13333 3.25,-4.66667 4.25,-7.6c1,-2.93333 1.5,-6.2 1.5,-9.8c0,-3.66667 -0.5,-6.98333 -1.5,-9.95c-1,-2.96667 -2.41667,-5.5 -4.25,-7.6c-1.83333,-2.1 -4.05,-3.71667 -6.65,-4.85c-2.6,-1.13333 -5.5,-1.7 -8.7,-1.7zM635.8867,780.4l6.7,19.6h19.1l-21.8,-74.4h-22.4l-21.8,74.4h19.1l6.6,-19.6zM724.4867,725.6h-20.8l-12.1,17.3v-17.3h-16.8v74.4h16.8v-16.1l12,16.1h20.8l-27.6,-37.1zM776.3867,780.4l6.7,19.6h19.1l-21.8,-74.4h-22.4l-21.8,74.4h19.1l6.6,-19.6z" fill="#fe5000" stroke="none" stroke-width="1"/></g></svg>