<svg version="1.1" xmlns="http://www.w3.org/2000/svg" xmlns:xlink="http://www.w3.org/1999/xlink" width="653.5" height="653.5" viewBox="606,138.53333,653.5,653.5"><g fill="none" fill-rule="nonzero" stroke="none" stroke-width="none" stroke-linecap="none" stroke-linejoin="miter" stroke-miterlimit="10" stroke-dasharray="none" stroke-dashoffset="0" font-family="none" font-weight="none" font-size="none" text-anchor="none" style="mix-blend-mode: normal"><g stroke="none"><path d="M659,791.53333v-600h600v600z" fill="#000000" stroke-width="1" stroke-linecap="butt" stroke-dasharray=""/><path transform="translate(658.5,191.03333) scale(1.01,1.01)" d="M0,100v-100h100v100z" fill="#002a3a" stroke-width="3" stroke-linecap="round" stroke-dasharray="4,10"/><path transform="translate(657.5,191.03333) scale(1.01,1.01)" d="M100,100v-100h100v100z" fill="none" stroke-width="3" stroke-linecap="round" stroke-dasharray="4,10"/><path transform="translate(656.5,191.03333) scale(1.01,1.01)" d="M200,100v-100h100v100z" fill="none" stroke-width="3" stroke-linecap="round" stroke-dasharray="4,10"/><path transform="translate(655.5,191.03333) scale(1.01,1.01)" d="M300,100v-100h100v100z" fill="none" stroke-width="3" stroke-linecap="round" stroke-dasharray="4,10"/><path transform="translate(654.5,191.03333) scale(1.01,1.01)" d="M400,100v-100h100v100z" fill="none" stroke-width="3" stroke-linecap="round" stroke-dasharray="4,10"/><path transform="translate(653.5,191.03333) scale(1.01,1.01)" d="M500,100v-100h100v100z" fill="none" stroke-width="3" stroke-linecap="round" stroke-dasharray="4,10"/><path transform="translate(658.5,190.03333) scale(1.01,1.01)" d="M0,200v-100h100v100z" fill="#0076a9" stroke-width="3" stroke-linecap="round" stroke-dasharray="4,10"/><path transform="translate(657.5,190.03333) scale(1.01,1.01)" d="M100,200v-100h100v100z" fill="#002a3a" stroke-width="3" stroke-linecap="round" stroke-dasharray="4,10"/><path transform="translate(656.5,190.03333) scale(1.01,1.01)" d="M200,200v-100h100v100z" fill="none" stroke-width="3" stroke-linecap="round" stroke-dasharray="4,10"/><path transform="translate(655.5,190.03333) scale(1.01,1.01)" d="M300,200v-100h100v100z" fill="none" stroke-width="3" stroke-linecap="round" stroke-dasharray="4,10"/><path transform="translate(654.5,190.03333) scale(1.01,1.01)" d="M400,200v-100h100v100z" fill="none" stroke-width="3" stroke-linecap="round" stroke-dasharray="4,10"/><path transform="translate(653.5,190.03333) scale(1.01,1.01)" d="M500,200v-100h100v100z" fill="none" stroke-width="3" stroke-linecap="round" stroke-dasharray="4,10"/><path transform="translate(658.5,189.03333) scale(1.01,1.01)" d="M0,300v-100h100v100z" fill="#05b9ec" stroke-width="3" stroke-linecap="round" stroke-dasharray="4,10"/><path transform="translate(657.5,189.03333) scale(1.01,1.01)" d="M100,300v-100h100v100z" fill="#025d84" stroke-width="3" stroke-linecap="round" stroke-dasharray="4,10"/><path transform="translate(656.5,189.03333) scale(1.01,1.01)" d="M200,300v-100h100v100z" fill="none" stroke-width="3" stroke-linecap="round" stroke-dasharray="4,10"/><path transform="translate(655.5,189.03333) scale(1.01,1.01)" d="M300,300v-100h100v100z" fill="none" stroke-width="3" stroke-linecap="round" stroke-dasharray="4,10"/><path transform="translate(654.5,189.03333) scale(1.01,1.01)" d="M400,300v-100h100v100z" fill="none" stroke-width="3" stroke-linecap="round" stroke-dasharray="4,10"/><path transform="translate(653.5,189.03333) scale(1.01,1.01)" d="M500,300v-100h100v100z" fill="none" stroke-width="3" stroke-linecap="round" stroke-dasharray="4,10"/><path transform="translate(658.5,188.03333) scale(1.01,1.01)" d="M0,400v-100h100v100z" fill="#05b9ec" stroke-width="3" stroke-linecap="round" stroke-dasharray="4,10"/><path transform="translate(657.5,188.03333) scale(1.01,1.01)" d="M100,400v-100h100v100z" fill="#0076a9" stroke-width="3" stroke-linecap="round" stroke-dasharray="4,10"/><path transform="translate(656.5,188.03333) scale(1.01,1.01)" d="M200,400v-100h100v100z" fill="#002a3a" stroke-width="3" stroke-linecap="round" stroke-dasharray="4,10"/><path transform="translate(655.5,188.03333) scale(1.01,1.01)" d="M300,400v-100h100v100z" fill="none" stroke-width="3" stroke-linecap="round" stroke-dasharray="4,10"/><path transform="translate(654.5,188.03333) scale(1.01,1.01)" d="M400,400v-100h100v100z" fill="none" stroke-width="3" stroke-linecap="round" stroke-dasharray="4,10"/><path transform="translate(653.5,188.03333) scale(1.01,1.01)" d="M500,400v-100h100v100z" fill="none" stroke-width="3" stroke-linecap="round" stroke-dasharray="4,10"/><path transform="translate(658.5,187.03333) scale(1.01,1.01)" d="M0,500v-100h100v100z" fill="#05b9ec" stroke-width="3" stroke-linecap="round" stroke-dasharray="4,10"/><path transform="translate(657.5,187.03333) scale(1.01,1.01)" d="M100,500v-100h100v100z" fill="#025d84" stroke-width="3" stroke-linecap="round" stroke-dasharray="4,10"/><path transform="translate(656.5,187.03333) scale(1.01,1.01)" d="M200,500v-100h100v100z" fill="none" stroke-width="3" stroke-linecap="round" stroke-dasharray="4,10"/><path transform="translate(655.5,187.03333) scale(1.01,1.01)" d="M300,500v-100h100v100z" fill="none" stroke-width="3" stroke-linecap="round" stroke-dasharray="4,10"/><path transform="translate(654.5,187.03333) scale(1.01,1.01)" d="M400,500v-100h100v100z" fill="none" stroke-width="3" stroke-linecap="round" stroke-dasharray="4,10"/><path transform="translate(653.5,187.03333) scale(1.01,1.01)" d="M500,500v-100h100v100z" fill="none" stroke-width="3" stroke-linecap="round" stroke-dasharray="4,10"/><path transform="translate(658.5,186.03333) scale(1.01,1.01)" d="M0,600v-100h100v100z" fill="#025d84" stroke-width="3" stroke-linecap="round" stroke-dasharray="4,10"/><path transform="translate(657.5,186.03333) scale(1.01,1.01)" d="M100,600v-100h100v100z" fill="#002a3a" stroke-width="3" stroke-linecap="round" stroke-dasharray="4,10"/><path transform="translate(656.5,186.03333) scale(1.01,1.01)" d="M200,600v-100h100v100z" fill="none" stroke-width="3" stroke-linecap="round" stroke-dasharray="4,10"/><path transform="translate(655.5,186.03333) scale(1.01,1.01)" d="M300,600v-100h100v100z" fill="none" stroke-width="3" stroke-linecap="round" stroke-dasharray="4,10"/><path transform="translate(654.5,186.03333) scale(1.01,1.01)" d="M400,600v-100h100v100z" fill="none" stroke-width="3" stroke-linecap="round" stroke-dasharray="4,10"/><path transform="translate(653.5,186.03333) scale(1.01,1.01)" d="M500,600v-100h100v100z" fill="none" stroke-width="3" stroke-linecap="round" stroke-dasharray="4,10"/></g><path d="M659,391.53333v-100h100v100z" fill="none" stroke="none" stroke-width="3" stroke-linecap="round" stroke-dasharray="4,10"/><g stroke-linecap="butt" stroke-dasharray=""><path d="M609,741.53333v-600h600v600z" fill="none" stroke="#ffffff" stroke-width="6"/><g fill="#ffffff" stroke="none" stroke-width="1"><path d="M1179.875,716.53333h-99.75v-108h99.75v23.4h-76.2v18.9h61.35v23.4h-61.35v18.9h76.2z"/><path d="M982.25,716.53333h-23.25v-107.85h85.65c6.1,0 11.35,2.2 15.75,6.6c4.4,4.4 6.6,9.6 6.6,15.6v0v27.9c0,6 -2.2,11.2 -6.6,15.6c-4.4,4.4 -9.65,6.6 -15.75,6.6v0h-1.05l23.4,27.6v7.95h-24l-29.85,-35.55l-30.9,0.15zM987.2,657.58333v0h51.3c3.3,0 4.95,0 4.95,0c0,0 0,-1.65 0,-4.95v0v-15.75c0,-3.3 0,-4.95 0,-4.95c0,0 -1.65,0 -4.95,0v0h-51.3c-3.3,0 -4.95,0 -4.95,0c0,0 0,1.65 0,4.95v0v15.75c0,3.3 0,4.95 0,4.95c0,0 1.65,0 4.95,0z"/><path d="M927.8,716.53333h-63.6c-6.1,0 -11.32333,-2.17333 -15.67,-6.52c-4.35333,-4.35333 -6.53,-9.58 -6.53,-15.68v0v-85.8h23.25v79.65c0,3.3 0,4.95 0,4.95c0,0 1.65,0 4.95,0v0h51.3c3.3,0 4.95,0 4.95,0c0,0 0,-1.65 0,-4.95v0v-79.65h23.55v85.8c0,6.1 -2.2,11.32667 -6.6,15.68c-4.4,4.34667 -9.6,6.52 -15.6,6.52z"/><path d="M790.7,716.53333h-23.4v-84.6h-42.3v-23.4h108v23.4h-42.3z"/><path d="M1161.8,599.53333h-63.6c-6.1,0 -11.32333,-2.17333 -15.67,-6.52c-4.35333,-4.35333 -6.53,-9.58 -6.53,-15.68v0v-85.8h23.25v79.65c0,3.3 0,4.95 0,4.95c0,0 1.65,0 4.95,0v0h51.3c3.3,0 4.95,0 4.95,0c0,0 0,-1.65 0,-4.95v0v-79.65h23.55v85.8c0,6.1 -2.2,11.32667 -6.6,15.68c-4.4,4.34667 -9.6,6.52 -15.6,6.52z"/><path d="M986.675,599.53333h-23.55v-108h99.75v23.4h-76.2v18.9h61.35v23.4h-61.35z"/><path d="M907.475,535.63333h-22.95v-23.1h22.95zM907.475,599.53333h-22.95v-22.95h22.95z"/><path d="M790.7,599.53333h-23.4v-84.6h-42.3v-23.4h108v23.4h-42.3z"/><path d="M1161.8,482.53333h-63.6c-6.1,0 -11.32333,-2.17333 -15.67,-6.52c-4.35333,-4.35333 -6.53,-9.58 -6.53,-15.68v0v-85.8h23.25v79.65c0,3.3 0,4.95 0,4.95c0,0 1.65,0 4.95,0v0h51.3c3.3,0 4.95,0 4.95,0c0,0 0,-1.65 0,-4.95v0v-79.65h23.55v85.8c0,6.1 -2.2,11.32667 -6.6,15.68c-4.4,4.34667 -9.6,6.52 -15.6,6.52z"/><path d="M1044.8,482.53333h-63.6c-6.1,0 -11.32333,-2.17333 -15.67,-6.52c-4.35333,-4.35333 -6.53,-9.58 -6.53,-15.68v0v-63.6c0,-6.1 2.17667,-11.32333 6.53,-15.67c4.34667,-4.35333 9.57,-6.53 15.67,-6.53v0h63.6c6,0 11.2,2.17667 15.6,6.53c4.4,4.34667 6.6,9.57 6.6,15.67v0v63.6c0,6.1 -2.2,11.32667 -6.6,15.68c-4.4,4.34667 -9.6,6.52 -15.6,6.52zM987.2,459.13333v0h51.3c3.3,0 4.95,0 4.95,0c0,0 0,-1.65 0,-4.95v0v-51.3c0,-3.3 0,-4.95 0,-4.95c0,0 -1.65,0 -4.95,0v0h-51.3c-3.3,0 -4.95,0 -4.95,0c0,0 0,1.65 0,4.95v0v51.3c0,3.3 0,4.95 0,4.95c0,0 1.65,0 4.95,0z"/><path d="M927.65,482.53333h-85.65v-108h81.6c6,0 11.2,2.17667 15.6,6.53c4.4,4.34667 6.6,9.57 6.6,15.67v0v20.25c0,1.3 -0.07667,2.52333 -0.23,3.67c-0.14667,1.15333 -0.42,2.23 -0.82,3.23v0c1.5,1.9 2.75,4.1 3.75,6.6c1,2.5 1.5,5 1.5,7.5v0v22.35c0,6.1 -2.2,11.32667 -6.6,15.68c-4.4,4.34667 -9.65,6.52 -15.75,6.52zM870.2,459.13333v0h51.3c3.3,0 4.95,0 4.95,0c0,0 0,-1.65 0,-4.95v0v-9.9c0,-3.3 0,-4.95 0,-4.95c0,0 -1.65,0 -4.95,0v0h-51.3c-3.3,0 -4.95,0 -4.95,0c0,0 0,1.65 0,4.95v0v9.9c0,3.3 0,4.95 0,4.95c0,0 1.65,0 4.95,0zM870.2,415.93333v0h47.1c3.3,0 4.95,0 4.95,0c0,0 0,-1.65 0,-4.95v0v-8.1c0,-3.3 0,-4.95 0,-4.95c0,0 -1.65,0 -4.95,0v0h-47.1c-3.3,0 -4.95,0 -4.95,0c0,0 0,1.65 0,4.95v0v8.1c0,3.3 0,4.95 0,4.95c0,0 1.65,0 4.95,0z"/><path d="M748.25,482.53333h-23.25v-85.8c0,-6.1 2.17333,-11.32333 6.52,-15.67c4.35333,-4.35333 9.58,-6.53 15.68,-6.53v0h63.45c6.1,0 11.35,2.17667 15.75,6.53c4.4,4.34667 6.6,9.57 6.6,15.67v0v85.8h-23.55v-34.8h-61.2zM748.25,402.88333v21.45h61.2v-21.45c0,-3.3 0,-4.95 0,-4.95c0,0 -1.65,0 -4.95,0v0h-51.3c-3.3,0 -4.95,0 -4.95,0c0,0 0,1.65 0,4.95z"/></g></g></g></svg>