<svg version="1.1" xmlns="http://www.w3.org/2000/svg" xmlns:xlink="http://www.w3.org/1999/xlink" width="653.5" height="653.5" viewBox="606,138.53333,653.5,653.5"><g fill="none" fill-rule="nonzero" stroke="none" stroke-width="none" stroke-linecap="none" stroke-linejoin="miter" stroke-miterlimit="10" stroke-dasharray="none" stroke-dashoffset="0" font-family="none" font-weight="none" font-size="none" text-anchor="none" style="mix-blend-mode: normal"><g stroke="none"><path d="M659,791.53333v-600h600v600z" fill="#000000" stroke-width="1" stroke-linecap="butt" stroke-dasharray=""/><path transform="translate(658.5,191.03333) scale(1.01,1.01)" d="M0,100v-100h100v100z" fill="none" stroke-width="3" stroke-linecap="round" stroke-dasharray="4,10"/><path transform="translate(657.5,191.03333) scale(1.01,1.01)" d="M100,100v-100h100v100z" fill="#1fa08e" stroke-width="3" stroke-linecap="round" stroke-dasharray="4,10"/><path transform="translate(656.5,191.03333) scale(1.01,1.01)" d="M200,100v-100h100v100z" fill="#02fae0" stroke-width="3" stroke-linecap="round" stroke-dasharray="4,10"/><path transform="translate(655.5,191.03333) scale(1.01,1.01)" d="M300,100v-100h100v100z" fill="#02fae0" stroke-width="3" stroke-linecap="round" stroke-dasharray="4,10"/><path transform="translate(654.5,191.03333) scale(1.01,1.01)" d="M400,100v-100h100v100z" fill="#02fae0" stroke-width="3" stroke-linecap="round" stroke-dasharray="4,10"/><path transform="translate(653.5,191.03333) scale(1.01,1.01)" d="M500,100v-100h100v100z" fill="#1fa08e" stroke-width="3" stroke-linecap="round" stroke-dasharray="4,10"/><path transform="translate(658.5,190.03333) scale(1.01,1.01)" d="M0,200v-100h100v100z" fill="none" stroke-width="3" stroke-linecap="round" stroke-dasharray="4,10"/><path transform="translate(657.5,190.03333) scale(1.01,1.01)" d="M100,200v-100h100v100z" fill="#1fa08e" stroke-width="3" stroke-linecap="round" stroke-dasharray="4,10"/><path transform="translate(656.5,190.03333) scale(1.01,1.01)" d="M200,200v-100h100v100z" fill="#02fae0" stroke-width="3" stroke-linecap="round" stroke-dasharray="4,10"/><path transform="translate(655.5,190.03333) scale(1.01,1.01)" d="M300,200v-100h100v100z" fill="#02fae0" stroke-width="3" stroke-linecap="round" stroke-dasharray="4,10"/><path transform="translate(654.5,190.03333) scale(1.01,1.01)" d="M400,200v-100h100v100z" fill="#1fa08e" stroke-width="3" stroke-linecap="round" stroke-dasharray="4,10"/><path transform="translate(653.5,190.03333) scale(1.01,1.01)" d="M500,200v-100h100v100z" fill="#1fa08e" stroke-width="3" stroke-linecap="round" stroke-dasharray="4,10"/><path transform="translate(658.5,189.03333) scale(1.01,1.01)" d="M0,300v-100h100v100z" fill="none" stroke-width="3" stroke-linecap="round" stroke-dasharray="4,10"/><path transform="translate(657.5,189.03333) scale(1.01,1.01)" d="M100,300v-100h100v100z" fill="#01564d" stroke-width="3" stroke-linecap="round" stroke-dasharray="4,10"/><path transform="translate(656.5,189.03333) scale(1.01,1.01)" d="M200,300v-100h100v100z" fill="#1fa08e" stroke-width="3" stroke-linecap="round" stroke-dasharray="4,10"/><path transform="translate(655.5,189.03333) scale(1.01,1.01)" d="M300,300v-100h100v100z" fill="#1fa08e" stroke-width="3" stroke-linecap="round" stroke-dasharray="4,10"/><path transform="translate(654.5,189.03333) scale(1.01,1.01)" d="M400,300v-100h100v100z" fill="#1fa08e" stroke-width="3" stroke-linecap="round" stroke-dasharray="4,10"/><path transform="translate(653.5,189.03333) scale(1.01,1.01)" d="M500,300v-100h100v100z" fill="#1fa08e" stroke-width="3" stroke-linecap="round" stroke-dasharray="4,10"/><path transform="translate(658.5,188.03333) scale(1.01,1.01)" d="M0,400v-100h100v100z" fill="none" stroke-width="3" stroke-linecap="round" stroke-dasharray="4,10"/><path transform="translate(657.5,188.03333) scale(1.01,1.01)" d="M100,400v-100h100v100z" fill="#001b18" stroke-width="3" stroke-linecap="round" stroke-dasharray="4,10"/><path transform="translate(656.5,188.03333) scale(1.01,1.01)" d="M200,400v-100h100v100z" fill="#001b18" stroke-width="3" stroke-linecap="round" stroke-dasharray="4,10"/><path transform="translate(655.5,188.03333) scale(1.01,1.01)" d="M300,400v-100h100v100z" fill="#001b18" stroke-width="3" stroke-linecap="round" stroke-dasharray="4,10"/><path transform="translate(654.5,188.03333) scale(1.01,1.01)" d="M400,400v-100h100v100z" fill="#01564d" stroke-width="3" stroke-linecap="round" stroke-dasharray="4,10"/><path transform="translate(653.5,188.03333) scale(1.01,1.01)" d="M500,400v-100h100v100z" fill="#1fa08e" stroke-width="3" stroke-linecap="round" stroke-dasharray="4,10"/><path transform="translate(658.5,187.03333) scale(1.01,1.01)" d="M0,500v-100h100v100z" fill="none" stroke-width="3" stroke-linecap="round" stroke-dasharray="4,10"/><path transform="translate(657.5,187.03333) scale(1.01,1.01)" d="M100,500v-100h100v100z" fill="none" stroke-width="3" stroke-linecap="round" stroke-dasharray="4,10"/><path transform="translate(656.5,187.03333) scale(1.01,1.01)" d="M200,500v-100h100v100z" fill="none" stroke-width="3" stroke-linecap="round" stroke-dasharray="4,10"/><path transform="translate(655.5,187.03333) scale(1.01,1.01)" d="M300,500v-100h100v100z" fill="none" stroke-width="3" stroke-linecap="round" stroke-dasharray="4,10"/><path transform="translate(654.5,187.03333) scale(1.01,1.01)" d="M400,500v-100h100v100z" fill="none" stroke-width="3" stroke-linecap="round" stroke-dasharray="4,10"/><path transform="translate(653.5,187.03333) scale(1.01,1.01)" d="M500,500v-100h100v100z" fill="#01564d" stroke-width="3" stroke-linecap="round" stroke-dasharray="4,10"/><path transform="translate(658.5,186.03333) scale(1.01,1.01)" d="M0,600v-100h100v100z" fill="none" stroke-width="3" stroke-linecap="round" stroke-dasharray="4,10"/><path transform="translate(657.5,186.03333) scale(1.01,1.01)" d="M100,600v-100h100v100z" fill="none" stroke-width="3" stroke-linecap="round" stroke-dasharray="4,10"/><path transform="translate(656.5,186.03333) scale(1.01,1.01)" d="M200,600v-100h100v100z" fill="none" stroke-width="3" stroke-linecap="round" stroke-dasharray="4,10"/><path transform="translate(655.5,186.03333) scale(1.01,1.01)" d="M300,600v-100h100v100z" fill="none" stroke-width="3" stroke-linecap="round" stroke-dasharray="4,10"/><path transform="translate(654.5,186.03333) scale(1.01,1.01)" d="M400,600v-100h100v100z" fill="none" stroke-width="3" stroke-linecap="round" stroke-dasharray="4,10"/><path transform="translate(653.5,186.03333) scale(1.01,1.01)" d="M500,600v-100h100v100z" fill="none" stroke-width="3" stroke-linecap="round" stroke-dasharray="4,10"/></g><path d="M959,291.53333v-100h100v100z" fill="none" stroke="none" stroke-width="3" stroke-linecap="round" stroke-dasharray="4,10"/><g stroke-linecap="butt" stroke-dasharray=""><path d="M609,741.53333v-600h600v600z" fill="none" stroke="#ffffff" stroke-width="6"/><g fill="#ffffff" stroke="none" stroke-width="1"><path d="M1099.25,716.53333h-23.25v-108h24l60.45,72v-72h23.55v108h-24l-60.75,-72.3z"/><path d="M1062.875,716.53333h-99.75v-108h99.75v23.4h-76.2v18.9h61.35v23.4h-61.35v18.9h76.2z"/><path d="M927.8,716.53333h-63.6c-6.1,0 -11.32333,-2.17333 -15.67,-6.52c-4.35333,-4.35333 -6.53,-9.58 -6.53,-15.68v0v-10.05h23.25v3.9c0,3.3 0,4.95 0,4.95c0,0 1.65,0 4.95,0v0h51.3c3.3,0 4.95,0 4.95,0c0,0 0,-1.65 0,-4.95v0v-9c0,-3.3 0,-4.95 0,-4.95c0,0 -1.65,0 -4.95,0v0h-57.3c-6.1,0 -11.32333,-2.17333 -15.67,-6.52c-4.35333,-4.35333 -6.53,-9.58 -6.53,-15.68v0v-21.3c0,-6.1 2.17667,-11.32333 6.53,-15.67c4.34667,-4.35333 9.57,-6.53 15.67,-6.53v0h63.6c6,0 11.2,2.17667 15.6,6.53c4.4,4.34667 6.6,9.57 6.6,15.67v0v10.05h-23.55v-3.9c0,-3.3 0,-4.95 0,-4.95c0,0 -1.65,0 -4.95,0v0h-51.3c-3.3,0 -4.95,0 -4.95,0c0,0 0,1.65 0,4.95v0v9c0,3.3 0,4.95 0,4.95c0,0 1.65,0 4.95,0v0h57.6c6,0 11.2,2.17667 15.6,6.53c4.4,4.34667 6.6,9.57 6.6,15.67v0v21.3c0,6.1 -2.2,11.32667 -6.6,15.68c-4.4,4.34667 -9.6,6.52 -15.6,6.52z"/><path d="M750.275,716.53333h-23.4v-108h23.4v42.3h21.15l35.4,-42.3h24.3v8.1l-38.55,45.9l38.55,45.9v8.1h-24.3l-35.4,-42.3h-21.15z"/><path d="M1183.85,599.53333h-85.5c-6.1,0 -11.32667,-2.17333 -15.68,-6.52c-4.34667,-4.35333 -6.52,-9.58 -6.52,-15.68v0v-63.6c0,-6.1 2.17333,-11.32333 6.52,-15.67c4.35333,-4.35333 9.58,-6.53 15.68,-6.53v0h85.5v23.4h-79.5c-3.3,0 -4.95,0 -4.95,0c0,0 0,1.65 0,4.95v0v51.3c0,3.3 0,4.95 0,4.95c0,0 1.65,0 4.95,0v0h79.5z"/><path d="M1062.875,599.53333h-99.75v-108h99.75v23.4h-76.2v18.9h61.35v23.4h-61.35v18.9h76.2z"/><path d="M865.25,599.53333h-23.25v-85.8c0,-6.1 2.17333,-11.32333 6.52,-15.67c4.35333,-4.35333 9.58,-6.53 15.68,-6.53v0h63.45c6.1,0 11.35,2.17667 15.75,6.53c4.4,4.34667 6.6,9.57 6.6,15.67v0v85.8h-23.55v-34.8h-61.2zM865.25,519.88333v21.45h61.2v-21.45c0,-3.3 0,-4.95 0,-4.95c0,0 -1.65,0 -4.95,0v0h-51.3c-3.3,0 -4.95,0 -4.95,0c0,0 0,1.65 0,4.95z"/><path d="M747.125,599.53333h-23.25v-108h23.25v42.3h63.75v-42.3h23.25v108h-23.25v-42.3h-63.75z"/></g></g></g></svg>