<svg version="1.1" xmlns="http://www.w3.org/2000/svg" xmlns:xlink="http://www.w3.org/1999/xlink" width="653.5" height="653.5" viewBox="606,138.53333,653.5,653.5"><g fill="none" fill-rule="nonzero" stroke="none" stroke-width="none" stroke-linecap="none" stroke-linejoin="miter" stroke-miterlimit="10" stroke-dasharray="none" stroke-dashoffset="0" font-family="none" font-weight="none" font-size="none" text-anchor="none" style="mix-blend-mode: normal"><g stroke="none"><path d="M659,791.53333v-600h600v600z" fill="#000000" stroke-width="1" stroke-linecap="butt" stroke-dasharray=""/><path transform="translate(658.5,191.03333) scale(1.01,1.01)" d="M0,100v-100h100v100z" fill="#12002f" stroke-width="3" stroke-linecap="round" stroke-dasharray="4,10"/><path transform="translate(657.5,191.03333) scale(1.01,1.01)" d="M100,100v-100h100v100z" fill="none" stroke-width="3" stroke-linecap="round" stroke-dasharray="4,10"/><path transform="translate(656.5,191.03333) scale(1.01,1.01)" d="M200,100v-100h100v100z" fill="none" stroke-width="3" stroke-linecap="round" stroke-dasharray="4,10"/><path transform="translate(655.5,191.03333) scale(1.01,1.01)" d="M300,100v-100h100v100z" fill="none" stroke-width="3" stroke-linecap="round" stroke-dasharray="4,10"/><path transform="translate(654.5,191.03333) scale(1.01,1.01)" d="M400,100v-100h100v100z" fill="none" stroke-width="3" stroke-linecap="round" stroke-dasharray="4,10"/><path transform="translate(653.5,191.03333) scale(1.01,1.01)" d="M500,100v-100h100v100z" fill="#12002f" stroke-width="3" stroke-linecap="round" stroke-dasharray="4,10"/><path transform="translate(658.5,190.03333) scale(1.01,1.01)" d="M0,200v-100h100v100z" fill="#41008b" stroke-width="3" stroke-linecap="round" stroke-dasharray="4,10"/><path transform="translate(657.5,190.03333) scale(1.01,1.01)" d="M100,200v-100h100v100z" fill="#12002f" stroke-width="3" stroke-linecap="round" stroke-dasharray="4,10"/><path transform="translate(656.5,190.03333) scale(1.01,1.01)" d="M200,200v-100h100v100z" fill="none" stroke-width="3" stroke-linecap="round" stroke-dasharray="4,10"/><path transform="translate(655.5,190.03333) scale(1.01,1.01)" d="M300,200v-100h100v100z" fill="none" stroke-width="3" stroke-linecap="round" stroke-dasharray="4,10"/><path transform="translate(654.5,190.03333) scale(1.01,1.01)" d="M400,200v-100h100v100z" fill="none" stroke-width="3" stroke-linecap="round" stroke-dasharray="4,10"/><path transform="translate(653.5,190.03333) scale(1.01,1.01)" d="M500,200v-100h100v100z" fill="#2a005e" stroke-width="3" stroke-linecap="round" stroke-dasharray="4,10"/><path transform="translate(658.5,189.03333) scale(1.01,1.01)" d="M0,300v-100h100v100z" fill="#6800e7" stroke-width="3" stroke-linecap="round" stroke-dasharray="4,10"/><path transform="translate(657.5,189.03333) scale(1.01,1.01)" d="M100,300v-100h100v100z" fill="#2a005e" stroke-width="3" stroke-linecap="round" stroke-dasharray="4,10"/><path transform="translate(656.5,189.03333) scale(1.01,1.01)" d="M200,300v-100h100v100z" fill="#12002f" stroke-width="3" stroke-linecap="round" stroke-dasharray="4,10"/><path transform="translate(655.5,189.03333) scale(1.01,1.01)" d="M300,300v-100h100v100z" fill="none" stroke-width="3" stroke-linecap="round" stroke-dasharray="4,10"/><path transform="translate(654.5,189.03333) scale(1.01,1.01)" d="M400,300v-100h100v100z" fill="#12002f" stroke-width="3" stroke-linecap="round" stroke-dasharray="4,10"/><path transform="translate(653.5,189.03333) scale(1.01,1.01)" d="M500,300v-100h100v100z" fill="#12002f" stroke-width="3" stroke-linecap="round" stroke-dasharray="4,10"/><path transform="translate(658.5,188.03333) scale(1.01,1.01)" d="M0,400v-100h100v100z" fill="#6800e7" stroke-width="3" stroke-linecap="round" stroke-dasharray="4,10"/><path transform="translate(657.5,188.03333) scale(1.01,1.01)" d="M100,400v-100h100v100z" fill="#41008b" stroke-width="3" stroke-linecap="round" stroke-dasharray="4,10"/><path transform="translate(656.5,188.03333) scale(1.01,1.01)" d="M200,400v-100h100v100z" fill="#2a005e" stroke-width="3" stroke-linecap="round" stroke-dasharray="4,10"/><path transform="translate(655.5,188.03333) scale(1.01,1.01)" d="M300,400v-100h100v100z" fill="#2a005e" stroke-width="3" stroke-linecap="round" stroke-dasharray="4,10"/><path transform="translate(654.5,188.03333) scale(1.01,1.01)" d="M400,400v-100h100v100z" fill="#2a005e" stroke-width="3" stroke-linecap="round" stroke-dasharray="4,10"/><path transform="translate(653.5,188.03333) scale(1.01,1.01)" d="M500,400v-100h100v100z" fill="#2a005e" stroke-width="3" stroke-linecap="round" stroke-dasharray="4,10"/><path transform="translate(658.5,187.03333) scale(1.01,1.01)" d="M0,500v-100h100v100z" fill="#2a005e" stroke-width="3" stroke-linecap="round" stroke-dasharray="4,10"/><path transform="translate(657.5,187.03333) scale(1.01,1.01)" d="M100,500v-100h100v100z" fill="#41008b" stroke-width="3" stroke-linecap="round" stroke-dasharray="4,10"/><path transform="translate(656.5,187.03333) scale(1.01,1.01)" d="M200,500v-100h100v100z" fill="#41008b" stroke-width="3" stroke-linecap="round" stroke-dasharray="4,10"/><path transform="translate(655.5,187.03333) scale(1.01,1.01)" d="M300,500v-100h100v100z" fill="#6800e7" stroke-width="3" stroke-linecap="round" stroke-dasharray="4,10"/><path transform="translate(654.5,187.03333) scale(1.01,1.01)" d="M400,500v-100h100v100z" fill="#41008b" stroke-width="3" stroke-linecap="round" stroke-dasharray="4,10"/><path transform="translate(653.5,187.03333) scale(1.01,1.01)" d="M500,500v-100h100v100z" fill="#2a005e" stroke-width="3" stroke-linecap="round" stroke-dasharray="4,10"/><path transform="translate(658.5,186.03333) scale(1.01,1.01)" d="M0,600v-100h100v100z" fill="#12002f" stroke-width="3" stroke-linecap="round" stroke-dasharray="4,10"/><path transform="translate(657.5,186.03333) scale(1.01,1.01)" d="M100,600v-100h100v100z" fill="#2a005e" stroke-width="3" stroke-linecap="round" stroke-dasharray="4,10"/><path transform="translate(656.5,186.03333) scale(1.01,1.01)" d="M200,600v-100h100v100z" fill="#6800e7" stroke-width="3" stroke-linecap="round" stroke-dasharray="4,10"/><path transform="translate(655.5,186.03333) scale(1.01,1.01)" d="M300,600v-100h100v100z" fill="#6800e7" stroke-width="3" stroke-linecap="round" stroke-dasharray="4,10"/><path transform="translate(654.5,186.03333) scale(1.01,1.01)" d="M400,600v-100h100v100z" fill="#6800e7" stroke-width="3" stroke-linecap="round" stroke-dasharray="4,10"/><path transform="translate(653.5,186.03333) scale(1.01,1.01)" d="M500,600v-100h100v100z" fill="#2a005e" stroke-width="3" stroke-linecap="round" stroke-dasharray="4,10"/></g><path d="M759,291.53333v-100h100v100z" fill="none" stroke="none" stroke-width="3" stroke-linecap="round" stroke-dasharray="4,10"/><g stroke-linecap="butt" stroke-dasharray=""><path d="M609,741.53333v-600h600v600z" fill="none" stroke="#ffffff" stroke-width="6"/><g fill="#ffffff" stroke="none" stroke-width="1"><path d="M1099.25,716.53333h-23.25v-108h24l60.45,72v-72h23.55v108h-24l-60.75,-72.3z"/><path d="M1024.475,716.53333h-22.95v-108h22.95z"/><path d="M865.25,716.53333h-23.25v-85.8c0,-6.1 2.17333,-11.32333 6.52,-15.67c4.35333,-4.35333 9.58,-6.53 15.68,-6.53v0h63.45c6.1,0 11.35,2.17667 15.75,6.53c4.4,4.34667 6.6,9.57 6.6,15.67v0v85.8h-23.55v-34.8h-61.2zM865.25,636.88333v21.45h61.2v-21.45c0,-3.3 0,-4.95 0,-4.95c0,0 -1.65,0 -4.95,0v0h-51.3c-3.3,0 -4.95,0 -4.95,0c0,0 0,1.65 0,4.95z"/><path d="M747.125,716.53333h-23.25v-108h23.25v42.3h63.75v-42.3h23.25v108h-23.25v-42.3h-63.75z"/><path d="M1100.15,599.53333h-24.15v-7.95l38.55,-46.05l-38.55,-46.05v-7.95h24.15l30,35.55l29.7,-35.55h24.15v7.95l-38.7,46.05l38.7,45.9v8.1h-24.15l-30,-35.4z"/></g></g></g></svg>